<?xml version="1.0" encoding="UTF-8"?>
<svg version="1.1" xmlns="http://www.w3.org/2000/svg" width="2094" height="2094">
<path d="M0 0 C2.00583622 -0.00209276 4.01167169 -0.00506003 6.0175055 -0.00880873 C11.48427388 -0.01652951 16.95097072 -0.01197276 22.41773782 -0.00525283 C28.38210332 -0.00014833 34.34645843 -0.00671146 40.31082243 -0.01173949 C50.74888287 -0.01894268 61.18692698 -0.0188241 71.6249876 -0.01364517 C82.81496523 -0.00812711 94.00493073 -0.00699441 105.1949091 -0.01111984 C106.25822922 -0.01150736 106.25822922 -0.01150736 107.34303056 -0.01190271 C110.23053375 -0.01296934 113.11803693 -0.01406677 116.0055401 -0.01520326 C142.84717138 -0.02576041 169.68879453 -0.02650908 196.53042698 -0.02090836 C197.32440755 -0.02074276 198.11838812 -0.02057717 198.93642871 -0.02040657 C199.73168282 -0.02024071 200.52693693 -0.02007485 201.34628965 -0.01990396 C225.59340354 -0.01485362 249.84051406 -0.01355668 274.08762836 -0.01594925 C275.71257489 -0.01610421 277.33752142 -0.01625852 278.96246795 -0.01641219 C285.49259556 -0.01703313 292.02272316 -0.01767047 298.55285077 -0.01833172 C316.80453555 -0.02016543 335.05622034 -0.02130684 353.3079052 -0.02190399 C354.13891798 -0.02193128 354.96993077 -0.02195857 355.82612576 -0.02198669 C382.29252399 -0.02280484 408.75892105 -0.02055338 435.22531891 -0.01620483 C436.08335702 -0.01606434 436.94139514 -0.01592384 437.82543441 -0.01577908 C451.75879956 -0.01348928 465.69216469 -0.01105031 479.62552982 -0.00859874 C534.92731231 0.00112125 590.22908512 0.00065593 645.53086758 -0.00905991 C659.47750536 -0.01150226 673.42414314 -0.01392434 687.37078094 -0.01620483 C688.22951055 -0.01634573 689.08824015 -0.01648663 689.97299187 -0.01663179 C716.42754057 -0.02094261 742.88208846 -0.02277304 769.3366375 -0.02190399 C770.1668081 -0.02187682 770.9969787 -0.02184965 771.85230599 -0.02182166 C790.07338716 -0.02119679 808.29446824 -0.01992966 826.51554933 -0.01808299 C833.03441621 -0.0174247 839.55328309 -0.01679854 846.07214997 -0.01618156 C847.69386394 -0.01602679 849.31557791 -0.01586933 850.93729188 -0.01570917 C875.18999129 -0.01332065 899.44268692 -0.01535734 923.69538586 -0.02040657 C924.49077395 -0.02057216 925.28616205 -0.02073775 926.10565281 -0.02090836 C926.89957291 -0.02107372 927.69349301 -0.02123909 928.51147129 -0.02140946 C955.25785476 -0.02691956 982.00422847 -0.02490931 1008.75061054 -0.01434687 C1011.61972979 -0.01324212 1014.48884906 -0.01216872 1017.35796833 -0.01111984 C1018.4141816 -0.01072922 1018.4141816 -0.01072922 1019.49173251 -0.01033071 C1030.66082913 -0.00637924 1041.82991366 -0.00913949 1052.9990092 -0.01465785 C1063.96928555 -0.01993606 1074.93954506 -0.0179445 1085.90981986 -0.00862968 C1091.78274251 -0.00384705 1097.65561909 -0.0022971 1103.52854038 -0.00944164 C1108.86311039 -0.01586552 1114.19759312 -0.01321103 1119.53215667 -0.00308032 C1121.45758487 -0.00105348 1123.38302016 -0.00243072 1125.30844277 -0.0074922 C1127.91009394 -0.01385007 1130.51143727 -0.00801778 1133.11307389 0.00098395 C1134.23943731 -0.00618827 1134.23943731 -0.00618827 1135.38855556 -0.01350539 C1140.34986323 0.02167675 1144.24241291 0.46014084 1147.94859219 3.92355728 C1154.04250909 15.63960397 1148.01022065 39.60779542 1145.11265469 51.88840103 C1144.04996214 56.42641287 1143.65787329 60.92671114 1143.28452969 65.56418228 C1142.66663256 72.35113787 1141.45957472 78.28315693 1139.03062344 84.68918228 C1138.1863255 87.17285693 1137.84498638 89.27124195 1137.65952969 91.87668228 C1137.33475802 96.1915058 1135.90262355 99.56983894 1134.19859219 103.51730728 C1133.03989708 106.56650492 1132.34072228 109.56280264 1131.65952969 112.75168228 C1130.38714908 118.58966387 1128.50741238 123.7759156 1126.15952969 129.25168228 C1125.17450615 131.68703051 1124.19542606 134.12421437 1123.22202969 136.56418228 C1122.83676113 137.52119034 1122.83676113 137.52119034 1122.44370937 138.49753189 C1120.75536377 142.70299903 1119.16560926 146.93724645 1117.59702969 151.18918228 C1115.89766537 155.65889293 1113.93896993 159.48143654 1111.27281094 163.43527603 C1110.12824823 165.30272044 1109.42576325 167.0566356 1108.72202969 169.12668228 C1107.26889315 173.31465442 1105.09524672 176.86076917 1102.76109219 180.61496353 C1101.1420524 183.28045586 1099.67689979 185.99365313 1098.22202969 188.75168228 C1095.72611584 193.38415066 1092.89700703 197.63126677 1089.82749844 201.90011978 C1086.78268768 206.1928038 1084.05126451 210.66637592 1081.47202969 215.25168228 C1080.82234219 216.24168228 1080.82234219 216.24168228 1080.15952969 217.25168228 C1079.49952969 217.25168228 1078.83952969 217.25168228 1078.15952969 217.25168228 C1077.76507656 218.35576431 1077.76507656 218.35576431 1077.36265469 219.48215103 C1076.15416488 222.26403179 1074.81401548 224.2178901 1072.90952969 226.56418228 C1070.08141356 230.09052625 1067.36067894 233.66547562 1064.71421719 237.32980728 C1063.15952969 239.25168228 1063.15952969 239.25168228 1060.76109219 241.64621353 C1058.20035846 244.2107922 1055.93219865 246.86835197 1053.65952969 249.68918228 C1052.87706875 250.65211197 1052.09460781 251.61504166 1051.28843594 252.60715103 C1050.10073928 254.08250999 1048.91710895 255.56125558 1047.74937344 257.05246353 C1044.90996973 260.62337463 1041.69960899 263.51939787 1038.22202969 266.44308853 C1035.75428281 268.60704081 1033.4748858 270.92576983 1031.15952969 273.25168228 C1024.08314751 279.90921318 1016.75347949 286.19460327 1009.15952969 292.25168228 C1008.60329922 292.69689224 1008.04706875 293.1421022 1007.47398281 293.60080338 C1000.20442735 299.41042325 992.87865021 305.04576379 985.15952969 310.25168228 C984.59620937 310.63711197 984.03288906 311.02254166 983.45249844 311.41965103 C976.43971807 316.21786918 969.45340177 320.79978064 961.91734219 324.74777603 C957.58985538 327.10766615 953.45580078 329.77277595 949.30015469 332.41965103 C945.98127773 334.35566259 942.70367882 335.77956271 939.15952969 337.25168228 C938.39640469 337.72605728 937.63327969 338.20043228 936.84702969 338.68918228 C932.00600336 341.50373247 926.67886231 343.2804613 921.46421719 345.29074478 C916.37261325 347.2628843 916.37261325 347.2628843 911.59702969 349.87668228 C908.63007247 351.55035045 905.86954315 352.00004056 902.55015469 352.65402603 C900.0703355 353.27398083 897.96672697 354.15858707 895.65952969 355.25168228 C891.94116354 357.01028128 888.44767189 357.98304828 884.39781094 358.66183853 C881.9901586 359.20849752 881.9901586 359.20849752 879.34312344 360.71652603 C875.83837812 362.40654433 872.73548825 363.0793381 868.90952969 363.75168228 C864.67380432 364.5261915 860.5534939 365.35481752 856.47202969 366.75168228 C850.56374302 368.66112856 844.42561755 369.34759863 838.28965664 370.16183853 C837.45780849 370.27527603 836.62596035 370.38871353 835.76890469 370.50558853 C834.65467129 370.64976212 834.65467129 370.64976212 833.51792812 370.7968483 C831.10398756 371.18739238 831.10398756 371.18739238 828.72673476 372.21081525 C805.76416697 378.9110131 777.21825013 375.540661 753.52331783 375.51481875 C747.61001516 375.51060586 741.6967244 375.51807415 735.78342474 375.52397126 C725.4442951 375.5326925 715.10518353 375.53412904 704.76605129 375.53046799 C693.6866337 375.52657626 682.60722895 375.527071 671.527812 375.53277779 C670.82495966 375.53313661 670.12210731 375.53349544 669.39795641 375.53386514 C666.5348413 375.53534023 663.67172621 375.53684464 660.80861113 375.5383866 C631.8327353 375.55397334 602.85686829 375.55670612 573.88098901 375.55423054 C569.88591746 375.55389207 565.89084591 375.55356997 561.89577436 375.55326486 C561.10218734 375.55320381 560.30860031 375.55314277 559.49096519 375.55307988 C541.87203078 375.55180575 524.25309758 375.55441328 506.63416353 375.55779092 C502.60648835 375.55856165 498.57881316 375.5593064 494.55113798 375.56005594 C492.93461621 375.56035763 491.31809445 375.56065951 489.70157269 375.56096158 C488.49963191 375.5611861 488.49963191 375.5611861 487.2734095 375.56141516 C485.65257137 375.56171869 484.03173324 375.56202337 482.41089511 375.5623292 C436.46202282 375.57099426 390.5131516 375.57565139 344.5642786 375.57138157 C343.28962724 375.57126448 343.28962724 375.57126448 341.98922535 375.57114503 C332.51411505 375.57027229 323.03900476 375.56934302 313.56389447 375.5683944 C312.70848055 375.56830889 311.85306663 375.56822338 310.97173107 375.56813528 C303.86483838 375.56742457 303.86483838 375.56742457 300.59370161 375.56709305 C245.81632127 375.56155094 191.03895777 375.56912086 136.26158047 375.58786392 C122.44372785 375.59258612 108.62587522 375.5972666 94.8080225 375.60170078 C93.53179583 375.60211077 93.53179583 375.60211077 92.2297868 375.60252903 C66.01821352 375.61089678 39.80664163 375.61557962 13.59506702 375.61640835 C12.77251201 375.61643471 11.949957 375.61646108 11.10247607 375.61648825 C-6.95143389 375.61702894 -25.00534375 375.61665676 -43.05925368 375.61544853 C-49.51819765 375.61502291 -55.97714162 375.61465779 -62.4360856 375.61431909 C-64.04286045 375.61423379 -65.64963529 375.61414485 -67.25641014 375.61405227 C-92.87057347 375.61260283 -118.48472536 375.61973353 -144.09888594 375.63105623 C-170.59040777 375.64269112 -197.08190914 375.64328616 -223.57343106 375.63121281 C-226.41547935 375.62996094 -229.25752767 375.62875746 -232.099576 375.62759209 C-232.79706865 375.62730179 -233.49456129 375.6270115 -234.21319008 375.62671241 C-245.27377965 375.62238078 -256.33434024 375.6281286 -267.39492525 375.63803228 C-278.26019001 375.64755022 -289.1254151 375.64616753 -299.99067817 375.63382606 C-305.80656216 375.6275285 -311.6223406 375.62607392 -317.43821876 375.63768939 C-322.72214788 375.64814605 -328.00588096 375.64495641 -333.28979928 375.63058486 C-335.19574675 375.62784204 -337.10170961 375.63019387 -339.00764269 375.63809201 C-341.58561617 375.6480513 -344.16289596 375.63966716 -346.74084032 375.62657911 C-347.85248841 375.63751465 -347.85248841 375.63751465 -348.98659405 375.64867111 C-353.66435912 375.59932986 -356.88720394 374.76373946 -360.84047031 372.25168228 C-367.80647811 361.80267058 -361.24654817 338.23488414 -359.32875156 326.49386978 C-358.7906247 322.9207074 -358.41469725 319.3442671 -358.02797031 315.75168228 C-357.0762996 307.42046153 -355.09691925 299.38202186 -353.05922031 291.25949478 C-352.0023995 287.03594003 -351.12824905 282.79618108 -350.33046055 278.51657486 C-349.66805037 275.45470181 -348.66497898 272.55807622 -347.62562656 269.60715103 C-346.74699866 266.97126731 -346.04101346 264.31515413 -345.34047031 261.62668228 C-344.1862529 257.29836697 -342.66223005 253.3506417 -340.84047031 249.25168228 C-340.32602479 247.75657499 -339.82677229 246.25617901 -339.34047031 244.75168228 C-338.05733352 240.80870985 -336.52571808 237.04348976 -334.84047031 233.25168228 C-332.83128048 228.64591652 -330.99224293 224.01587591 -329.21547031 219.31418228 C-326.45703026 212.24889073 -322.94640716 205.78929913 -319.13734531 199.24386978 C-317.23530001 195.97522889 -315.45689463 192.65790533 -313.71498203 189.30173111 C-310.69874398 183.49248904 -307.48345692 177.99924784 -303.61781406 172.70480728 C-301.62858987 169.9592407 -299.76596242 167.14680186 -297.90297031 164.31418228 C-294.60062771 159.33181296 -291.14753072 154.48634648 -287.59828281 149.67746353 C-286.14654899 147.67407086 -284.78687155 145.65395387 -283.46547031 143.56418228 C-282.92922031 142.80105728 -282.39297031 142.03793228 -281.84047031 141.25168228 C-281.18047031 141.25168228 -280.52047031 141.25168228 -279.84047031 141.25168228 C-279.61359531 140.71543228 -279.38672031 140.17918228 -279.15297031 139.62668228 C-277.81354865 137.20296688 -276.23254777 135.21710789 -274.42982578 133.12350845 C-273.25329005 131.73787106 -272.10544575 130.32775852 -270.9737711 128.90524673 C-265.32094711 121.81681582 -259.22708554 115.36658226 -252.77797031 109.00168228 C-251.82639258 108.05156776 -250.87521962 107.10104766 -249.92445469 106.15011978 C-243.20836181 99.47609012 -236.32265595 93.1366979 -228.90297031 87.25168228 C-228.05476719 86.57879166 -227.20656406 85.90590103 -226.33265781 85.21261978 C-222.51483609 82.20862839 -218.68355794 79.22326657 -214.84047031 76.25168228 C-213.80535313 75.44344009 -212.77023594 74.63519791 -211.70375156 73.80246353 C-203.20601922 67.18592757 -194.53363324 61.20463871 -185.27406406 55.70090103 C-182.95193937 54.31806273 -180.6409387 52.92023512 -178.34047031 51.50168228 C-177.39687656 50.92160416 -177.39687656 50.92160416 -176.43422031 50.32980728 C-174.67677823 49.21431437 -174.67677823 49.21431437 -172.84047031 47.25168228 C-171.78859531 46.88043228 -170.73672031 46.50918228 -169.65297031 46.12668228 C-165.34990043 44.59548041 -161.40524838 42.4916517 -157.40297031 40.31418228 C-151.97288344 37.36468662 -146.53712106 34.65547133 -140.84047031 32.25168228 C-139.40202464 31.60795797 -137.96455323 30.96205301 -136.52797031 30.31418228 C-131.0064037 27.8612215 -125.42682762 25.55237944 -119.84047031 23.25168228 C-119.00515781 22.89976822 -118.16984531 22.54785416 -117.30922031 22.18527603 C-111.61339023 19.82742429 -105.83920549 17.95515916 -99.93422031 16.18918228 C-97.35824934 15.40858502 -94.81951399 14.57319747 -92.27797031 13.68918228 C-86.88382124 11.87148177 -81.37435017 10.56862286 -75.84047031 9.25168228 C-74.78472813 8.99258072 -73.72898594 8.73347916 -72.64125156 8.46652603 C-66.09331913 6.8947063 -59.58556927 5.67525695 -52.91078281 4.77902603 C-49.80895112 4.31724 -49.80895112 4.31724 -46.78201145 3.28805266 C-42.15430758 1.94901418 -37.49196115 1.54988026 -32.70549971 1.14241242 C-31.73869684 1.05814264 -30.77189397 0.97387286 -29.77579404 0.88704945 C-19.8449366 0.08049828 -9.95772087 -0.02677477 0 0 Z " fill="#E5B430" transform="translate(680.8404703140259,292.74831771850586)"/>
<path d="M0 0 C3.8777647 0.00258319 7.75552572 -0.00074117 11.63328986 -0.00324333 C18.40013562 -0.00682294 25.16697336 -0.00676548 31.93381946 -0.00419617 C41.99604942 -0.00038613 52.05827273 -0.0023615 62.12050266 -0.00540448 C80.09503321 -0.01064873 98.0695602 -0.01022269 116.04409108 -0.00732557 C131.76320126 -0.00480451 147.48231014 -0.00415589 163.20142048 -0.00534821 C164.76879459 -0.00546279 164.76879459 -0.00546279 166.36783282 -0.00557968 C170.60987828 -0.00589104 174.85192374 -0.00620944 179.0939692 -0.00653944 C218.82229671 -0.00959321 258.55062195 -0.00683257 298.27894911 -0.00144255 C333.56821288 0.00330877 368.85747305 0.00287256 404.14673679 -0.00190354 C443.8321494 -0.00725673 483.51756002 -0.00938286 523.20297294 -0.00629128 C527.43145936 -0.00597057 531.65994578 -0.00565773 535.8884322 -0.00534821 C537.45008136 -0.0052296 537.45008136 -0.0052296 539.043279 -0.00510858 C554.76423933 -0.00397114 570.48519821 -0.0053012 586.20615833 -0.00782776 C604.06753728 -0.01068408 621.92891211 -0.00997815 639.79029054 -0.00454702 C649.78657178 -0.00160773 659.78284412 -0.00142347 669.77912513 -0.00519319 C676.45289641 -0.00743264 683.12666052 -0.00604533 689.80043073 -0.00168843 C693.60433166 0.0006937 697.40821486 0.00149667 701.21211523 -0.00209441 C705.30870537 -0.00592246 709.40525197 -0.00202997 713.50184124 0.00262641 C714.68336539 0.00028525 715.86488953 -0.00205592 717.08221745 -0.00446803 C734.05958191 0.03427789 734.05958191 0.03427789 738.34058445 3.69096755 C742.93380407 11.58556378 741.17489136 20.92167388 740.52808445 29.69096755 C740.44493992 30.97938552 740.36179539 32.26780349 740.27613132 33.59526443 C739.8418688 39.74150551 739.1587327 45.22475064 737.34058445 51.12846755 C736.77474618 54.78242771 736.38109082 58.45478682 735.96558445 62.12846755 C734.97884936 70.29956464 733.5644109 77.93760355 731.2429282 85.83940505 C730.36402835 89.04301403 729.81056922 92.15523334 729.34058445 95.44096755 C728.62169984 100.19960198 727.26743712 104.20520566 725.3523032 108.60503005 C723.8941264 112.242027 722.98129919 115.97966317 722.05152195 119.7808113 C721.34058445 122.12846755 721.34058445 122.12846755 719.34058445 125.12846755 C718.81369305 126.88569174 718.33931624 128.65907159 717.90308445 130.44096755 C716.79730656 134.67515224 715.40564157 138.25648546 713.34058445 142.12846755 C712.82381138 143.45539007 712.32479609 144.78931974 711.84058445 146.12846755 C710.57683154 149.60378805 708.99511994 152.81939656 707.34058445 156.12846755 C706.84689008 157.39372797 706.36864277 158.66508609 705.90308445 159.94096755 C703.0532854 167.65734651 699.64488426 174.40739513 695.1335532 181.3042488 C693.39164712 184.0480355 691.81616584 186.8287636 690.27808445 189.69096755 C685.7991579 198.02248 680.96155024 205.82353352 675.3288657 213.4292488 C673.53601534 215.86315764 671.80459631 218.32627149 670.09058445 220.81596755 C666.87943413 225.41812308 663.56396293 229.93820448 660.21558445 234.44096755 C659.71252781 235.12312332 659.20947117 235.80527908 658.69117039 236.50810623 C655.81227532 240.35784658 652.80430674 243.77647824 649.34058445 247.12846755 C648.42638428 248.21747602 647.5260254 249.3186149 646.65308445 250.44096755 C645.88995945 251.32784255 645.12683445 252.21471755 644.34058445 253.12846755 C643.68058445 253.12846755 643.02058445 253.12846755 642.34058445 253.12846755 C642.07503757 253.70983474 641.8094907 254.29120193 641.53589695 254.8901863 C638.27697846 260.99267092 632.85656006 265.72267854 627.6413657 270.1479988 C624.81662869 272.57947871 622.0790216 275.10100793 619.34058445 277.62846755 C613.15426983 283.32150193 606.92603349 288.89996262 600.34058445 294.12846755 C599.8077988 294.55248855 599.27501316 294.97650955 598.72608249 295.41337966 C596.95428634 296.82164046 595.17895913 298.22535451 593.40308445 299.62846755 C592.8081821 300.10155349 592.21327976 300.57463943 591.60035007 301.0620613 C587.95436773 303.93900038 584.23123058 306.58478995 580.34058445 309.12846755 C578.87946556 310.16622337 577.42107211 311.20782841 575.96558445 312.25346755 C566.65503649 318.77928969 557.0519174 325.04902814 546.76245945 329.91753005 C543.86213917 331.3676902 541.11902514 333.01967201 538.34058445 334.69096755 C533.88631407 337.32926616 529.49610875 339.41244799 524.6569907 341.23003005 C520.21772247 342.95183729 515.99494805 345.08461046 511.9694907 347.6245613 C509.21580536 349.19984935 506.61095551 350.1696196 503.59058445 351.12846755 C502.53742039 351.46878005 501.48425632 351.80909255 500.3991782 352.15971755 C499.38984226 352.47940505 498.38050632 352.79909255 497.34058445 353.12846755 C492.85798498 354.54925978 488.56524588 355.9899867 484.34058445 358.06596755 C479.22363541 360.43391738 473.8532187 361.54854647 468.3679282 362.73369216 C467.66281101 362.88717117 466.95769382 363.04065017 466.23120945 363.19878005 C465.60246921 363.33042556 464.97372898 363.46207107 464.32593601 363.59770584 C462.25353988 364.1040143 462.25353988 364.1040143 460.03150242 365.09453201 C456.84943405 366.31718303 453.74207336 366.95326246 450.39527195 367.6011238 C449.41773456 367.79308586 449.41773456 367.79308586 448.42044895 367.98892593 C446.35302848 368.39421716 444.28441955 368.7929663 442.21558445 369.19096755 C440.13982571 369.59355791 438.06435889 369.99755586 435.98929661 370.40372085 C434.11200495 370.77069193 432.23388248 371.1334053 430.35572117 371.49589919 C427.31188152 372.07431339 427.31188152 372.07431339 424.34058445 373.12846755 C422.85378547 373.31867004 421.36168616 373.46907225 419.8679282 373.5933113 C418.51537937 373.71029373 418.51537937 373.71029373 417.13550632 373.82963943 C415.72108249 373.94662185 415.72108249 373.94662185 414.27808445 374.06596755 C412.45368523 374.21877594 410.62947122 374.3738083 408.8054282 374.5308113 C407.83481775 374.61334608 406.86420731 374.69588086 405.86418443 374.78091669 C403.52795376 375.01135119 401.19585407 375.28881089 398.87098246 375.6144576 C384.41983624 377.61625257 369.91223213 377.42384032 355.35609278 377.41020811 C351.41756485 377.40872974 347.47906241 377.41882905 343.54054575 377.42735814 C335.7503169 377.44242628 327.9601155 377.44689953 320.16987358 377.44801626 C310.83101001 377.44985249 301.49217144 377.46321324 292.15331871 377.4767099 C269.59934247 377.50873019 247.04536909 377.52062188 224.49137419 377.5302074 C213.82100161 377.53488595 203.15063116 377.54209162 192.48026025 377.54959816 C155.94431605 377.57525069 119.40837302 377.59669822 82.87242 377.60360336 C80.58203539 377.60404662 78.29165077 377.60449019 76.00126615 377.60493406 C73.70545748 377.60537534 71.40964882 377.6058163 69.11384015 377.60625696 C64.50826924 377.60714205 59.90269833 377.60803628 55.29712742 377.6089363 C53.58427567 377.60926448 53.58427567 377.60926448 51.83682086 377.60959928 C14.76360837 377.6168697 -22.30952613 377.64875418 -59.38270874 377.69531703 C-98.59563148 377.74447733 -137.8085096 377.771947 -177.02146406 377.77433919 C-181.32281264 377.7746821 -185.6241612 377.77511296 -189.92550976 377.77560806 C-190.98459294 377.77571959 -192.04367612 377.77583113 -193.13485273 377.77594605 C-210.19103784 377.77824899 -227.24714288 377.80030752 -244.30330093 377.82938217 C-261.42924304 377.85807233 -278.55508221 377.86460838 -295.68104174 377.84850221 C-305.85979553 377.83957357 -316.0382176 377.84737487 -326.21692798 377.87897922 C-333.01136745 377.8984274 -339.8055736 377.89617248 -346.60001076 377.87610677 C-350.47399159 377.86528557 -354.34733378 377.8640191 -358.2212626 377.88912421 C-362.39172771 377.91592638 -366.56069112 377.89646358 -370.73117192 377.87234115 C-371.93714785 377.88753154 -373.14312379 377.90272192 -374.38564445 377.91837263 C-382.59665497 377.81523148 -386.9023001 375.885583 -392.65941555 370.12846755 C-393.26117769 362.23558741 -392.51272678 354.2997593 -391.78441555 346.44096755 C-391.70602444 345.57503982 -391.62763333 344.70911209 -391.54686672 343.81694412 C-391.02959774 338.58573292 -390.17358113 333.52354309 -389.09203274 328.3811531 C-388.54769014 325.54670095 -388.34903382 322.75981484 -388.22191555 319.87846755 C-387.78507691 313.50358505 -386.61779353 307.49070696 -385.15697415 301.27788162 C-384.58157669 298.79220976 -384.0360162 296.3007597 -383.4914468 293.80815505 C-381.28091237 283.76168093 -378.94064856 273.88656918 -375.65941555 264.12846755 C-375.40418118 263.3498738 -375.1489468 262.57128005 -374.88597805 261.76909255 C-374.40908491 260.32302947 -373.9261996 258.87892597 -373.4367593 257.4370613 C-372.85335408 255.70443575 -372.28565004 253.96651035 -371.7258218 252.2261238 C-369.70764252 245.99882352 -367.44258325 240.05031708 -364.65941555 234.12846755 C-361.08683756 226.59286553 -361.08683756 226.59286553 -358.28441555 218.75346755 C-356.26844888 212.46187927 -352.91662305 206.84519908 -349.65941555 201.12846755 C-349.24063137 200.3920906 -348.82184719 199.65571365 -348.39037258 198.89702224 C-345.187916 193.28318177 -341.94016757 187.69688574 -338.65941555 182.12846755 C-338.29171047 181.50375564 -337.9240054 180.87904373 -337.54515774 180.23540115 C-332.71645509 172.08031033 -327.38200121 164.38647003 -321.81273586 156.7314949 C-320.15898223 154.43290337 -318.56893151 152.09169944 -316.97191555 149.75346755 C-313.41102459 144.64363111 -309.47621028 139.87183872 -305.01097805 135.5229988 C-303.55628784 134.17413859 -303.55628784 134.17413859 -302.78441555 132.25346755 C-301.23548203 129.32770422 -299.02504929 127.44033689 -296.65941555 125.12846755 C-295.71324336 124.01075139 -294.7761718 122.88528648 -293.84691555 121.75346755 C-291.06174674 118.45146329 -287.99305395 115.67405394 -284.6867593 112.90190505 C-281.32891718 109.96460193 -278.26073857 106.7466501 -275.15160305 103.55034255 C-268.99076016 97.26076564 -262.58450069 91.58398521 -255.65941555 86.12846755 C-253.97138844 84.77495801 -252.28387534 83.42080713 -250.59691555 82.06596755 C-249.78222805 81.41756912 -248.96754055 80.76917068 -248.12816555 80.1011238 C-246.45435355 78.76366326 -244.78787707 77.41698012 -243.12816555 76.0620613 C-237.82255267 71.747157 -232.41974573 67.81082628 -226.65941555 64.12846755 C-225.8292593 63.58577224 -224.99910305 63.04307693 -224.14379055 62.4839363 C-217.42633476 58.13330338 -210.53504886 54.12244462 -203.56127102 50.20073318 C-201.58105398 49.08428732 -199.60627862 47.95862835 -197.6320718 46.83159255 C-187.2468113 40.91908759 -176.92200934 35.20630323 -165.65941555 31.12846755 C-164.71066555 30.65409255 -163.76191555 30.17971755 -162.78441555 29.69096755 C-151.24211543 23.91981749 -138.51261766 19.61357692 -126.09691555 16.12846755 C-122.57502986 15.16795946 -122.57502986 15.16795946 -118.97191555 13.62846755 C-114.70212561 11.98119734 -110.42755795 11.39871686 -105.91722805 10.7261238 C-102.47734896 10.09506685 -99.25009942 9.15958979 -95.90941555 8.12846755 C-90.21009281 6.43119672 -84.63023019 5.4728908 -78.73778469 4.84941482 C-74.18957107 4.35945728 -69.82132421 3.55081094 -65.34691555 2.56596755 C-58.41735459 1.23646101 -51.6562 0.77277524 -44.60938389 0.54656028 C-43.43327384 0.50640129 -42.25716379 0.46624231 -41.04541405 0.42486638 C-27.36545868 -0.0011685 -13.68496516 -0.01314265 0 0 Z " fill="#E5B430" transform="translate(710.6594155523926,857.8715324457735)"/>
<path d="M0 0 C1.55538734 -0.0099852 1.55538734 -0.0099852 3.14219666 -0.02017212 C5.32809694 -0.03024903 7.51402768 -0.03499069 9.69995117 -0.03466797 C12.99386191 -0.03901828 16.28640575 -0.07532947 19.58007812 -0.11328125 C31.78445684 -0.1776729 42.28265924 0.81092104 53.96484375 4.3359375 C56.47788197 4.90889994 58.99688155 5.40399132 61.52734375 5.8984375 C66.39842357 6.91347565 70.46543435 8.26620918 74.96484375 10.3359375 C76.29247358 10.67184384 77.6264516 10.98336772 78.96484375 11.2734375 C82.49999988 12.09081464 85.19501258 13.45675128 88.2734375 15.34375 C90.37198322 16.57476758 92.58853548 17.44049573 94.83203125 18.37109375 C106.3265772 23.57100739 117.30743971 30.26692568 127.2109375 38.07421875 C128.94112501 39.40147548 128.94112501 39.40147548 130.9921875 40.28125 C133.30416391 41.5173562 134.45137356 42.86064166 136.08984375 44.8984375 C140.28562995 49.87189097 145.0982204 54.03597577 149.96484375 58.3359375 C157.53710256 65.36732068 163.41177136 73.78546895 169.02734375 82.40625 C170.78923219 85.07039583 172.6372028 87.63730808 174.52734375 90.2109375 C180.38289479 98.51858429 184.54575262 107.79847276 187.96484375 117.3359375 C188.62484375 118.3259375 189.28484375 119.3159375 189.96484375 120.3359375 C190.49280168 122.07184105 190.96691574 123.82454511 191.40234375 125.5859375 C192.26689236 128.93002908 193.16957531 131.79264635 194.58984375 134.9609375 C196.0252349 138.48417032 196.40562039 141.33466738 196.72265625 145.08203125 C197.16878574 149.23391379 198.36770991 153.22866084 199.50390625 157.23828125 C202.71096494 169.70751692 202.24774329 183.56504381 201.96484375 196.3359375 C201.94808594 197.51671875 201.93132812 198.6975 201.9140625 199.9140625 C201.1479045 220.84112088 197.21769589 245.31890555 185.96484375 263.3359375 C185.28301647 264.92513949 184.63654402 266.53000418 184.02734375 268.1484375 C182.25284599 272.69600971 180.25545007 277.02741609 177.96484375 281.3359375 C177.38734375 282.4290625 176.80984375 283.5221875 176.21484375 284.6484375 C171.62110098 292.54393288 165.76842852 299.73767215 160.015625 306.80859375 C158.61873162 308.53009854 157.24177211 310.26792666 155.8828125 312.01953125 C148.96036685 320.81290816 140.96483533 328.64801272 131.96484375 335.3359375 C131.30484375 335.3359375 130.64484375 335.3359375 129.96484375 335.3359375 C129.96484375 335.9959375 129.96484375 336.6559375 129.96484375 337.3359375 C127.91796875 339.02734375 127.91796875 339.02734375 125.21484375 340.8984375 C124.333125 341.51847656 123.45140625 342.13851563 122.54296875 342.77734375 C119.96484375 344.3359375 119.96484375 344.3359375 117.69921875 344.86328125 C117.126875 345.01925781 116.55453125 345.17523437 115.96484375 345.3359375 C115.63484375 346.3259375 115.30484375 347.3159375 114.96484375 348.3359375 C113.20703125 349.44140625 113.20703125 349.44140625 110.83984375 350.5234375 C105.59481505 353.00633598 100.49986873 355.70239325 95.40771484 358.48120117 C86.18933771 363.45695984 76.6257128 367.02454633 66.48046875 369.58984375 C64.02238599 370.22184941 64.02238599 370.22184941 62.17871094 371.31787109 C59.46147069 372.56741805 56.9867871 372.94331883 54.02734375 373.37109375 C52.88523437 373.54060547 51.743125 373.71011719 50.56640625 373.88476562 C49.37789062 374.05427734 48.189375 374.22378906 46.96484375 374.3984375 C44.61044375 374.7418939 42.25626651 375.08688165 39.90234375 375.43359375 C38.85949219 375.58320557 37.81664062 375.73281738 36.7421875 375.88696289 C34.09095209 376.2592098 34.09095209 376.2592098 32.06811523 376.87963867 C28.86003246 377.5756232 25.64318218 377.51933763 22.375 377.5390625 C21.63462997 377.54476257 20.89425995 377.55046265 20.13145447 377.55633545 C18.56217874 377.56577012 16.99288333 377.57231334 15.42358398 377.57617188 C13.06652158 377.58577783 10.71036986 377.61677199 8.35351562 377.6484375 C0.1214434 377.70534536 -7.27809053 377.18123861 -15.29370117 375.05322266 C-18.78234187 374.1404409 -22.1370077 373.75579777 -25.72265625 373.3984375 C-31.1671363 372.72834765 -35.64392456 371.58699176 -40.62890625 369.34375 C-43.3096964 368.22095153 -45.97033526 367.49227619 -48.78515625 366.7734375 C-52.87120316 365.71049383 -56.29542696 364.32515521 -60.03515625 362.3359375 C-61.65451853 361.67609548 -63.28018793 361.03162702 -64.91015625 360.3984375 C-76.61170164 355.77429739 -76.61170164 355.77429739 -79.52734375 352.828125 C-81.17874904 351.19383272 -82.60849952 350.46258623 -84.72265625 349.5234375 C-88.51404553 347.70384739 -91.66488857 345.4846304 -94.96875 342.8984375 C-97.09283228 341.29232613 -99.28390477 339.8819676 -101.53515625 338.4609375 C-105.55616054 335.81935149 -108.76794458 332.78823437 -112.0859375 329.3203125 C-113.90797397 327.46541365 -115.78888731 325.81130895 -117.78515625 324.1484375 C-126.87990315 316.2687059 -134.48426042 307.23123421 -141.09765625 297.2109375 C-142.9820129 294.32715836 -142.9820129 294.32715836 -145.1171875 291.75 C-151.17487572 284.12545555 -154.88374928 274.58354969 -158.96362305 265.79833984 C-159.33269775 265.00637207 -159.70177246 264.2144043 -160.08203125 263.3984375 C-160.57461426 262.33302734 -160.57461426 262.33302734 -161.07714844 261.24609375 C-162.10699768 259.09512267 -162.10699768 259.09512267 -164.03515625 256.3359375 C-168.16071899 244.72757271 -170.82805721 232.72147008 -173.16015625 220.6484375 C-173.33095703 219.76929688 -173.50175781 218.89015625 -173.67773438 217.984375 C-175.46163225 208.53184843 -176.2303613 199.39550507 -176.22265625 189.7734375 C-176.22185059 188.72220703 -176.22104492 187.67097656 -176.22021484 186.58789062 C-176.13134902 175.19215525 -174.93033008 164.37378772 -172.03515625 153.3359375 C-171.68470837 151.15111402 -171.35295198 148.96324873 -171.03515625 146.7734375 C-169.64571504 137.42432921 -166.6861794 128.98027889 -162.90234375 120.359375 C-162.23901854 118.81161617 -161.60347005 117.25192549 -160.98046875 115.6875 C-153.44178744 96.91470537 -142.01869045 77.19134674 -128.03515625 62.3359375 C-127.37515625 62.3359375 -126.71515625 62.3359375 -126.03515625 62.3359375 C-125.78765625 61.7171875 -125.54015625 61.0984375 -125.28515625 60.4609375 C-123.79775256 57.93235123 -122.59837616 57.61754746 -120.03515625 56.3359375 C-119.77734375 55.76488281 -119.51953125 55.19382812 -119.25390625 54.60546875 C-117.57680616 51.48240737 -115.14060698 49.36175634 -112.53515625 47.0234375 C-112.00341797 46.54140869 -111.47167969 46.05937988 -110.92382812 45.56274414 C-105.73990534 40.94031001 -100.24681428 36.33961809 -93.94140625 33.33984375 C-91.99603476 32.43823004 -91.99603476 32.43823004 -90.6484375 30.9296875 C-88.42724082 28.73538182 -85.92720543 27.38722608 -83.22265625 25.8359375 C-82.20558594 25.248125 -81.18851562 24.6603125 -80.140625 24.0546875 C-75.5266604 21.50104671 -70.87029771 19.24641311 -66.00390625 17.21875 C-63.70754581 16.18903282 -61.51009912 15.01177756 -59.28515625 13.8359375 C-54.84581663 11.58595353 -50.49468487 10.21362059 -45.67578125 9.015625 C-43.29485937 8.40278416 -41.03438347 7.66644691 -38.72265625 6.8359375 C-33.79592268 5.14651899 -28.75667881 4.12611052 -23.66015625 3.08203125 C-21.80000945 2.69917776 -19.93942171 2.31126905 -18.10035706 1.83738708 C-12.02586498 0.31423336 -6.24500165 0.01425306 0 0 Z " fill="#E5B430" transform="translate(494.03515625,1421.6640625)"/>
</svg>
