<?xml version="1.0" encoding="UTF-8"?>
<svg version="1.1" xmlns="http://www.w3.org/2000/svg" width="2094" height="2094">
<path d="M0 0 C12.36446013 -0.00135753 24.72891968 -0.00326308 37.09337944 -0.00665933 C38.32157462 -0.00699607 39.5497698 -0.00733282 40.81518301 -0.00767976 C43.2915206 -0.00836087 45.76785818 -0.00904197 48.24419576 -0.00972307 C70.83668109 -0.01586127 93.42916199 -0.01796024 116.02164787 -0.01354825 C118.27012962 -0.01311735 120.51861137 -0.01269086 122.76709312 -0.01226884 C124.42311324 -0.01195672 124.42311324 -0.01195672 126.11258832 -0.01163829 C133.84412687 -0.01042538 141.57566263 -0.01169521 149.30720085 -0.01402742 C158.6103466 -0.01679523 167.91348396 -0.01614088 177.21662877 -0.01084474 C181.93516092 -0.0082469 186.65367901 -0.00725835 191.37221104 -0.01055998 C195.67052534 -0.01352088 199.96881205 -0.01193232 204.2671238 -0.00657498 C205.8242675 -0.0054503 207.3814135 -0.00603749 208.93855573 -0.00844795 C211.04045719 -0.01145631 213.14226194 -0.0084041 215.24415821 -0.00372773 C216.41379114 -0.00356538 217.58342407 -0.00340303 218.78850043 -0.00323576 C221.5057444 0.12211341 221.5057444 0.12211341 223.5057444 1.12211341 C224.42345312 3.78740606 225.21187731 6.40496013 225.9432444 9.12211341 C226.24971901 10.18945716 226.24971901 10.18945716 226.56238502 11.27836341 C227.27743408 13.88016184 227.90000611 16.49262408 228.5057444 19.12211341 C228.90829445 20.8097782 228.90829445 20.8097782 229.31897682 22.53153723 C232.08791834 35.24116284 231.99570742 48.02052054 231.95178932 60.97636145 C231.94329867 64.78526509 231.97210282 68.59265445 232.00379127 72.40141028 C232.05996372 91.54160829 230.32019342 109.8966511 223.9432444 128.05961341 C223.60591285 129.04067054 223.26858131 130.02172766 222.9210276 131.0325138 C212.90468772 159.21007717 197.09868449 183.58782347 176.5057444 205.12211341 C175.63176002 206.04894934 174.75777565 206.97578528 173.8573069 207.93070716 C144.28852052 238.49668134 101.36004898 259.4765636 59.0760569 263.79789466 C56.57720981 263.84629651 56.57720981 263.84629651 55.5057444 265.12211341 C53.996417 265.21937982 52.48252799 265.24658675 50.97006977 265.2463119 C49.98163144 265.2485592 48.99319311 265.25080649 47.97480211 265.25312188 C46.87363946 265.25049487 45.77247681 265.24786786 44.63794559 265.24516124 C42.89381318 265.246892 42.89381318 265.246892 41.11444578 265.24865773 C37.85805144 265.25086379 34.60169503 265.24853535 31.34530369 265.2443796 C27.81359228 265.24096218 24.28188417 265.24331298 20.75017214 265.24495709 C14.55086303 265.24703675 8.35156348 265.245377 2.15225548 265.24131888 C-7.06599012 265.23530124 -16.28422965 265.23498146 -25.50247686 265.23586087 C-41.00657993 265.237177 -56.51067875 265.23382494 -72.01478058 265.22784346 C-87.37330512 265.22193329 -102.73182788 265.2180789 -118.09035355 265.21699065 C-119.52096032 265.21688754 -119.52096032 265.21688754 -120.98046823 265.21678235 C-125.82371017 265.21644403 -130.66695211 265.21614264 -135.51019406 265.21585547 C-169.8451331 265.21375317 -204.18006982 265.20701053 -238.51500756 265.19755286 C-271.87796316 265.18837351 -305.24091813 265.18128741 -338.60387474 265.17704505 C-339.63165368 265.17691352 -340.65943263 265.17678199 -341.71835638 265.17664648 C-352.03941591 265.175328 -362.36047543 265.17405218 -372.68153497 265.17280762 C-393.70809272 265.17027118 -414.73465043 265.16744993 -435.76120812 265.16445655 C-437.21146675 265.16425061 -437.21146675 265.16425061 -438.69102354 265.16404052 C-503.29210186 265.15483459 -567.89317889 265.13898878 -632.4942556 265.12211341 C-633.13370007 263.0887025 -633.76944217 261.05412715 -634.40367943 259.01908606 C-634.75811623 257.88621161 -635.11255303 256.75333716 -635.47773033 255.58613318 C-637.03387557 250.28324693 -638.13052104 244.91891482 -639.1817556 239.49711341 C-639.39380638 238.45555091 -639.60585716 237.41398841 -639.82433373 236.34086341 C-646.86232018 200.729096 -643.03392395 161.74273342 -629.4942556 128.12211341 C-629.20711693 127.40636145 -628.91997826 126.6906095 -628.62413841 125.95316809 C-608.716739 77.1638984 -570.10245134 37.43359661 -521.6348806 16.58085364 C-493.62509568 4.94984495 -465.40362821 1.02565285 -435.22252709 0.91679114 C-433.49363398 0.90715825 -431.76474293 0.89715111 -430.03585392 0.88680953 C-425.25373718 0.85957516 -420.47161091 0.83853031 -415.68945795 0.81881565 C-411.47010158 0.80082364 -407.25076254 0.77970708 -403.03141981 0.75879133 C-388.61252493 0.68772886 -374.193586 0.63034792 -359.77462488 0.57466906 C-354.66090756 0.55463446 -349.54719506 0.533489 -344.43348205 0.51238817 C-246.86358135 0.11149859 -149.29318032 0.03492944 0 0 Z " fill="#E5B430" transform="translate(1821.4942556023598,1534.8778865933418)"/>
<path d="M0 0 C0.65323604 -0.00145333 1.30647208 -0.00290666 1.97950316 -0.00440403 C4.19195359 -0.00808332 6.40433595 -0.00456732 8.616786 -0.0011425 C10.21316441 -0.00229569 11.80954256 -0.00388522 13.40592015 -0.00587511 C17.81955209 -0.01007938 22.23316255 -0.00798016 26.6467946 -0.00489143 C31.41776123 -0.00262092 36.18872417 -0.00606536 40.95969009 -0.00877762 C50.37924752 -0.01319139 59.79879711 -0.01213131 69.21835484 -0.00929423 C76.97109127 -0.00709594 84.72382498 -0.0071008 92.47656155 -0.00860405 C93.58667001 -0.00881854 94.69677847 -0.00903303 95.84052658 -0.00925402 C98.10021371 -0.00969966 100.35990083 -0.01014943 102.61958796 -0.01060328 C129.03827167 -0.0155559 155.45694945 -0.00957405 181.87563205 -0.00207616 C194.2321546 0.0013445 206.58867726 0.00317788 218.94520014 0.00498556 C428.26565065 0.03643556 428.26565065 0.03643556 559.22530586 0.4595741 C568.09853216 0.49228198 576.97176515 0.52058438 585.84501171 0.54716682 C597.48735313 0.58242693 609.1296083 0.62878103 620.77187252 0.68377876 C624.88028064 0.70291655 628.9886686 0.71807354 633.09710598 0.72921944 C669.40373443 0.83264852 703.96343057 2.31210072 737.73841381 17.12584114 C738.40695385 17.41297981 739.07549389 17.70011848 739.76429272 17.99595833 C779.24778383 35.08238138 811.75421328 65.81620896 832.73841381 103.12584114 C833.0835603 103.7271888 833.42870678 104.32853645 833.78431225 104.94810677 C839.50699455 114.95339733 843.86322254 125.27999963 847.73841381 136.12584114 C848.11739819 137.16611458 848.49638256 138.20638802 848.88685131 139.27818489 C851.35217919 146.62486196 852.88019298 154.16884256 854.42591381 161.75084114 C854.64070385 162.80021858 854.85549389 163.84959602 855.07679272 164.93077278 C857.39431144 176.72677638 857.94714445 188.24264359 857.92591381 200.25084114 C857.92497723 200.93758919 857.92404064 201.62433723 857.92307568 202.33189583 C857.8645234 222.16698316 855.54205622 241.90295447 849.19042492 260.80479622 C848.91891582 261.61427208 848.64740671 262.42374794 848.36767006 263.25775337 C848.1600155 263.87422234 847.95236094 264.4906913 847.73841381 265.12584114 C782.16073195 265.14297162 716.58304982 265.15887233 651.00536633 265.16818428 C649.55072427 265.16839137 649.55072427 265.16839137 648.0666955 265.16860264 C626.99382276 265.17159518 605.92094999 265.17436541 584.84807718 265.17690647 C574.5147291 265.17815386 564.18138102 265.17945041 553.84803295 265.18077278 C552.30555143 265.18096892 552.30555143 265.18096892 550.73190867 265.18116902 C517.36965265 265.18543435 484.00739832 265.19294862 450.64514333 265.20213836 C416.37605958 265.2115608 382.10697676 265.21772422 347.83789173 265.21975613 C343.00343174 265.22004431 338.16897175 265.22036995 333.33451176 265.22071838 C332.38297165 265.22078581 331.43143154 265.22085323 330.45105689 265.2209227 C315.1015677 265.22210682 299.75208139 265.22675135 284.40259338 265.23267317 C268.99076127 265.23854581 253.57893202 265.2408128 238.16709883 265.23934252 C228.99799842 265.23857892 219.82890848 265.24063652 210.65980995 265.24663868 C204.54666946 265.25036887 198.43353589 265.2505188 192.32039494 265.24767295 C188.82966149 265.24615292 185.33894792 265.24626951 181.84821654 265.25072432 C178.10086392 265.2546834 174.35356426 265.2526076 170.60621262 265.24888897 C169.50504997 265.25151598 168.40388732 265.254143 167.2693561 265.25684962 C166.28091777 265.25460232 165.29247945 265.25235503 164.27408844 265.25003964 C163.41572707 265.25019562 162.55736569 265.2503516 161.67299337 265.25051231 C159.73841381 265.12584114 159.73841381 265.12584114 158.73841381 264.12584114 C156.69678769 263.82899383 154.65409488 263.53827379 152.60755444 263.27745247 C111.31151535 257.93067783 73.13045676 238.11005771 43.17054272 209.49058723 C41.79142328 208.17635647 40.39606168 206.87923453 39.00013256 205.58287239 C27.87671592 194.94238267 18.56023395 182.35982533 10.73841381 169.12584114 C10.11837475 168.11005989 9.49833569 167.09427864 8.85950756 166.04771614 C0.85967977 152.58420948 -5.48423291 138.45959781 -10.13658619 123.50084114 C-10.41059254 122.63273811 -10.68459888 121.76463509 -10.96690845 120.87022591 C-16.01788212 103.80536329 -16.79452749 87.0659864 -16.76256275 69.36094856 C-16.76159398 65.59364137 -16.80328396 61.82840139 -16.84752369 58.06138802 C-16.9407771 39.06085057 -15.43350141 18.98908892 -8.26158619 1.12584114 C-5.45449939 -0.27770226 -3.14184448 0.00043611 0 0 Z " fill="#E5B430" transform="translate(57.26158618927002,1534.874158859253)"/>
<path d="M0 0 C0.81637939 -0.00175232 1.63275879 -0.00350464 2.47387695 -0.00531006 C5.18052274 -0.0097221 7.88710352 -0.00679285 10.59375 -0.00341797 C12.46940117 -0.00409119 14.34505225 -0.00506138 16.22070312 -0.00631714 C20.15495635 -0.00779323 24.0891869 -0.00564238 28.0234375 -0.00097656 C33.07444056 0.00472067 38.12539049 0.0014412 43.1763916 -0.00454903 C47.05045983 -0.00815701 50.92451539 -0.00701495 54.79858398 -0.00442123 C56.66137702 -0.00375262 58.52417119 -0.0045781 60.38696289 -0.00690079 C62.98717305 -0.00943118 65.58729633 -0.00558121 68.1875 0 C68.96262939 -0.00202423 69.73775879 -0.00404846 70.53637695 -0.00613403 C75.86522156 0.01513031 75.86522156 0.01513031 78.09375 1.12939453 C80.18289862 1.37645229 82.27825574 1.57166987 84.375 1.74267578 C86.32962158 1.90944824 86.32962158 1.90944824 88.32373047 2.07958984 C89.01899841 2.13812134 89.71426636 2.19665283 90.43060303 2.25695801 C123.4630995 5.08104492 156.69416986 10.51297017 188.42041016 20.31835938 C191.40991047 21.22531098 194.41188535 22.07983865 197.41796875 22.93017578 C249.16107748 37.67422026 301.70296075 60.37499152 346.09375 91.12939453 C347.4523211 92.03101343 348.81319042 92.92917462 350.17578125 93.82470703 C366.18174547 104.35085277 381.59221007 115.43899539 396.33642578 127.67626953 C398.86308367 129.76555374 401.41842907 131.81910722 403.96875 133.87939453 C408.34920795 137.46519669 412.57158721 141.1984396 416.7578125 145.00830078 C418.87091882 146.92705786 421.00457887 148.81662385 423.15625 150.69189453 C424.10177734 151.51947266 424.10177734 151.51947266 425.06640625 152.36376953 C426.56874496 153.67216471 428.07757572 154.97311362 429.58984375 156.27001953 C430.41613281 156.98673828 431.24242187 157.70345703 432.09375 158.44189453 C432.856875 159.09802734 433.62 159.75416016 434.40625 160.43017578 C436.09375 162.12939453 436.09375 162.12939453 436.09375 164.12939453 C436.66480469 164.37431641 437.23585938 164.61923828 437.82421875 164.87158203 C444.44915938 168.54323587 449.53002381 175.53666308 454.4140625 181.23095703 C456.07579576 183.10910206 457.80500525 184.87244969 459.59375 186.62939453 C463.30570704 190.29207781 466.70987655 194.16391783 470.09375 198.12939453 C470.91875 199.08845703 471.74375 200.04751953 472.59375 201.03564453 C493.97078214 225.99160187 513.37760515 252.83258027 530.09375 281.12939453 C530.47740723 281.7695752 530.86106445 282.40975586 531.25634766 283.06933594 C542.19099378 301.34164951 552.50775989 320.2016003 560.7265625 339.86376953 C561.93037488 342.73916139 563.20715616 345.5581227 564.53125 348.37939453 C578.96294863 380.06331921 589.02012485 413.33410624 597.09375 447.12939453 C597.2803418 447.89848145 597.46693359 448.66756836 597.65917969 449.45996094 C602.66018584 470.19114872 605.92398483 491.26866417 608.34375 512.44189453 C608.42665283 513.16093964 608.50955566 513.87998474 608.5949707 514.62081909 C610.7712772 533.6982234 611.28187539 552.6365634 611.27905273 571.82470703 C611.27897197 574.59332888 611.28584857 577.36178352 611.29956055 580.13037109 C611.36845046 594.28324464 611.27409824 608.38964771 610.20703125 622.51220703 C610.12929977 623.54465546 610.0515683 624.57710388 609.97148132 625.64083862 C609.43739747 631.913432 608.46918255 637.98670551 607.09375 644.12939453 C606.10375 644.12939453 605.11375 644.12939453 604.09375 644.12939453 C603.96323242 643.46109619 603.83271484 642.79279785 603.69824219 642.10424805 C601.21926601 629.45213539 598.71626735 616.82222149 595.62939453 604.30273438 C595.02664627 601.85712591 594.43367016 599.40921518 593.83984375 596.96142578 C593.40431172 595.18391874 592.96812381 593.40657227 592.53125 591.62939453 C592.33337891 590.81623779 592.13550781 590.00308105 591.93164062 589.1652832 C590.77706512 584.52268937 589.43579146 579.99912305 587.88598633 575.47363281 C587.03215425 572.94713185 586.23437961 570.40731071 585.4453125 567.85986328 C585.16171875 566.95042969 584.878125 566.04099609 584.5859375 565.10400391 C584.01182522 563.25882772 583.44145678 561.41248214 582.875 559.56494141 C581.01319209 553.62309049 578.82807206 547.90808961 576.38769531 542.18041992 C574.22206707 537.07403197 572.20285217 531.90934884 570.15625 526.75439453 C564.67321197 513.02256504 559.00635059 499.52870896 552.24609375 486.37207031 C551.45126622 484.82518776 550.65980128 483.27657439 549.87109375 481.7265625 C542.80972922 467.86566538 535.1633493 454.42660057 527.09375 441.12939453 C526.64644531 440.38818359 526.19914062 439.64697266 525.73828125 438.88330078 C519.32655933 428.28916333 512.35365213 418.15766401 505.09375 408.12939453 C504.52575684 407.34064941 503.95776367 406.5519043 503.37255859 405.73925781 C496.75409076 396.56411188 490.02317615 387.58493628 482.60546875 379.03955078 C480.20654885 376.26008683 477.89361101 373.4284915 475.59375 370.56689453 C471.16493684 365.12578122 466.45965314 359.99361067 461.68139648 354.8605957 C459.73372457 352.73681567 457.82525766 350.5794612 455.91015625 348.42626953 C450.95984844 342.91785394 445.77844132 337.6662885 440.53125 332.44189453 C439.63728516 331.5440625 438.74332031 330.64623047 437.82226562 329.72119141 C432.74054061 324.64690125 427.54533195 319.80118046 422.09375 315.12939453 C420.48606627 313.67493936 418.88135285 312.21718558 417.28125 310.75439453 C412.03194023 306.0236336 406.59751055 301.55942402 401.09375 297.12939453 C399.96061303 296.20401045 398.82781551 295.2782106 397.6953125 294.35205078 C369.87485999 271.70740874 339.51778151 252.35786204 308.09375 235.12939453 C307.44970215 234.77312988 306.8056543 234.41686523 306.14208984 234.04980469 C264.14340289 210.89495106 218.62585133 194.36211344 172.09375 183.12939453 C171.27148926 182.92765625 170.44922852 182.72591797 169.60205078 182.51806641 C164.77743276 181.33484455 159.94247121 180.2093529 155.09375 179.12939453 C154.37944824 178.96874512 153.66514648 178.8080957 152.92919922 178.64257812 C129.14534363 173.33141925 105.37893733 170.2042519 81.11248779 168.29083252 C79.17106187 168.13557714 77.2302864 167.97225224 75.28955078 167.80859375 C47.45158076 165.46555532 20.28661196 165.82702731 -7.53125 167.94189453 C-9.18388351 168.06591644 -9.18388351 168.06591644 -10.86990356 168.19244385 C-25.31170956 169.29464578 -39.59920965 170.87312167 -53.90625 173.12939453 C-55.56696533 173.38547485 -55.56696533 173.38547485 -57.26123047 173.64672852 C-72.95292402 176.13053411 -88.45076864 179.47131729 -103.90625 183.12939453 C-105.71609375 183.55430176 -105.71609375 183.55430176 -107.5625 183.98779297 C-123.18474048 187.70053657 -138.41450291 192.09373256 -153.59375 197.31689453 C-154.327146 197.56892639 -155.06054199 197.82095825 -155.81616211 198.08062744 C-164.64418701 201.13083789 -173.32661212 204.43021112 -181.90625 208.12939453 C-183.67564157 208.87842249 -185.44516951 209.62712841 -187.21484375 210.37548828 C-196.84916799 214.48353906 -206.43087612 218.66472684 -215.90625 223.12939453 C-217.44370163 223.82929198 -218.98149004 224.52844989 -220.51953125 225.22705078 C-233.49528316 231.18572301 -245.77393273 238.05191399 -258.01220703 245.39648438 C-260.76930646 247.04739476 -263.536734 248.67920173 -266.30859375 250.30517578 C-276.82124329 256.49698611 -286.97279226 263.04799997 -296.90625 270.12939453 C-298.00066406 270.90500732 -298.00066406 270.90500732 -299.1171875 271.69628906 C-309.26981999 278.90145295 -319.20925508 286.32205487 -328.90625 294.12939453 C-329.88207031 294.91056641 -330.85789062 295.69173828 -331.86328125 296.49658203 C-337.25146158 300.8523418 -342.46346428 305.35910299 -347.5859375 310.02392578 C-349.60779184 311.85857139 -351.65303522 313.65708239 -353.71875 315.44189453 C-362.87455427 323.45094797 -371.66588692 331.79316723 -380.28125 340.37939453 C-381.40442627 341.49568237 -381.40442627 341.49568237 -382.55029297 342.63452148 C-386.64151796 346.73713884 -390.56133966 350.93113409 -394.34277344 355.32080078 C-396.4560574 357.7653991 -398.65011578 360.1319116 -400.84375 362.50439453 C-404.64285857 366.67484454 -408.25182287 370.93090437 -411.734375 375.36767578 C-413.33327843 377.40081377 -414.9457727 379.41645786 -416.578125 381.42236328 C-427.71108964 395.13528287 -438.36061128 409.25897775 -447.90625 424.12939453 C-448.48503906 425.02529297 -449.06382812 425.92119141 -449.66015625 426.84423828 C-451.42498557 429.59610861 -453.16910354 432.35997479 -454.90625 435.12939453 C-455.79376953 436.53511719 -455.79376953 436.53511719 -456.69921875 437.96923828 C-478.40914275 472.74987941 -496.46099136 509.48221339 -510.1887207 548.13305664 C-510.92257555 550.17481611 -511.68223845 552.20533405 -512.44921875 554.23486328 C-523.38226188 583.27598109 -530.07888612 613.72150583 -535.90625 644.12939453 C-536.89625 644.12939453 -537.88625 644.12939453 -538.90625 644.12939453 C-540.52037823 636.92929235 -541.46510751 629.82391297 -542.015625 622.46923828 C-542.09971619 621.35129379 -542.18380737 620.2333493 -542.27044678 619.08152771 C-543.14560554 606.3071196 -543.21057686 593.53338324 -543.16699219 580.73461914 C-543.15561014 577.36939571 -543.1623907 574.00448916 -543.1738615 570.6392765 C-543.24237293 546.98088579 -542.03509266 523.54679508 -538.59375 500.12939453 C-538.48509613 499.37468872 -538.37644226 498.61998291 -538.26449585 497.84240723 C-537.5088536 492.59992163 -536.71998173 487.36316195 -535.90625 482.12939453 C-535.72223633 480.94410156 -535.53822266 479.75880859 -535.34863281 478.53759766 C-530.75905548 449.88031073 -523.67671367 421.04206869 -513.83984375 393.73046875 C-512.88119175 391.05958005 -511.95272033 388.37972769 -511.03125 385.69580078 C-506.8706384 373.60440462 -502.61029192 361.59235108 -497.2109375 349.98876953 C-495.77088701 346.83273072 -494.4331195 343.64190166 -493.09375 340.44189453 C-489.6964002 332.49467628 -485.856312 324.81403179 -481.90625 317.12939453 C-481.44911621 316.23446289 -480.99198242 315.33953125 -480.52099609 314.41748047 C-474.37311858 302.39794327 -468.07952086 290.56839329 -460.90625 279.12939453 C-460.43155273 278.3661084 -459.95685547 277.60282227 -459.46777344 276.81640625 C-449.08450186 260.12735737 -449.08450186 260.12735737 -443.78515625 252.74658203 C-442.27236206 250.63936351 -440.78526029 248.51964224 -439.30859375 246.38720703 C-428.62286745 231.00566467 -417.1685839 216.28443679 -404.90625 202.12939453 C-404.29652344 201.41912109 -403.68679688 200.70884766 -403.05859375 199.97705078 C-398.34190433 194.524424 -393.46115807 189.21931277 -388.56591797 183.92724609 C-387.37749856 182.63987914 -386.1919511 181.34985865 -385.00830078 180.05810547 C-383.00081709 177.86821217 -380.9854883 175.68576453 -378.96875 173.50439453 C-378.33001953 172.80507813 -377.69128906 172.10576172 -377.03320312 171.38525391 C-376.12151367 170.40395508 -376.12151367 170.40395508 -375.19140625 169.40283203 C-374.65394775 168.81937012 -374.11648926 168.2359082 -373.56274414 167.63476562 C-371.90625 166.12939453 -371.90625 166.12939453 -369.76342773 165.11230469 C-367.55116681 164.2150908 -367.55116681 164.2150908 -366.90625 161.12939453 C-365.5859375 159.79736328 -365.5859375 159.79736328 -363.78125 158.31689453 C-360.26353913 155.34231317 -356.88654095 152.25589296 -353.53955078 149.09301758 C-346.88055454 142.80080921 -340.08959585 136.82278815 -332.90625 131.12939453 C-331.79062794 130.22311962 -330.67610628 129.31548899 -329.5625 128.40673828 C-314.6519961 116.28296034 -299.16022624 105.03306331 -283.06201172 94.54101562 C-280.99108982 93.18494876 -278.93381334 91.81035229 -276.87890625 90.43017578 C-264.63417585 82.27000143 -251.81645737 75.17403948 -238.90625 68.12939453 C-238.07367676 67.67177734 -237.24110352 67.21416016 -236.38330078 66.74267578 C-216.17806054 55.67131127 -195.21158846 45.94417196 -173.54736328 38.10058594 C-170.72542623 37.06290193 -167.92306323 35.98151659 -165.12109375 34.89111328 C-152.24036998 29.90306193 -139.29626484 25.64003897 -125.97900391 21.9765625 C-122.86049549 21.11677987 -119.74868291 20.23519528 -116.63671875 19.35205078 C-82.44586553 9.76416725 -47.26177662 3.47564923 -11.796875 1.34716797 C-0.09903688 -0.00025863 -0.09903688 -0.00025863 0 0 Z " fill="#E5B430" transform="translate(1012.90625,292.87060546875)"/>
<path d="M0 0 C5.68885251 0.56288119 10.36664344 2.11772654 15.625 4.3125 C16.46385742 4.65571289 17.30271484 4.99892578 18.16699219 5.35253906 C20.05001744 6.12473426 21.93143772 6.90085094 23.81152344 7.68017578 C26.71756544 8.88309026 29.62734625 10.07650462 32.53878784 11.26628113 C35.13378444 12.32731707 37.72732975 13.39186544 40.32049561 14.45736694 C41.59435669 14.98066422 42.86848096 15.50332133 44.1428833 16.02529907 C50.19835407 18.50889256 56.21495941 20.98816454 62.03173828 23.99414062 C64.38034708 25.19437236 66.75896562 26.32034822 69.14453125 27.4453125 C86.39492472 35.59285284 103.18088725 44.3973358 119.875 53.625 C120.98004883 54.2344043 122.08509766 54.84380859 123.22363281 55.47167969 C135.8021335 62.46558163 147.95779055 70.12298453 160 78 C160.87624023 78.57282715 161.75248047 79.1456543 162.65527344 79.73583984 C175.65377989 88.257764 188.40671398 97.0105096 200.82128906 106.36376953 C202.96313973 107.97231762 205.11620381 109.56450438 207.2734375 111.15234375 C214.73388827 116.6609375 221.95120345 122.35661112 228.9765625 128.41015625 C231.84284949 130.86538658 234.75225284 133.25295853 237.6875 135.625 C242.14622116 139.25419164 246.43797224 143.03128956 250.6875 146.90234375 C252.66384372 148.69507446 254.6645673 150.44795227 256.6875 152.1875 C268.22948296 162.27204626 279.17518957 173.01041314 289.99169922 183.86132812 C292.023262 185.89832421 294.06021836 187.92981951 296.09765625 189.9609375 C297.41959207 191.28353317 298.74121817 192.60643849 300.0625 193.9296875 C300.65740234 194.52256561 301.25230469 195.11544373 301.86523438 195.72628784 C305.54534784 199.42669223 309.03406998 203.25088381 312.44180298 207.20368958 C314.69245452 209.79827086 317.03391575 212.29917382 319.375 214.8125 C323.58632429 219.37602585 327.59639462 224.05620784 331.4921875 228.89453125 C333.41948117 231.28113323 335.36165834 233.65104834 337.3203125 236.01171875 C367.93813576 272.91698142 394.82904885 312.93132897 417.8046875 355.01953125 C419.18490989 357.54390125 420.5984718 360.03967302 422.0703125 362.51171875 C426.48948609 369.97232358 430.15687766 377.54663286 433.64477539 385.47827148 C435.95157621 390.71577479 438.38406982 395.84814928 441 400.9375 C453.41089198 425.35804338 463.24449961 451.64637868 471.59765625 477.71484375 C472.72502532 481.22657876 473.98465468 484.67012698 475.29663086 488.11645508 C482.50929254 507.43116693 487.2346599 527.96957736 492 548 C492.18771973 548.78665039 492.37543945 549.57330078 492.56884766 550.38378906 C497.04245407 569.26435159 501.36925731 588.35560335 503.54296875 607.65625 C503.90531712 610.30727738 504.3720393 612.84441528 504.92578125 615.45703125 C506.3270172 622.3147995 507.1628132 629.24224503 508 636.1875 C508.13023056 637.2610524 508.13023056 637.2610524 508.26309204 638.35629272 C510.12600606 653.87058241 511.24595621 669.39108813 512 685 C512.08677002 686.78398193 512.08677002 686.78398193 512.17529297 688.60400391 C514.75194819 744.04414336 512.72368916 800.50349853 502.68359375 855.17578125 C502.05464201 858.69431699 501.51135239 862.21279376 501 865.75 C500.21202199 870.9647488 499.12748546 876.04570085 497.89453125 881.171875 C497.2308104 884.01225242 496.60491046 886.84806997 496.01171875 889.703125 C489.66132952 920.14655748 482.12998092 950.91943704 471 980 C470.36832333 981.82418777 469.7367515 983.64842236 469.11230469 985.47509766 C458.43098514 1016.53748786 444.90302285 1046.7496402 430 1076 C429.53319824 1076.92103516 429.06639648 1077.84207031 428.58544922 1078.79101562 C421.34304253 1093.04885239 413.66519516 1106.93179277 405.40527344 1120.6237793 C404.0221897 1122.96247874 402.6982714 1125.32546146 401.390625 1127.70703125 C399.31667668 1131.47536558 397.09788917 1135.08305533 394.75 1138.6875 C393.97238973 1139.88263913 393.19505479 1141.07795745 392.41796875 1142.2734375 C392.02270996 1142.88026367 391.62745117 1143.48708984 391.22021484 1144.11230469 C389.96220541 1146.05846893 388.72310975 1148.01561836 387.48828125 1149.9765625 C386.87871582 1150.94009644 386.87871582 1150.94009644 386.25683594 1151.9230957 C385.47396869 1153.16156864 384.6945411 1154.40222405 383.91894531 1155.64526367 C381.22447723 1159.88776138 381.22447723 1159.88776138 379 1161 C377.21770109 1161.09439084 375.43182066 1161.12373061 373.64702415 1161.12304783 C372.5039717 1161.12503888 371.36091925 1161.12702993 370.18322885 1161.12908131 C368.91671444 1161.12616847 367.65020003 1161.12325563 366.3453064 1161.12025452 C364.99477036 1161.12069024 363.64423441 1161.12156516 362.29369891 1161.12284368 C358.56989225 1161.12508846 354.84611414 1161.12106759 351.12231112 1161.11606562 C347.11140218 1161.11176106 343.10049495 1161.11320755 339.08958435 1161.1139679 C332.13621003 1161.11449313 325.18284508 1161.11134641 318.22947311 1161.10573006 C308.17597218 1161.09761495 298.1224758 1161.09499983 288.06897195 1161.09374207 C271.75919488 1161.09155156 255.4494228 1161.08489152 239.13964844 1161.07543945 C223.292969 1161.06626529 207.44629093 1161.05918448 191.59960938 1161.05493164 C190.62338727 1161.05466892 189.64716516 1161.05440619 188.64136057 1161.05413551 C183.74411054 1161.0528305 178.84686051 1161.05156679 173.94961047 1161.05032361 C133.29973684 1161.03995105 92.64986871 1161.02233278 52 1161 C52.57862798 1157.90997536 52.71090619 1157.21812591 55.33813477 1155.23583984 C56.36221436 1154.65012207 57.38629395 1154.0644043 58.44140625 1153.4609375 C59.57465332 1152.80319336 60.70790039 1152.14544922 61.87548828 1151.46777344 C62.47750061 1151.12613159 63.07951294 1150.78448975 63.69976807 1150.43249512 C65.57486853 1149.36797824 67.44056621 1148.28855392 69.30419922 1147.20410156 C71.76159189 1145.77439841 74.22131815 1144.3488793 76.68310547 1142.92675781 C88.48650944 1136.07025375 99.734235 1128.55047902 110.80712891 1120.57519531 C113.0349496 1118.97489481 115.27239708 1117.38884487 117.51171875 1115.8046875 C127.05127327 1109.02639445 136.23841276 1101.92640382 145.24267578 1094.453125 C147.76933367 1092.36384079 150.32467907 1090.31028732 152.875 1088.25 C157.25975176 1084.66068297 161.48632607 1080.92394958 165.67578125 1077.109375 C167.72042335 1075.25373343 169.78784149 1073.43243624 171.875 1071.625 C173.25191245 1070.41884638 174.62677118 1069.21034584 176 1068 C177.18335938 1066.95779297 177.18335938 1066.95779297 178.390625 1065.89453125 C185.58791996 1059.42724764 192.4631876 1052.64466431 199.3125 1045.8125 C199.78826477 1045.33932343 200.26402954 1044.86614685 200.75421143 1044.37863159 C205.84343297 1039.31123384 210.81596085 1034.20312299 215.4909668 1028.74975586 C217.67052558 1026.22251143 219.96519383 1023.80698694 222.25 1021.375 C226.75304051 1016.52088028 230.89367269 1011.45500082 234.93994141 1006.21679688 C237.91994076 1002.35970175 240.97962731 998.59888792 244.125 994.875 C248.98453972 989.08507372 253.53736183 983.09832621 258 977 C258.56315918 976.23913086 259.12631836 975.47826172 259.70654297 974.69433594 C265.31695463 967.06485051 270.62820343 959.25632668 275.875 951.375 C276.53514099 950.38487915 276.53514099 950.38487915 277.20861816 949.37475586 C283.45014245 940.00027341 289.50707503 930.56950167 295.01904297 920.74267578 C295.9673634 919.0579791 296.9383885 917.38612529 297.91015625 915.71484375 C299.97290094 912.16116245 301.99713232 908.58762558 304 905 C304.48903809 904.12424316 304.97807617 903.24848633 305.48193359 902.34619141 C311.94052504 890.72849653 318.1260889 879.11867291 323.31640625 866.875 C324.43553456 864.24109861 325.6414767 861.6822323 326.94140625 859.1328125 C341.19301498 830.99108595 351.93193956 799.4314424 360 769 C360.44853403 767.35397993 360.89773768 765.70814216 361.34765625 764.0625 C362.6134552 759.38691043 363.82131114 754.69824993 365 750 C365.20334961 749.19062988 365.40669922 748.38125977 365.61621094 747.54736328 C373.17371571 717.21712769 378.21852454 686.54028176 381.75 655.5 C381.86553223 654.49469238 381.98106445 653.48938477 382.10009766 652.45361328 C384.04467613 634.41536104 384.18806099 616.38907688 384.18530273 598.26367188 C384.18522198 595.52239308 384.19209899 592.78128323 384.20581055 590.04003906 C384.32322069 566.15265951 383.45185753 542.37871915 380.1875 518.6875 C380.01718262 517.41737061 379.84686523 516.14724121 379.67138672 514.83862305 C376.43937308 491.00775495 372.35846152 467.4455305 367 444 C366.77812012 443.02289062 366.55624023 442.04578125 366.32763672 441.0390625 C364.19616827 431.70520219 361.90825486 422.42078711 359.375 413.1875 C359.18091553 412.4764209 358.98683105 411.7653418 358.78686523 411.03271484 C357.64326401 406.95763562 356.28640167 403.02760021 354.76757812 399.07836914 C353.37629143 395.31118605 352.24027084 391.46308824 351.0625 387.625 C349.28216835 381.91048983 347.44927356 376.29358719 345.125 370.7734375 C343.49808807 366.76264768 342.04275968 362.69178144 340.5625 358.625 C337.1665528 349.34569157 333.69610094 340.14936702 329.1484375 331.36328125 C327.89182185 328.77738851 326.76074932 326.14631075 325.63232422 323.50244141 C322.42173157 315.98855303 318.86299163 308.78697989 314.94921875 301.6171875 C313.13778225 298.2907795 311.46720449 294.90746554 309.8125 291.5 C295.7462926 263.17489742 278.36826449 236.10862381 259.3828125 210.84326172 C257.90350646 208.87137602 256.43563877 206.89129378 254.96875 204.91015625 C249.84029904 198.00208344 244.63845641 191.18820161 239.13671875 184.5703125 C237.68745106 182.82695209 236.25294747 181.07123199 234.83203125 179.3046875 C230.02163047 173.32787096 224.99969397 167.63030209 219.7734375 162.01953125 C217.74376568 159.83476336 215.78766358 157.59840116 213.84399414 155.33691406 C209.97523799 150.90972251 205.88458031 146.74016723 201.72265625 142.58984375 C200.95247665 141.81870743 200.18229706 141.04757111 199.38877869 140.25306702 C197.77058627 138.63419847 196.15114788 137.01657449 194.53051758 135.40014648 C192.06932768 132.94431282 189.61352191 130.48318635 187.15820312 128.02148438 C185.57584133 126.43978347 183.99316933 124.85839283 182.41015625 123.27734375 C181.32384666 122.18799782 181.32384666 122.18799782 180.21559143 121.0766449 C175.63705324 116.5187967 170.91369771 112.19359852 166 108 C165.42135193 107.50400299 164.84270386 107.00800598 164.246521 106.49697876 C134.53733381 81.07740887 102.95464127 57.45637137 68.91748047 38.10449219 C64.90121094 35.79107185 60.94999818 33.36616737 56.99316406 30.95288086 C53.40479168 28.78206805 49.76008126 26.85362882 46 25 C44.77335296 24.34485321 43.54956732 23.68433117 42.328125 23.01953125 C29.55291141 16.08935084 16.46061905 9.61073732 2.65234375 4.984375 C1 4 1 4 0.25390625 1.890625 C0.17011719 1.26671875 0.08632812 0.6428125 0 0 Z " fill="#E5B430" transform="translate(1308,312)"/>
<path d="M0 0 C-0.23046875 1.87890625 -0.23046875 1.87890625 -1 4 C-2.86328125 5.08984375 -2.86328125 5.08984375 -5.3125 5.9375 C-6.68535156 6.44216797 -6.68535156 6.44216797 -8.0859375 6.95703125 C-9.04757812 7.30121094 -10.00921875 7.64539063 -11 8 C-21.80561517 12.10359872 -31.85606394 17.50553022 -42 23 C-43.25538574 23.67820801 -43.25538574 23.67820801 -44.53613281 24.37011719 C-81.81433814 44.55350004 -117.63108081 67.73313906 -149.87890625 95.34765625 C-152.73111869 97.78551219 -155.63947753 100.14732338 -158.5625 102.5 C-164.0876187 107.00016914 -169.31503206 111.78908383 -174.52783203 116.64111328 C-175.88992186 117.89839222 -177.27039085 119.13568078 -178.65234375 120.37109375 C-185.76523165 126.74922135 -192.55036924 133.44225294 -199.3125 140.1875 C-199.78862732 140.66103912 -200.26475464 141.13457825 -200.75531006 141.62246704 C-205.84416384 146.68949672 -210.81629941 151.79727194 -215.4909668 157.25024414 C-217.67052558 159.77748857 -219.96519383 162.19301306 -222.25 164.625 C-226.75304051 169.47911972 -230.89367269 174.54499918 -234.93994141 179.78320312 C-237.91994076 183.64029825 -240.97962731 187.40111208 -244.125 191.125 C-257.26149051 206.8020382 -268.86049736 223.8610199 -280 241 C-280.46374023 241.71349609 -280.92748047 242.42699219 -281.40527344 243.16210938 C-303.31141246 277.02370304 -321.74056631 313.00554313 -336.921875 350.3515625 C-337.85533373 352.64462416 -338.79969464 354.93263805 -339.75 357.21875 C-343.06832279 365.3071618 -345.9100487 373.49740022 -348.60546875 381.80859375 C-349.50245087 384.55744055 -350.46458479 387.26521326 -351.5 389.96484375 C-353.14424052 394.292714 -354.49717984 398.68757673 -355.8125 403.125 C-356.06966797 403.99116943 -356.32683594 404.85733887 -356.59179688 405.74975586 C-362.17218466 424.67860772 -366.94283248 443.68415877 -371 463 C-371.18804199 463.88945313 -371.37608398 464.77890625 -371.56982422 465.6953125 C-376.19020106 487.83841429 -379.28461626 510.39742545 -381.75 532.875 C-381.92317749 534.42876343 -381.92317749 534.42876343 -382.09985352 536.01391602 C-383.94562635 553.80134472 -384.16273107 571.61375878 -384.13037109 589.48144531 C-384.12500689 592.99548657 -384.13035451 596.50940007 -384.13671875 600.0234375 C-384.14407148 619.2690795 -383.42301178 638.30603133 -381.3125 657.4375 C-381.22829803 658.21226685 -381.14409607 658.98703369 -381.05734253 659.78527832 C-377.67223745 690.62795413 -373.02415594 722.02711579 -364.57421875 751.91162109 C-363.61520613 755.39945864 -362.73420615 758.90724443 -361.83886719 762.41186523 C-355.48059596 787.1911279 -346.94811255 811.24082634 -337.25390625 834.91015625 C-335.96475509 838.08684962 -334.76156938 841.28834473 -333.5625 844.5 C-331.01974777 851.13537249 -328.04472296 857.52997854 -324.97998047 863.93408203 C-323.96075471 866.08273385 -322.96489302 868.24110594 -321.97265625 870.40234375 C-316.195686 882.91248157 -309.7084334 894.96807041 -303 907 C-302.17162313 908.49725651 -301.34348108 909.99464297 -300.515625 911.4921875 C-295.90135022 919.80472531 -291.07534938 927.95828137 -286 936 C-285.32582031 937.0725 -284.65164063 938.145 -283.95703125 939.25 C-273.96712406 954.97182115 -263.36906837 970.2444826 -252 985 C-251.30028076 985.91023926 -251.30028076 985.91023926 -250.58642578 986.83886719 C-245.21243667 993.80981702 -239.69554719 1000.63783226 -233.97314453 1007.32592773 C-231.18539904 1010.58423517 -228.48120598 1013.8925957 -225.8125 1017.25 C-214.95242046 1030.51291943 -202.59318032 1042.5015774 -190.5 1054.625 C-189.89199554 1055.23568329 -189.28399109 1055.84636658 -188.65756226 1056.47555542 C-182.28260013 1062.87180936 -175.90686912 1069.17257143 -169 1075 C-167.83147839 1076.02131908 -166.66480134 1077.04475253 -165.5 1078.0703125 C-151.29086033 1090.49625753 -136.67367134 1102.18479963 -121.38916016 1113.26367188 C-119.03706965 1114.97305954 -116.69534872 1116.69582337 -114.35546875 1118.421875 C-105.41284617 1124.99089163 -96.31879124 1131.13705192 -86.83007812 1136.88867188 C-84.0209679 1138.59452429 -81.23129387 1140.33171063 -78.4375 1142.0625 C-73.61687374 1145.02115937 -68.78250588 1147.95648451 -63.9375 1150.875 C-63.30577881 1151.25664307 -62.67405762 1151.63828613 -62.02319336 1152.03149414 C-59.59491186 1153.48938098 -57.21273739 1154.90397027 -54.62890625 1156.0703125 C-53 1157 -53 1157 -52 1160 C-55.24373013 1160.96587575 -58.16297461 1161.12383311 -61.54104614 1161.12139702 C-62.67516371 1161.12298817 -63.80928127 1161.12457931 -64.97776604 1161.12621868 C-66.22405344 1161.12282549 -67.47034084 1161.11943229 -68.75439453 1161.11593628 C-70.09143133 1161.11582207 -71.42846822 1161.11613587 -72.76550484 1161.11684144 C-76.44286846 1161.11745128 -80.12019871 1161.11168372 -83.79755497 1161.10481787 C-87.7621497 1161.09846223 -91.72674625 1161.09782734 -95.69134521 1161.09629822 C-105.2648764 1161.09121102 -114.83838175 1161.07614155 -124.41189861 1161.05936974 C-127.11471972 1161.05470524 -129.81754113 1161.05031063 -132.52036285 1161.04601526 C-149.2983664 1161.01934701 -166.07636094 1160.98954889 -182.8543396 1160.95004082 C-186.73948152 1160.94094002 -190.62462351 1160.93186993 -194.50976562 1160.92285156 C-195.47541356 1160.920607 -196.4410615 1160.91836243 -197.4359715 1160.91604985 C-213.09494628 1160.88021945 -228.75387153 1160.86495701 -244.41288304 1160.85809408 C-260.48186358 1160.8507038 -276.55072841 1160.82459608 -292.61964989 1160.78014576 C-301.64509189 1160.75565754 -310.6703836 1160.73953148 -319.69586182 1160.74441147 C-327.378374 1160.74851864 -335.06062167 1160.73581323 -342.74305964 1160.70085029 C-346.66462963 1160.68352824 -350.58577957 1160.6743883 -354.50737762 1160.68686104 C-358.09509865 1160.69808466 -361.68198072 1160.68644942 -365.26958632 1160.65634955 C-367.18712053 1160.64627291 -369.1047349 1160.6608697 -371.02223396 1160.67624176 C-379.35204579 1160.5730088 -379.35204579 1160.5730088 -382.68490601 1157.62564278 C-383.11888702 1156.75918066 -383.55286804 1155.89271854 -384 1155 C-384.59264648 1154.1234375 -385.18529297 1153.246875 -385.79589844 1152.34375 C-386.3943457 1151.4053125 -386.99279297 1150.466875 -387.609375 1149.5 C-388.27791504 1148.45408691 -388.94645508 1147.40817383 -389.63525391 1146.33056641 C-390.33312012 1145.23147949 -391.03098633 1144.13239258 -391.75 1143 C-392.47435765 1141.8624108 -393.19880458 1140.72487843 -393.92333984 1139.58740234 C-407.1045863 1118.87178 -407.1045863 1118.87178 -412.3125 1109.12109375 C-413.62113825 1106.70071884 -414.9544305 1104.30265853 -416.3125 1101.91015625 C-421.27947297 1093.13728346 -425.86090492 1084.29825254 -430.07421875 1075.140625 C-431.9413917 1071.08987333 -433.92434851 1067.10477329 -435.9375 1063.125 C-456.72542301 1021.7838152 -473.49277867 977.66300447 -485.24414062 932.87792969 C-486.00804893 929.96935376 -486.79155982 927.06658511 -487.578125 924.1640625 C-491.15175999 910.86356557 -494.19988267 897.48275673 -497 884 C-497.18304688 883.13246094 -497.36609375 882.26492188 -497.5546875 881.37109375 C-499.67493289 871.3076102 -501.52039486 861.24428477 -502.96142578 851.05981445 C-503.54117734 846.96569706 -504.19233236 842.90311303 -504.9609375 838.83984375 C-506.22911941 831.96902816 -507.13363217 825.05625548 -508 818.125 C-508.08682037 817.43258209 -508.17364075 816.74016418 -508.26309204 816.02676392 C-510.08035393 801.38567877 -511.23782899 786.734614 -512 772 C-512.08677002 770.34121826 -512.08677002 770.34121826 -512.17529297 768.64892578 C-514.37661334 724.48534412 -513.15586728 679.92464211 -508 636 C-507.8747998 634.92621094 -507.74959961 633.85242188 -507.62060547 632.74609375 C-502.70572306 591.37649685 -494.13988652 549.82712642 -482 510 C-481.32925045 507.77218859 -480.65868185 505.54432269 -479.98828125 503.31640625 C-476.53983462 491.91892819 -472.99385849 480.58145992 -468.88085938 469.40527344 C-467.84986264 466.59003512 -466.83996458 463.76749156 -465.828125 460.9453125 C-454.22269267 428.82537029 -440.45520023 397.20434261 -424.16748047 367.16601562 C-422.97149988 364.94712398 -421.79723849 362.71793718 -420.62890625 360.484375 C-416.29076809 352.1938118 -411.80791261 344.03045749 -407 336 C-406.27065256 334.77224279 -405.541496 333.54437217 -404.8125 332.31640625 C-398.17044513 321.15537938 -391.19338985 310.25163505 -384 299.4375 C-383.41839111 298.56270996 -382.83678223 297.68791992 -382.23754883 296.78662109 C-376.10234693 287.59545591 -369.75421631 278.5751549 -363.1875 269.6875 C-362.577854 268.86209717 -361.96820801 268.03669434 -361.34008789 267.1862793 C-345.56077679 245.87248018 -328.90480831 225.28810041 -310.77807617 205.92163086 C-309.41894775 204.4527719 -308.07244935 202.97221677 -306.73168945 201.48657227 C-299.50419076 193.50274655 -291.99130149 185.83719233 -284.36499023 178.23461914 C-282.30139939 176.17642843 -280.24326325 174.1128902 -278.18554688 172.04882812 C-276.8492791 170.71322066 -275.51270143 169.37792316 -274.17578125 168.04296875 C-273.57349197 167.43865524 -272.9712027 166.83434174 -272.35066223 166.2117157 C-268.63033688 162.51145258 -264.78973876 159.00039701 -260.81396484 155.57585144 C-258.03771622 153.16403215 -255.36937814 150.64053058 -252.6875 148.125 C-247.86898289 143.64257726 -242.92817067 139.3856427 -237.79296875 135.265625 C-235.29711757 133.24101845 -232.85271942 131.16704786 -230.41870117 129.06884766 C-223.21161766 122.87069011 -215.69376423 117.16429367 -208.04833984 111.52050781 C-206.01823918 110.01353917 -204.00136453 108.49054634 -201.98828125 106.9609375 C-186.49815218 95.20156438 -170.37306196 84.48642035 -154 74 C-153.29343262 73.54737793 -152.58686523 73.09475586 -151.85888672 72.62841797 C-123.0290861 54.22893941 -92.67945169 37.64501133 -61.34375 23.92578125 C-57.50223929 22.23756489 -53.71930247 20.44350186 -49.9375 18.625 C-40.17808545 14.02985449 -30.1113101 10.17405661 -20.07275391 6.23730469 C-15.9018567 4.55781104 -11.78870152 2.74927844 -7.68041992 0.92236328 C-4.933719 -0.02280805 -2.88043892 -0.18351736 0 0 Z " fill="#E5B430" transform="translate(786,312)"/>
<path d="M0 0 C3.30417568 0.00461183 6.60798145 -0.00223984 9.91210938 -0.02050781 C40.13914095 -0.18567548 70.17169196 1.20088307 100.04272461 6.12817383 C101.6787809 6.38947577 103.31484893 6.65070429 104.95092773 6.91186523 C119.09626528 9.2025701 133.10525216 11.97499605 147.04272461 15.31567383 C148.28425293 15.61199707 149.52578125 15.90832031 150.80493164 16.21362305 C168.17537487 20.39308374 185.18267052 25.37629929 202.05493164 31.27807617 C204.79197177 32.22859264 207.53680836 33.1478892 210.28881836 34.05395508 C274.06809181 55.27583922 333.54421327 92.10502745 383.04272461 137.31567383 C384.01467773 138.18321289 384.98663086 139.05075195 385.98803711 139.94458008 C408.73797874 160.39010187 429.65706148 184.46830846 446.04272461 210.31567383 C446.96272141 211.73401644 447.8833441 213.15195318 448.80444336 214.56958008 C459.31149923 230.84758908 468.57373979 247.43192137 476.04272461 265.31567383 C476.69085056 266.77140256 477.34205567 268.22576312 477.99584961 269.67895508 C487.04651959 289.98111162 493.31980739 311.1254897 497.79272461 332.87817383 C497.97923584 333.77246094 498.16574707 334.66674805 498.35791016 335.58813477 C502.01646929 354.37169273 503.54397098 373.07288993 503.43383789 392.18945312 C503.41767907 395.51253949 503.43384598 398.83441939 503.45288086 402.1574707 C503.46420906 415.79473814 502.3862712 428.88165332 500.04272461 442.31567383 C498.72272461 441.98567383 497.40272461 441.65567383 496.04272461 441.31567383 C495.94040527 440.58791748 495.83808594 439.86016113 495.73266602 439.11035156 C494.5916906 431.60383941 492.79850857 424.5802607 490.41772461 417.37817383 C490.06508545 416.29769775 489.71244629 415.21722168 489.34912109 414.10400391 C473.44049984 365.95419288 448.69417932 321.43441069 414.37866211 283.89770508 C413.11177097 282.49734547 411.85088553 281.09096976 410.62475586 279.65478516 C405.6347702 273.82536969 400.28789428 268.3746966 394.86499023 262.95263672 C393.30412134 261.38958649 391.75144573 259.81870018 390.19897461 258.24731445 C383.80384728 251.81679792 377.14636059 245.96853658 370.04272461 240.31567383 C368.95273527 239.39248589 367.86810822 238.46286613 366.79272461 237.52270508 C307.9583637 186.29335389 232.34307371 152.10291412 157.04272461 133.31567383 C155.43071318 132.89782951 153.81873414 132.47986025 152.20678711 132.06176758 C71.26948087 111.51250206 -14.12097562 110.61526863 -191.64477539 147.06567383 C-192.81940338 147.45734741 -192.81940338 147.45734741 -194.01776123 147.85693359 C-206.89423297 152.16598266 -219.54437388 156.79261493 -231.95727539 162.31567383 C-232.96870605 162.76378418 -233.98013672 163.21189453 -235.0222168 163.67358398 C-250.64074407 170.63793408 -265.93819724 178.13846464 -280.95727539 186.31567383 C-281.75085449 186.74638184 -282.54443359 187.17708984 -283.36206055 187.62084961 C-310.14794524 202.29485601 -336.01381226 220.17421409 -358.95727539 240.31567383 C-359.68946289 240.94860352 -360.42165039 241.5815332 -361.17602539 242.23364258 C-363.11491973 243.91478707 -365.03667173 245.61367177 -366.95727539 247.31567383 C-367.66207031 247.93563232 -368.36686523 248.55559082 -369.09301758 249.19433594 C-375.4374194 254.82977394 -381.49804232 260.70107862 -387.48339844 266.71142578 C-389.04579511 268.27928451 -390.61360345 269.84159413 -392.18188477 271.40356445 C-393.18155532 272.40389422 -394.18091649 273.40453327 -395.17993164 274.40551758 C-396.07462158 275.30133545 -396.96931152 276.19715332 -397.89111328 277.12011719 C-399.98796392 279.13764139 -399.98796392 279.13764139 -400.95727539 281.31567383 C-401.61727539 281.31567383 -402.27727539 281.31567383 -402.95727539 281.31567383 C-403.30725586 282.13551758 -403.30725586 282.13551758 -403.66430664 282.97192383 C-405.31168275 285.95810409 -407.38986529 288.25404202 -409.64477539 290.81567383 C-429.8552461 314.26255099 -446.73499005 340.63635373 -460.10473633 368.53686523 C-460.88220416 370.15903894 -461.67294904 371.77483227 -462.46508789 373.38989258 C-465.84163186 380.447423 -468.76472802 387.66883009 -471.64477539 394.94067383 C-472.02561279 395.89466064 -472.4064502 396.84864746 -472.79882812 397.83154297 C-475.00037881 403.4676486 -476.81790791 409.08314975 -478.30615234 414.94921875 C-478.95727539 417.31567383 -478.95727539 417.31567383 -480.45727539 421.00317383 C-483.0140917 427.42903491 -483.79632954 434.53113922 -484.95727539 441.31567383 C-486.89477539 441.87817383 -486.89477539 441.87817383 -488.95727539 442.31567383 C-495.31540359 435.95754563 -492.26433312 410.51580431 -492.28686523 401.73657227 C-492.28304479 399.72126836 -492.27731289 397.70596726 -492.26977539 395.69067383 C-492.26762024 394.64496216 -492.26546509 393.59925049 -492.26324463 392.52185059 C-492.09489979 341.4209208 -480.54832461 290.44789373 -455.95727539 245.31567383 C-455.58812012 244.62425293 -455.21896484 243.93283203 -454.83862305 243.22045898 C-439.50147976 214.51672429 -420.72714148 187.84073247 -398.50024414 164.04223633 C-396.1305966 161.50150824 -393.82088008 158.91835957 -391.51977539 156.31567383 C-383.84883671 147.77866142 -375.69952632 139.75178201 -366.95727539 132.31567383 C-365.84535196 131.34183465 -364.73480785 130.36641951 -363.62524414 129.38989258 C-320.37594293 91.41032089 -271.0010346 63.23684287 -217.95727539 41.31567383 C-217.14556885 40.97656982 -216.3338623 40.63746582 -215.49755859 40.28808594 C-196.64690306 32.42917067 -177.27291011 26.47360039 -157.59936523 21.04516602 C-155.85369468 20.56317899 -154.10919556 20.07692665 -152.3659668 19.58618164 C-127.95894765 12.74070052 -103.05899026 7.94222521 -77.95727539 4.50317383 C-77.24754578 4.40398651 -76.53781616 4.30479919 -75.80657959 4.2026062 C-50.60125612 0.7240501 -25.40392151 -0.03829735 0 0 Z " fill="#E5B430" transform="translate(1042.957275390625,519.684326171875)"/>
</svg>
