<?xml version="1.0" encoding="UTF-8"?>
<svg version="1.1" xmlns="http://www.w3.org/2000/svg" width="2094" height="2094">
<path d="M0 0 C0.66080566 0.32226562 1.32161133 0.64453125 2.00244141 0.9765625 C15.37921419 7.55300238 27.08124902 15.81668731 37.890625 26.06640625 C39.84815219 28.03854323 39.84815219 28.03854323 42 29 C42 29.66 42 30.32 42 31 C42.66 31 43.32 31 44 31 C49.94609681 36.74900488 54.7744814 43.79660766 59.75 50.37695312 C69.76287621 63.44062755 81.36809778 72.98325815 97.82421875 76.625 C101.91880145 77.10849316 105.94318471 77.14808201 110.0625 77.125 C111.32441162 77.12209961 111.32441162 77.12209961 112.61181641 77.11914062 C118.43427373 77.0791008 124.18318119 76.73333605 129.984375 76.23046875 C156.64948873 74.19259089 183.80975297 79.96143244 208 91 C209.10045654 91.50152588 209.10045654 91.50152588 210.22314453 92.01318359 C247.28154175 109.17839816 275.80721255 140.83155362 290.38745117 178.90917969 C302.3037791 211.68006761 302.17763274 244.75314855 301.98346901 279.12243271 C301.95509411 284.22663263 301.93846458 289.33083316 301.92399597 294.43508911 C301.88172751 308.92799774 301.83357496 323.420821 301.75317383 337.91357422 C301.70860522 345.96439302 301.67840729 354.01513062 301.66431636 362.06606209 C301.65628309 366.30608611 301.64093766 370.54579469 301.60764503 374.78570175 C301.57646664 378.76033433 301.56412548 382.73458888 301.56586266 386.70933914 C301.56318236 388.15971601 301.55370699 389.61010014 301.53663635 391.06037903 C301.42546188 400.93809583 302.50803969 408.46102848 307.8125 416.875 C318.49126236 427.24865486 335.83649942 426.98424978 349.8125 428.5 C381.46010469 431.95226316 414.61810489 437.93189759 441 457 C441.59731934 457.42651855 442.19463867 457.85303711 442.81005859 458.29248047 C461.67359564 471.82350322 477.15885861 486.94201652 489 507 C489.36834961 507.6069873 489.73669922 508.21397461 490.11621094 508.83935547 C509.76573998 541.5686881 512.17814774 578.27572167 512.58891541 615.43604217 C512.62093715 618.22332199 512.6591132 621.01050761 512.69688724 623.79771442 C513.08466419 652.64188382 513.18080177 681.48738848 513.20018864 710.33393073 C513.20303914 714.54600939 513.20728636 718.75808606 513.21169281 722.97016335 C513.22379574 734.81675791 513.2341229 746.66335101 513.2375679 758.50995159 C513.23778747 759.25366589 513.23800703 759.99738018 513.23823325 760.76363127 C513.23845153 761.50821223 513.23866981 762.2527932 513.2388947 763.01993722 C513.23933803 764.52655645 513.2397846 766.03317569 513.24023438 767.53979492 C513.2404558 768.28698816 513.24067723 769.0341814 513.24090537 769.80401687 C513.2446026 781.13881958 513.25958941 792.47356795 513.28125 803.80834961 C513.52415536 933.04134201 513.52415536 933.04134201 510.19628143 985.84920883 C509.99125944 989.14030703 509.79790587 992.43192667 509.60760498 995.72390747 C507.68113043 1028.98519386 504.47363686 1061.44765465 497 1094 C496.62367432 1095.68343506 496.62367432 1095.68343506 496.23974609 1097.40087891 C489.88253995 1125.60561537 480.8233926 1153.60049102 469 1180 C468.48711426 1181.14629883 467.97422852 1182.29259766 467.44580078 1183.47363281 C454.28700625 1212.73197292 439.4196666 1241.42693513 420.26708984 1267.26171875 C418.87244964 1269.17498238 417.52157388 1271.11458237 416.17578125 1273.0625 C399.4316491 1297.27394599 379.76756522 1319.44503634 358.9284668 1340.2019043 C357.29943428 1341.82552229 355.67589272 1343.45449603 354.05273438 1345.08398438 C348.54161096 1350.59897976 342.96439064 1355.97182623 337 1361 C335.94359753 1361.91228252 334.88758811 1362.82502045 333.83203125 1363.73828125 C326.40230227 1370.07229341 318.81046198 1376.14114545 311 1382 C310.29069336 1382.5352832 309.58138672 1383.07056641 308.85058594 1383.62207031 C290.36960353 1397.54372911 271.12475631 1409.59173811 251 1421 C249.9776123 1421.58185059 248.95522461 1422.16370117 247.90185547 1422.76318359 C209.80020692 1444.30098998 168.58902917 1459.98288953 126 1470 C124.359104 1470.38696045 124.359104 1470.38696045 122.68505859 1470.78173828 C84.02207284 1479.69774292 44.43048148 1484.93256153 5 1489 C3.79811035 1489.12600586 2.5962207 1489.25201172 1.35791016 1489.38183594 C-9.37171217 1490.491513 -20.08679412 1491.25114658 -30.86669922 1491.65917969 C-31.66994629 1491.69043945 -32.47319336 1491.72169922 -33.30078125 1491.75390625 C-34.33972534 1491.78979858 -34.33972534 1491.78979858 -35.3996582 1491.82641602 C-37.55542005 1491.97032238 -39.70369469 1492.22169443 -41.84619141 1492.50048828 C-48.59698688 1493.26554759 -55.37425851 1493.20375004 -62.16015625 1493.23828125 C-62.89003628 1493.24314608 -63.61991631 1493.2480109 -64.37191391 1493.25302315 C-69.93543628 1493.2896915 -75.49886679 1493.3057564 -81.0625 1493.3125 C-81.88212849 1493.31365059 -82.70175697 1493.31480118 -83.54622269 1493.31598663 C-111.86769047 1493.34362862 -139.85562957 1492.40971773 -168 1489 C-168.90633179 1488.89109436 -169.81266357 1488.78218872 -170.74645996 1488.66998291 C-226.28134103 1481.92952715 -282.22816092 1470.10338923 -333.92724609 1448.29296875 C-337.1272548 1446.94645309 -340.33796888 1445.62814643 -343.55078125 1444.3125 C-390.12442571 1425.10892168 -433.36457705 1398.30174706 -472 1366 C-472.52142578 1365.56494141 -473.04285156 1365.12988281 -473.58007812 1364.68164062 C-490.73304986 1350.32336794 -507.96604878 1334.98821122 -522.4140625 1317.86328125 C-524.30191407 1315.64528815 -526.27702792 1313.51757845 -528.25 1311.375 C-533.2918172 1305.78053841 -537.89119697 1299.89102233 -542.49023438 1293.93359375 C-544.00829137 1291.98938104 -545.55465633 1290.07123185 -547.109375 1288.15625 C-562.06881148 1269.57575977 -575.75199168 1249.39208021 -586.81201172 1228.24169922 C-588.15578668 1225.70603509 -589.54524096 1223.19859503 -590.94140625 1220.69140625 C-637.61428237 1136.74041441 -651.44236033 1046.65297179 -656.54296875 892.23046875 C-656.5640954 890.98419519 -656.58522205 889.73792164 -656.60698891 888.45388222 C-657.19608504 852.6070264 -657.19962235 816.75712991 -657.18822432 780.90631151 C-657.18749417 778.16562803 -657.18724794 775.42494489 -657.1871376 772.68426132 C-657.18432425 726.78434802 -657.1086705 680.88849138 -656.24640274 634.99530411 C-656.18838327 631.86022718 -656.13458928 628.72510143 -656.08163452 625.5899353 C-655.07839287 567.78094106 -648.08481847 515.32054931 -605.02734375 473.05859375 C-576.31789078 445.51892548 -534.4728643 430.21951997 -495.01171875 428.5703125 C-493.48499926 428.49664668 -491.95830723 428.42240995 -490.43164062 428.34765625 C-488.06243996 428.2346158 -485.69330234 428.12524329 -483.32348633 428.02587891 C-465.55131962 427.32085412 -465.55131962 427.32085412 -450.84765625 418.12109375 C-445.54561011 412.03438962 -444.87805887 404.79924365 -444.86196899 396.98574829 C-444.85914771 396.29124962 -444.85632643 395.59675095 -444.85341966 394.88120687 C-444.84510357 392.55962781 -444.84373788 390.23809663 -444.84228516 387.91650391 C-444.83761411 386.24867113 -444.83247006 384.58083962 -444.82688904 382.91300964 C-444.81561732 379.32049301 -444.80717805 375.72798463 -444.80076981 372.13545609 C-444.79005075 366.43267015 -444.7697896 360.72994277 -444.74765015 355.02719116 C-444.68587629 338.80949633 -444.6319362 322.59180354 -444.59863281 306.37402344 C-444.58015925 297.41708775 -444.55105713 288.4602491 -444.5106281 279.50338495 C-444.48975074 274.77485224 -444.47412884 270.04644084 -444.47182083 265.31785965 C-444.44238515 218.30078382 -444.44238515 218.30078382 -438.3125 196.3125 C-438.05758789 195.37446533 -437.80267578 194.43643066 -437.54003906 193.4699707 C-426.53955533 154.44585323 -402.53449395 119.39411243 -367 99 C-337.94329543 82.95332331 -303.88769102 73.2584766 -270.5 76.5 C-251.42314249 78.18690027 -232.7467059 77.88884573 -216.93359375 65.62109375 C-211.09126595 60.62813621 -206.27789976 55.07534469 -201.71606445 48.91235352 C-197.63143645 43.4034427 -193.10731213 38.39656487 -188.37353516 33.44091797 C-187.03338181 32.03501945 -185.7098052 30.61337809 -184.38671875 29.19140625 C-137.56384473 -19.71248439 -59.50582106 -29.54849584 0 0 Z M-73.01635742 47 C-97.32460571 47.08472541 -118.91184901 54.4760759 -137 71 C-137.77859375 71.69738281 -138.5571875 72.39476562 -139.359375 73.11328125 C-165.02096071 97.31481122 -170.51400101 131.34123382 -173.6875 164.75 C-173.91405441 167.06516876 -174.14126317 169.38027359 -174.36914062 171.6953125 C-174.77939842 175.89905621 -175.18941742 180.10280832 -175.58862305 184.30761719 C-175.6683989 185.14395691 -175.74817474 185.98029663 -175.83036804 186.84197998 C-176.03918182 189.13768296 -176.03918182 189.13768296 -176 192 C-181.31631217 188.66675665 -186.33745878 185.0249781 -191.25 181.125 C-228.94166981 150.48223703 -228.94166981 150.48223703 -275 138 C-275.969375 137.96003906 -276.93875 137.92007813 -277.9375 137.87890625 C-303.2313454 137.36208489 -326.61984783 145.90977381 -346 162 C-346.87269531 162.70898438 -347.74539063 163.41796875 -348.64453125 164.1484375 C-365.69896973 178.66173845 -376.09522855 198.99074331 -379 221 C-379.16471959 222.19110099 -379.32943918 223.38220198 -379.49915028 224.60939693 C-381.34705224 239.11698018 -381.28134977 253.61572833 -381.24679029 268.21516955 C-381.24012226 271.97701182 -381.24518094 275.73884258 -381.24867249 279.50068665 C-381.25367552 286.83879668 -381.24812431 294.17686112 -381.23882218 301.51496548 C-381.22837549 310.06633218 -381.22850994 318.61768936 -381.22899476 327.16906124 C-381.22949362 342.41781146 -381.22037727 357.66654058 -381.20581055 372.9152832 C-381.19168441 387.7105345 -381.1846417 402.50576726 -381.18530273 417.30102539 C-381.18534269 418.21489748 -381.18538265 419.12876956 -381.18542381 420.07033474 C-381.18548435 421.43879311 -381.18548435 421.43879311 -381.1855461 422.8348971 C-381.18623507 439.70327441 -381.18035646 456.57164387 -381.17139288 473.44001864 C-381.16837472 479.40299122 -381.16731316 485.36596236 -381.16686058 491.32893562 C-381.16617991 498.58064462 -381.16173483 505.83234033 -381.15252777 513.08404369 C-381.14790006 516.78459009 -381.14486793 520.48511946 -381.14612198 524.18566895 C-381.14741284 528.1886228 -381.14099096 532.19152584 -381.13371277 536.19447327 C-381.13603567 537.96391244 -381.13603567 537.96391244 -381.1384055 539.76909786 C-381.13518106 540.83424852 -381.13195661 541.89939918 -381.12863445 542.99682713 C-381.12757782 544.38368523 -381.12757782 544.38368523 -381.12649983 545.79856068 C-381.1429766 548.04335169 -381.1429766 548.04335169 -380 550 C-397.06886965 537.84083423 -397.06886965 537.84083423 -405.0625 531.5 C-405.61639404 531.06147705 -406.17028809 530.6229541 -406.7409668 530.17114258 C-407.88650876 529.26320909 -409.03176805 528.35491884 -410.17675781 527.44628906 C-421.02553678 518.84048207 -431.7815307 510.58319882 -444 504 C-444.59458008 503.67805664 -445.18916016 503.35611328 -445.80175781 503.02441406 C-469.37168412 490.52966745 -494.93129613 488.48306731 -520.4921875 496.03125 C-533.69219382 500.38225431 -545.61007605 506.74672413 -556 516 C-556.51836426 516.44891602 -557.03672852 516.89783203 -557.57080078 517.36035156 C-572.4089212 530.23124801 -581.47429893 545.14142316 -586.875 564.0625 C-587.16141357 565.04959961 -587.16141357 565.04959961 -587.45361328 566.05664062 C-590.94035662 579.27022826 -591.29123672 592.82231969 -591.21600342 606.39022827 C-591.21417217 608.08492419 -591.21322834 609.77962125 -591.21308351 611.47431815 C-591.21013377 616.0854724 -591.19464325 620.69650861 -591.17690635 625.30762649 C-591.15993891 630.29901518 -591.15478067 635.29041875 -591.14805603 640.28182983 C-591.13300744 650.04479247 -591.10701111 659.80769614 -591.07704034 669.5706232 C-591.05286026 677.51528291 -591.03273073 685.45994349 -591.01544952 693.40462112 C-591.01298063 694.53839532 -591.01051173 695.67216952 -591.00796802 696.84030051 C-591.00296968 699.14417093 -590.99798111 701.44804137 -590.99300221 703.75191183 C-590.94590536 725.33125558 -590.88641498 746.91055143 -590.8225961 768.48985131 C-590.76826034 786.95724929 -590.72428029 805.42464789 -590.68798828 823.89208984 C-590.64574977 845.38236477 -590.59717115 866.87261 -590.53855062 888.36284697 C-590.5322976 890.6609717 -590.52605187 892.95909645 -590.51981354 895.25722122 C-590.51674088 896.38765633 -590.51366821 897.51809144 -590.51050244 898.68278217 C-590.48940001 906.60163032 -590.47271798 914.52048054 -590.45778656 922.4393425 C-590.43941505 932.11396815 -590.4139737 941.78854593 -590.37985936 951.46312933 C-590.36266153 956.3878646 -590.34838264 961.31255676 -590.34270287 966.23731995 C-590.31041364 991.80002509 -589.98396494 1017.1963319 -585.875 1042.5 C-585.77184479 1043.14623322 -585.66868958 1043.79246643 -585.56240845 1044.45828247 C-581.53124871 1069.50086009 -575.34012452 1094.04781974 -567 1118 C-566.68063477 1118.93166992 -566.36126953 1119.86333984 -566.03222656 1120.82324219 C-561.08013032 1135.20694509 -555.26604832 1149.1430674 -549 1163 C-548.63293945 1163.82064941 -548.26587891 1164.64129883 -547.88769531 1165.48681641 C-539.01967771 1185.23093428 -528.07421981 1203.86098966 -516.29882812 1221.99902344 C-515.14415502 1223.77791455 -514.00093565 1225.56422849 -512.859375 1227.3515625 C-508.0823911 1234.71122469 -502.77099559 1241.5698923 -497.28125 1248.40283203 C-496.14934823 1249.81382696 -495.02705489 1251.23251816 -493.90625 1252.65234375 C-481.85848182 1267.88487032 -468.94977132 1282.11960315 -455.25 1295.875 C-454.06180664 1297.07020264 -454.06180664 1297.07020264 -452.84960938 1298.28955078 C-448.60709916 1302.52052279 -444.28423541 1306.59070674 -439.7421875 1310.49853516 C-437.57407346 1312.36707515 -435.47743101 1314.30811826 -433.375 1316.25 C-363.4241696 1379.17380634 -271.1177569 1410.26527048 -128 1423 C-127.05813843 1423.0427002 -126.11627686 1423.08540039 -125.14587402 1423.12939453 C-107.00892687 1423.93684426 -88.90337024 1424.16207671 -70.75 1424.125 C-69.37550877 1424.12331569 -68.00101738 1424.12175064 -66.62652588 1424.12030029 C0.94592722 1424.92656756 0.94592722 1424.92656756 68 1418 C69.28600098 1417.77715332 70.57200195 1417.55430664 71.89697266 1417.32470703 C93.66629565 1413.51770041 114.8848161 1408.52299028 136 1402 C136.90959473 1401.7225293 137.81918945 1401.44505859 138.75634766 1401.15917969 C197.3543525 1382.96916344 252.33283565 1349.44868849 297.48828125 1308.265625 C298.87939289 1307.01081201 300.2771155 1305.76283051 301.70043945 1304.54467773 C307.59582016 1299.48649322 313.08326307 1294.06520261 318.5625 1288.5625 C319.46935547 1287.65951172 320.37621094 1286.75652344 321.31054688 1285.82617188 C326.41729445 1280.71201785 331.30955016 1275.49649239 336 1270 C336.92531624 1268.95156277 337.8523185 1267.9046104 338.78125 1266.859375 C380.57190183 1219.31449536 409.40423392 1162.8246102 429 1103 C429.27038086 1102.17886719 429.54076172 1101.35773438 429.81933594 1100.51171875 C446.16406537 1050.18536738 448.15980927 997.11272155 448.14538372 944.69026697 C448.14517685 939.984757 448.15072499 935.27925286 448.15544128 930.57374573 C448.16368446 921.39044554 448.16649314 912.20715178 448.16705366 903.0238482 C448.16753142 895.55461769 448.16959898 888.08538928 448.17275429 880.61615944 C448.18153997 859.38324052 448.1861764 838.15032662 448.18542381 816.91740587 C448.18538386 815.777013 448.1853439 814.63662014 448.18530273 813.46166992 C448.18526185 812.31986733 448.18522097 811.17806473 448.18517885 810.00166205 C448.18477195 791.47648352 448.19435817 772.95132527 448.2084411 754.42615261 C448.22282766 735.34956028 448.22971018 716.27297784 448.22884732 697.19637996 C448.22851637 686.50801885 448.23121955 675.81967906 448.24202538 665.13132286 C448.25115998 656.03898259 448.25328104 646.94667333 448.24651595 637.85433044 C448.24326697 633.22405384 448.24313518 628.59383666 448.2518692 623.96356583 C448.52306773 573.30191668 448.52306773 573.30191668 426 529 C425.28972656 528.13890625 424.57945312 527.2778125 423.84765625 526.390625 C407.68674621 507.64510545 383.63426693 494.72549336 359 492 C330.20349599 490.4310785 304.2064466 498.62778374 281.63427734 516.703125 C278.39992075 519.26973722 275.09785344 521.74925841 271.8125 524.25 C267.35029342 527.66053007 262.89477342 531.07951009 258.44921875 534.51171875 C244.10500314 545.56696385 244.10500314 545.56696385 237 550 C237.33 549.34 237.66 548.68 238 548 C238.09581401 546.30655087 238.12736451 544.60931068 238.12863445 542.91315365 C238.1318589 541.82935262 238.13508335 540.74555158 238.1384055 539.6289081 C238.1360826 537.82824045 238.1360826 537.82824045 238.13371277 535.99119568 C238.13597833 534.72332956 238.13824388 533.45546344 238.14057809 532.14917713 C238.14671896 528.61781719 238.14655979 525.08648084 238.14538372 521.55511677 C238.14518026 517.75042485 238.15069358 513.94574062 238.15544128 510.14105225 C238.1637635 502.6786191 238.16649693 495.21619385 238.16705366 487.75375646 C238.16752857 481.68224724 238.16958206 475.61074064 238.17275429 469.53923225 C238.18156912 452.3165171 238.18617297 435.09380819 238.18542381 417.87109076 C238.18538386 416.94175825 238.1853439 416.01242574 238.18530273 415.05493164 C238.18526185 414.1244595 238.18522097 413.19398735 238.18517885 412.23531909 C238.18477329 397.18961319 238.19431802 382.14393244 238.2084411 367.09823381 C238.22283577 351.64064699 238.22970943 336.1830724 238.22884732 320.72547871 C238.22851617 312.05117646 238.23122661 303.37690049 238.24202538 294.70260429 C238.25117161 287.30817535 238.25327241 279.91378455 238.24651595 272.51935237 C238.24326996 268.75223504 238.24312346 264.98519072 238.2518692 261.21808052 C238.32871983 225.8257289 235.27303094 194.64005184 209.69921875 167.6171875 C191.85093948 150.31133061 168.7141509 139.88298293 144 138 C143.08089844 137.9278125 142.16179688 137.855625 141.21484375 137.78125 C112.43691231 136.71375332 88.93885141 149.93517764 67 167 C65.93414963 167.82233558 64.86777957 168.64399821 63.80078125 169.46484375 C61.75245496 171.04108459 59.70559863 172.61923734 57.66015625 174.19921875 C49.83430197 180.21234273 41.90447218 186.09088896 34 192 C32.71766475 184.56717376 31.76468445 177.15576213 31.0703125 169.6484375 C30.95390411 168.40166229 30.95390411 168.40166229 30.83514404 167.12969971 C30.51646782 163.69010956 30.2014539 160.25030555 29.90087891 156.80908203 C27.20295947 126.18389246 20.30232254 99.01411632 -1 76 C-1.70125 75.22914063 -2.4025 74.45828125 -3.125 73.6640625 C-19.38215803 56.55471473 -41.98575164 48.77571866 -65 47 C-67.67483143 46.9501363 -70.34173116 47 -73.01635742 47 Z " fill="#E5B430" transform="translate(1119,309)"/>
<path d="M0 0 C1.78688988 -0.00945648 1.78688988 -0.00945648 3.60987854 -0.019104 C4.89224899 -0.01505554 6.17461945 -0.01100708 7.49584961 -0.00683594 C8.81483749 -0.00874939 10.13382538 -0.01066284 11.49278259 -0.01263428 C14.28104346 -0.01557908 17.06917596 -0.01130805 19.85742188 -0.00195312 C23.43087233 0.00945226 27.0040227 0.00287122 30.5774622 -0.00909805 C33.98778209 -0.01806153 37.39802119 -0.01178688 40.80834961 -0.00683594 C42.73494164 -0.01290863 42.73494164 -0.01290863 44.70045471 -0.019104 C45.88856247 -0.01279968 47.07667023 -0.00649536 48.30078125 0 C49.8715316 0.00238678 49.8715316 0.00238678 51.47401428 0.00482178 C54.08569336 0.25878906 54.08569336 0.25878906 57.08569336 2.25878906 C59.3056666 2.46284427 59.3056666 2.46284427 61.64819336 2.32128906 C65.89027351 2.16107914 65.89027351 2.16107914 68.08569336 3.25878906 C70.4372531 3.44191423 72.79234621 3.580737 75.14819336 3.69628906 C80.16905949 3.98168691 84.93324171 4.49418233 89.81225586 5.72753906 C92.55524598 6.3685127 95.29920824 6.78347645 98.08569336 7.19628906 C125.70558901 11.34409644 152.33390128 18.55073099 178.64819336 27.94628906 C179.65164795 28.30231201 180.65510254 28.65833496 181.68896484 29.02514648 C187.26405256 31.05838065 192.54566683 33.3663509 197.79370117 36.13964844 C200.23882416 37.33356021 202.69146809 38.21732791 205.27319336 39.07128906 C210.72499228 40.96588585 215.62409261 43.56794894 220.66943359 46.33178711 C224.67145763 48.52145793 228.68356673 50.47026686 232.87866211 52.25097656 C237.41448966 54.32220401 241.73884082 56.82130166 246.08569336 59.25878906 C246.08569336 59.91878906 246.08569336 60.57878906 246.08569336 61.25878906 C250.54069336 62.74378906 250.54069336 62.74378906 255.08569336 64.25878906 C255.08569336 64.91878906 255.08569336 65.57878906 255.08569336 66.25878906 C256.07569336 66.25878906 257.06569336 66.25878906 258.08569336 66.25878906 C258.08569336 66.91878906 258.08569336 67.57878906 258.08569336 68.25878906 C258.97772461 68.53078125 259.86975586 68.80277344 260.78881836 69.08300781 C272.54599668 73.27602994 283.11171634 82.9306865 293.08569336 90.25878906 C293.68124023 90.69545898 294.27678711 91.13212891 294.89038086 91.58203125 C304.25852642 98.46806648 313.52676783 105.43882121 321.59741211 113.83691406 C323.54443982 115.69706652 325.77871269 116.88707082 328.08569336 118.25878906 C329.42464968 119.92094174 330.75699478 121.58842514 332.08569336 123.25878906 C333.21304698 124.27957692 334.3616572 125.27707231 335.52319336 126.25878906 C341.19274316 131.09708908 346.35491167 136.44893842 351.58984375 141.74633789 C355.6227859 145.84421987 355.6227859 145.84421987 359.77319336 149.82128906 C361.08569336 151.25878906 361.08569336 151.25878906 361.89819336 153.13378906 C363.04818074 155.5066385 363.04818074 155.5066385 365.77709961 157.40332031 C369.56413025 160.49403509 372.3155011 164.15948142 375.21069336 168.07128906 C375.77272461 168.81902588 376.33475586 169.5667627 376.91381836 170.3371582 C378.0773104 171.88657873 379.23778601 173.43826886 380.39526367 174.9921875 C381.96802794 177.10101815 383.5515197 179.20113524 385.14038086 181.29785156 C387.61153626 184.56204133 390.05825811 187.84361483 392.49731445 191.13183594 C394.23720267 193.46167088 395.99978974 195.77352553 397.76147461 198.08691406 C398.97447897 199.70613309 400.18673445 201.32591344 401.39819336 202.94628906 C402.27121094 204.07828735 402.27121094 204.07828735 403.16186523 205.2331543 C407.00866075 210.43325623 407.00866075 210.43325623 407.32006836 213.77050781 C405.37521587 217.69098576 402.74851428 220.9750578 400.02319336 224.38378906 C398.82556124 225.91294059 397.62894398 227.4428875 396.43334961 228.97363281 C395.85343262 229.71210449 395.27351563 230.45057617 394.67602539 231.21142578 C392.70748187 233.74569136 390.82504415 236.33464108 388.96069336 238.94628906 C384.59542347 245.01122787 379.9733623 250.87329485 375.31030273 256.7109375 C374.14661614 258.18178539 373.01364529 259.67678172 371.88256836 261.17285156 C371.28959961 261.86121094 370.69663086 262.54957031 370.08569336 263.25878906 C369.42569336 263.25878906 368.76569336 263.25878906 368.08569336 263.25878906 C368.02381836 263.83628906 367.96194336 264.41378906 367.89819336 265.00878906 C366.76943122 268.13459191 364.67186038 269.24031724 362.08569336 271.25878906 C361.77631836 271.89816406 361.46694336 272.53753906 361.14819336 273.19628906 C359.83694029 275.74166266 357.97766084 277.04854216 355.76538086 278.80566406 C353.98976028 280.34178233 352.53771601 281.96547368 351.02319336 283.75878906 C347.67231889 287.68688352 344.10556563 291.35624768 340.46069336 295.00878906 C339.91018311 295.56373047 339.35967285 296.11867188 338.79248047 296.69042969 C335.70192796 299.77027536 332.53531383 302.57575092 329.08569336 305.25878906 C328.18850586 306.15597656 328.18850586 306.15597656 327.27319336 307.07128906 C321.93082803 312.41365439 316.08241113 317.12322233 310.06616211 321.68066406 C308.12043661 323.16826826 308.12043661 323.16826826 306.66772461 324.68847656 C295.78363832 335.49194 281.48771826 343.90530312 268.63647461 352.14550781 C268.00008057 352.55373779 267.36368652 352.96196777 266.70800781 353.38256836 C265.08569336 354.25878906 265.08569336 354.25878906 263.08569336 354.25878906 C263.08569336 354.91878906 263.08569336 355.57878906 263.08569336 356.25878906 C261.43569336 356.58878906 259.78569336 356.91878906 258.08569336 357.25878906 C258.08569336 357.91878906 258.08569336 358.57878906 258.08569336 359.25878906 C248.18440352 364.78395327 238.23224471 370.204774 228.21069336 375.50878906 C227.38972168 375.94537842 226.56875 376.38196777 225.72290039 376.83178711 C224.9377002 377.245979 224.1525 377.6601709 223.34350586 378.08691406 C222.64370605 378.45719727 221.94390625 378.82748047 221.22290039 379.20898438 C219.08569336 380.25878906 219.08569336 380.25878906 216.65771484 381.22192383 C213.89763984 382.33459953 211.31553988 383.64776153 208.67553711 385.02050781 C201.8277516 388.46791273 194.80069631 391.32543584 187.64819336 394.07128906 C186.98726685 394.32658386 186.32634033 394.58187866 185.64538574 394.84490967 C175.6451161 398.6942696 165.5648798 402.19360013 155.33569336 405.38378906 C154.16594971 405.74964111 152.99620605 406.11549316 151.79101562 406.49243164 C145.69730138 408.34041337 139.67994514 409.8406656 133.39233398 410.85986328 C130.20884085 411.41043777 127.17092406 412.30948731 124.08569336 413.25878906 C114.74276775 416.07929491 105.31150542 417.5847515 95.64819336 418.82128906 C93.71164692 419.06989114 91.77542979 419.32107602 89.83959961 419.57519531 C88.57611694 419.73677124 88.57611694 419.73677124 87.28710938 419.90161133 C84.9180764 420.22565598 84.9180764 420.22565598 82.08569336 421.25878906 C79.81780517 421.46163124 77.54609628 421.62323788 75.27319336 421.75878906 C70.80586221 422.02692469 66.4891691 422.45815711 62.08569336 423.25878906 C61.03381836 423.42378906 59.98194336 423.58878906 58.89819336 423.75878906 C56.01845127 424.20048376 56.01845127 424.20048376 53.08569336 425.25878906 C51.26705812 425.35693838 49.44504746 425.39700345 47.6237793 425.40405273 C46.50541687 425.41043259 45.38705444 425.41681244 44.23480225 425.42338562 C42.42075897 425.42505486 42.42075897 425.42505486 40.57006836 425.42675781 C39.32574036 425.43008621 38.08141235 425.43341461 36.79937744 425.43684387 C34.16317172 425.44191167 31.52706904 425.4446843 28.89086914 425.4440918 C26.19451179 425.44401057 23.49832443 425.45094341 20.80200195 425.46459961 C16.912138 425.48294578 13.0224713 425.48782976 9.13256836 425.48925781 C7.9313031 425.49644333 6.73003784 425.50362885 5.49237061 425.5110321 C-0.41803218 425.49495378 -5.32181887 425.15460312 -10.91430664 423.25878906 C-13.24731597 423.21990557 -15.58140465 423.21392556 -17.91430664 423.25878906 C-18.90430664 422.92878906 -19.89430664 422.59878906 -20.91430664 422.25878906 C-22.91163486 422.08005088 -24.91246557 421.93918595 -26.91430664 421.82128906 C-32.05981657 421.4574077 -36.99482119 420.785182 -42.05102539 419.79003906 C-45.24571442 419.19730003 -48.4442573 418.75496574 -51.66430664 418.32128906 C-59.15025632 417.27407424 -66.5226368 415.83131494 -73.91430664 414.25878906 C-74.90172852 414.05640625 -75.88915039 413.85402344 -76.90649414 413.64550781 C-110.06895092 406.47643559 -142.6921333 394.59343702 -172.91430664 379.25878906 C-174.28891509 378.57050652 -175.66384628 377.88286756 -177.03930664 377.19628906 C-177.67868164 376.8753125 -178.31805664 376.55433594 -178.97680664 376.22363281 C-180.30604272 375.56169468 -181.63964898 374.90848168 -182.97680664 374.26269531 C-186.1427603 372.72169135 -189.04722325 371.16927379 -191.97680664 369.19628906 C-194.57508923 367.4825282 -197.05258627 366.33588868 -199.92211914 365.16894531 C-205.09574241 362.80530958 -210.05007659 359.75926691 -214.47680664 356.19628906 C-216.68697632 354.43948752 -218.74927173 353.21103991 -221.22680664 351.88378906 C-225.19093844 349.75282005 -228.67418777 347.29822552 -232.18774414 344.49316406 C-234.00746542 343.06412792 -234.00746542 343.06412792 -236.91430664 342.25878906 C-238.583791 340.59494486 -240.25006069 338.92787294 -241.91430664 337.25878906 C-243.88384846 335.84050487 -245.88633095 334.46718308 -247.91430664 333.13378906 C-257.79975935 326.47638394 -266.60918768 318.54424765 -275.40258789 310.52441406 C-276.7648892 309.29558862 -278.13320983 308.07277258 -279.53125 306.88476562 C-285.68983239 301.62553433 -291.40921092 295.95000375 -297.13183594 290.2265625 C-298.8397372 288.52084309 -300.55548709 286.82329879 -302.27172852 285.12597656 C-308.9535207 278.47792684 -315.05468579 271.65057239 -320.91430664 264.25878906 C-321.83728 263.16861802 -322.7669123 262.08399601 -323.70727539 261.00878906 C-330.38296729 253.34208907 -336.42499518 245.29794722 -342.38696289 237.06738281 C-344.68635144 233.9015026 -347.04168305 230.7971855 -349.47290039 227.73144531 C-350.03178955 227.01835205 -350.59067871 226.30525879 -351.16650391 225.57055664 C-352.21733847 224.23547346 -353.28093058 222.91029367 -354.359375 221.59741211 C-356.678095 218.62507181 -357.83832226 216.61641119 -358.63305664 212.87597656 C-357.58749562 207.6140771 -354.81967904 204.2906642 -351.53930664 200.13378906 C-350.89807861 199.29485107 -350.25685059 198.45591309 -349.59619141 197.59155273 C-348.30627488 195.90754436 -347.00925539 194.22895049 -345.70483398 192.55615234 C-344.19092737 190.61371149 -342.69623396 188.65980705 -341.21508789 186.69238281 C-334.66440518 178.0411506 -327.8179682 169.62934736 -320.91430664 161.25878906 C-320.43268066 160.66984863 -319.95105469 160.0809082 -319.45483398 159.47412109 C-311.18691586 149.39445047 -302.09289519 140.23352898 -292.79321289 131.10693359 C-291.2939276 129.63219481 -289.8070465 128.14484862 -288.32446289 126.65332031 C-279.30109619 117.68845194 -269.94003416 109.09180147 -259.91430664 101.25878906 C-259.33052246 100.79714355 -258.74673828 100.33549805 -258.14526367 99.85986328 C-227.92350225 76.00463461 -194.96512358 56.33370128 -160.03930664 40.19628906 C-159.05889404 39.74286133 -158.07848145 39.28943359 -157.06835938 38.82226562 C-152.10909213 36.57143252 -147.1926881 34.64022193 -142.00244141 32.99951172 C-139.96056955 32.27519987 -138.15464315 31.40065735 -136.24633789 30.37988281 C-130.32101417 27.30093775 -123.92963117 25.39701446 -117.60180664 23.32128906 C-116.93778839 23.1015744 -116.27377014 22.88185974 -115.58963013 22.65548706 C-104.80186927 19.09050966 -93.97205346 15.87947506 -82.91430664 13.25878906 C-81.69743164 12.96488281 -80.48055664 12.67097656 -79.22680664 12.36816406 C-76.12809025 11.63652269 -73.02515298 10.93673902 -69.91430664 10.25878906 C-69.09317383 10.07574219 -68.27204102 9.89269531 -67.42602539 9.70410156 C-61.17135131 8.37331984 -54.86649989 7.53356771 -48.52758789 6.72363281 C-41.20514747 5.85558024 -41.20514747 5.85558024 -34.03930664 4.19628906 C-30.29463381 3.20932103 -26.87033884 3.15554081 -23.01586914 3.25488281 C-20.24670198 3.26002996 -17.63339508 2.75316878 -14.91430664 2.25878906 C-14.04805664 2.27941406 -13.18180664 2.30003906 -12.28930664 2.32128906 C-9.92149954 2.44209618 -9.92149954 2.44209618 -8.13551331 1.27105713 C-5.29781017 -0.02216619 -3.11543572 0.00473036 0 0 Z M162.08569336 111.25878906 C162.59771848 114.1429659 163.10343231 116.29320566 164.45678711 118.91894531 C177.94218545 146.56886278 177.47126863 186.26261741 168.16381836 215.11669922 C164.02584894 226.97954136 159.03845446 237.80859223 152.51147461 248.55175781 C150.8526886 251.19125326 150.8526886 251.19125326 151.08569336 254.25878906 C150.42569336 254.25878906 149.76569336 254.25878906 149.08569336 254.25878906 C147.40281584 256.30083492 147.40281584 256.30083492 145.71069336 258.88378906 C144.77483398 260.25470703 144.77483398 260.25470703 143.82006836 261.65332031 C142.51506825 263.61375966 141.23232366 265.58904183 139.96069336 267.57128906 C137.91167443 270.5082162 135.67700361 272.78800487 133.08569336 275.25878906 C131.91634162 276.42276447 130.74983205 277.58959988 129.58569336 278.75878906 C128.99143555 279.35046875 128.39717773 279.94214844 127.78491211 280.55175781 C126.30378088 282.03969884 124.8486193 283.55340145 123.39819336 285.07128906 C121.32724691 287.03029246 119.70207227 288.19285692 117.08569336 289.25878906 C117.08569336 289.91878906 117.08569336 290.57878906 117.08569336 291.25878906 C116.34319336 291.52820312 115.60069336 291.79761719 114.83569336 292.07519531 C112.18792562 293.21478853 110.3521771 294.44062268 108.08569336 296.19628906 C90.21538177 308.85883233 68.92531178 317.81620016 47.08569336 320.25878906 C45.76247384 320.44018721 44.43957924 320.62396457 43.11694336 320.80957031 C27.38890156 322.93763964 12.31187941 322.77189961 -3.22680664 319.38378906 C-4.05857422 319.20380371 -4.8903418 319.02381836 -5.74731445 318.83837891 C-7.39622614 318.47882011 -9.04452789 318.1164502 -10.69213867 317.75097656 C-12.55461593 317.33845688 -14.41971979 316.93782033 -16.28540039 316.54003906 C-28.61376827 313.72977339 -40.03412297 308.6333752 -50.91430664 302.25878906 C-51.75477539 301.78699219 -52.59524414 301.31519531 -53.46118164 300.82910156 C-59.04412588 297.62150938 -63.96516232 293.95316101 -68.88305664 289.79785156 C-70.75524443 288.05748349 -70.75524443 288.05748349 -72.91430664 288.25878906 C-73.24430664 287.26878906 -73.57430664 286.27878906 -73.91430664 285.25878906 C-75.50496951 283.6463452 -75.50496951 283.6463452 -77.47680664 282.07128906 C-85.61172021 275.1442428 -92.34643134 267.78338374 -98.16430664 258.82128906 C-99.66190767 256.18231874 -99.66190767 256.18231874 -101.91430664 255.25878906 C-103.02758789 253.54394531 -103.02758789 253.54394531 -104.22680664 251.32128906 C-104.66637695 250.50660156 -105.10594727 249.69191406 -105.55883789 248.85253906 C-107.30235639 245.51623853 -109.00190982 242.16159606 -110.66040039 238.78222656 C-111.48188975 237.12901121 -112.32756314 235.48754442 -113.19946289 233.86035156 C-116.7043627 227.23641248 -118.95828573 220.48220488 -120.91430664 213.25878906 C-121.1527832 212.39890381 -121.39125977 211.53901855 -121.63696289 210.65307617 C-123.67077792 203.00413565 -124.82453087 195.43424223 -125.66430664 187.57128906 C-125.80223633 186.41306641 -125.94016602 185.25484375 -126.08227539 184.06152344 C-126.71922918 178.2796903 -127.02412186 172.96217916 -126.1809082 167.20043945 C-125.79639357 164.40003202 -125.85560058 161.6428491 -125.91430664 158.82128906 C-126.02350909 153.47719397 -126.02350909 153.47719397 -124.91430664 151.25878906 C-124.74544152 149.916088 -124.61393785 148.56854392 -124.50415039 147.21972656 C-123.99574197 142.27042508 -122.84792862 137.65673261 -121.47680664 132.88378906 C-121.25959961 132.09101562 -121.04239258 131.29824219 -120.81860352 130.48144531 C-119.81325929 126.91292617 -119.0009102 124.38869441 -116.91430664 121.25878906 C-116.24817329 118.98340583 -116.24817329 118.98340583 -115.78930664 116.57128906 C-115.53793945 115.35892578 -115.53793945 115.35892578 -115.28149414 114.12207031 C-115.16032227 113.5071875 -115.03915039 112.89230469 -114.91430664 112.25878906 C-120.76006639 113.58737082 -125.68044853 116.07689327 -130.99633789 118.81738281 C-133.33976719 119.97498042 -135.57233723 120.92312194 -138.03930664 121.75878906 C-142.09239321 123.18487508 -145.53418354 125.36892283 -149.17211914 127.62988281 C-153.93711038 130.46036906 -158.92939244 132.84341826 -163.91430664 135.25878906 C-163.91430664 135.91878906 -163.91430664 136.57878906 -163.91430664 137.25878906 C-164.59750977 137.33355469 -165.28071289 137.40832031 -165.98461914 137.48535156 C-169.76676203 138.48383729 -172.6147166 140.4363158 -175.78930664 142.63378906 C-176.43988037 143.0756958 -177.0904541 143.51760254 -177.76074219 143.97290039 C-183.7615844 148.08086433 -189.61978888 152.38028656 -195.45727539 156.71582031 C-198.43879451 158.92468716 -201.47492596 161.04093055 -204.53930664 163.13378906 C-208.05269793 165.57012434 -210.92295833 168.19265705 -213.91430664 171.25878906 C-216.42184477 173.27223101 -218.9568871 175.2435655 -221.51196289 177.19628906 C-224.02207072 179.35130847 -225.87726941 181.66094805 -227.91430664 184.25878906 C-229.15338643 185.41866994 -230.42403459 186.5459346 -231.72680664 187.63378906 C-237.75050504 192.79855269 -243.11778975 198.37395705 -248.26586914 204.40722656 C-249.74019587 206.06322389 -251.26921571 207.52729833 -252.91430664 209.00878906 C-255.12019785 211.00655882 -255.12019785 211.00655882 -254.97680664 213.25878906 C-253.07182687 216.84463334 -250.79891315 219.56544883 -247.60180664 222.07128906 C-244.61169196 224.50510334 -242.29920878 227.19515323 -239.79711914 230.11425781 C-234.94245447 235.64374102 -229.6058228 240.63531792 -224.02758789 245.42285156 C-221.71856771 247.42883952 -219.47680719 249.49939841 -217.22680664 251.57128906 C-211.38959322 256.82389537 -205.21554036 261.58440761 -198.91430664 266.25878906 C-198.21176758 266.78053711 -197.50922852 267.30228516 -196.78540039 267.83984375 C-181.53312287 280.43130714 -181.53312287 280.43130714 -163.91430664 288.25878906 C-163.91430664 288.91878906 -163.91430664 289.57878906 -163.91430664 290.25878906 C-162.80055664 290.81566406 -161.68680664 291.37253906 -160.53930664 291.94628906 C-159.44295898 292.49542969 -159.44295898 292.49542969 -158.32446289 293.05566406 C-156.70934796 293.86191268 -155.09212856 294.66395842 -153.47290039 295.46191406 C-149.33200617 297.50968022 -145.24699349 299.60705059 -141.22680664 301.88378906 C-137.54805075 303.95188125 -133.82216663 305.65377514 -129.91430664 307.25878906 C-128.57705161 307.85872548 -127.24122799 308.46185804 -125.90649414 309.06738281 C-120.51649069 311.46921131 -115.03863636 313.62178163 -109.53930664 315.75878906 C-108.57508789 316.13648438 -107.61086914 316.51417969 -106.61743164 316.90332031 C-93.56210547 322.11339818 -93.56210547 322.11339818 -80.02758789 325.76269531 C-77.89126702 326.26419762 -75.95269677 326.9506699 -73.91430664 327.75878906 C-69.65807881 329.42789801 -65.38625171 330.35105096 -60.91430664 331.25878906 C-58.58057784 331.75693999 -56.24727224 332.25707603 -53.91430664 332.75878906 C-52.7090332 333.0153125 -51.50375977 333.27183594 -50.26196289 333.53613281 C-47.61826399 334.10682628 -44.9850997 334.70539916 -42.35180664 335.32128906 C-35.58303157 336.8296865 -28.59185319 338.26757651 -21.64477539 338.25097656 C-18.91430664 338.25878906 -18.91430664 338.25878906 -16.91430664 339.25878906 C-15.41530849 339.39883512 -13.91098976 339.48434992 -12.40649414 339.54003906 C-11.50157227 339.57742188 -10.59665039 339.61480469 -9.66430664 339.65332031 C-8.71555664 339.688125 -7.76680664 339.72292969 -6.78930664 339.75878906 C3.67319872 340.15222589 3.67319872 340.15222589 8.09741211 340.77832031 C12.98227581 341.44275086 17.84962059 341.4500539 22.77319336 341.44628906 C24.2768042 341.44616821 24.2768042 341.44616821 25.81079102 341.44604492 C34.31620072 341.38255176 42.67527424 340.68022411 51.12475586 339.76269531 C55.85741697 339.25437245 60.58233072 338.98204827 65.33569336 338.75878906 C70.40758711 338.50758403 75.21068526 338.01046103 80.13256836 336.72363281 C82.21032527 336.22912667 84.20910264 336.00870443 86.33569336 335.82128906 C95.01238855 334.95966602 103.47748192 332.48406219 111.84741211 330.12207031 C114.38697628 329.44505743 116.91954073 328.82643136 119.48022461 328.23925781 C131.32943021 325.48384919 142.43066322 321.68740745 153.71606445 317.1640625 C156.08521668 316.25897117 158.46964085 315.4716197 160.88647461 314.70410156 C164.28143446 313.60519589 167.06046345 312.17195711 170.08569336 310.25878906 C171.69602525 309.65557893 173.32257726 309.09436352 174.96069336 308.57128906 C181.74342432 306.18005817 187.8905073 302.76853177 194.16381836 299.30566406 C196.00036533 298.30526856 197.85000896 297.33840106 199.71069336 296.38378906 C227.00325055 282.32958032 252.16469944 263.78080843 274.48608398 242.75683594 C276.28401158 241.07306248 278.09809513 239.40772698 279.91381836 237.74316406 C286.31899492 231.85278729 292.58844336 226.02717495 298.08569336 219.25878906 C298.91069336 218.37191406 299.73569336 217.48503906 300.58569336 216.57128906 C302.28763928 214.40685321 302.28763928 214.40685321 302.08569336 212.03222656 C300.59705675 207.90358597 297.74358437 205.53139284 294.58569336 202.57128906 C293.3857961 201.42361663 292.1877856 200.27396735 290.99194336 199.12207031 C290.45891602 198.61973877 289.92588867 198.11740723 289.37670898 197.59985352 C288.08569336 196.25878906 288.08569336 196.25878906 287.08569336 194.25878906 C286.42569336 194.25878906 285.76569336 194.25878906 285.08569336 194.25878906 C284.76858398 193.43894531 284.76858398 193.43894531 284.44506836 192.60253906 C282.59776425 189.41753197 280.04871652 187.19052356 277.33569336 184.75878906 C276.75859619 184.23542969 276.18149902 183.71207031 275.58691406 183.17285156 C273.76115556 181.52565436 271.92529052 179.89050832 270.08569336 178.25878906 C269.51705566 177.7521875 268.94841797 177.24558594 268.36254883 176.72363281 C259.95929411 169.27136872 251.21637111 162.36615549 242.13891602 155.75439453 C240.78131097 154.76548984 239.42675329 153.77238661 238.07543945 152.77490234 C214.45220843 135.36317459 188.98087896 122.71257473 162.08569336 111.25878906 Z " fill="#E5B430" transform="translate(1023.914306640625,1211.7412109375)"/>
<path d="M0 0 C1.26604065 -0.00139984 2.5320813 -0.00279968 3.83648682 -0.00424194 C38.38625934 0.02679935 72.95644685 2.9962172 106.86474609 9.78710938 C110.26546867 10.46552221 113.67268747 11.10082616 117.08203125 11.734375 C156.11849423 19.18414287 194.10848588 31.69840731 230.125 48.4375 C231.16350098 48.91300293 232.20200195 49.38850586 233.27197266 49.87841797 C270.69890894 67.05131699 305.42535739 89.94334215 335.58691406 118.01708984 C337.14775698 119.45851589 338.7234711 120.88175331 340.3046875 122.30078125 C345.28687077 126.78243249 350.10559622 131.27405399 354.421875 136.41796875 C356.40867755 138.77387912 358.4827978 141.03826783 360.5625 143.3125 C364.96389775 148.19797703 369.09201691 153.24552371 373.125 158.4375 C374.13626953 159.70400391 374.13626953 159.70400391 375.16796875 160.99609375 C385.81064769 174.66292189 394.90266017 189.74529604 402.20117188 205.44970703 C402.83267695 206.80851103 403.4723972 208.1635192 404.11914062 209.51513672 C417.96873494 238.4920365 425.54749523 270.28729384 425.38574219 302.40771484 C425.3750114 304.93481422 425.38571156 307.46120307 425.3984375 309.98828125 C425.40573881 319.97647979 424.75387025 329.57522864 423.125 339.4375 C422.135 339.1075 421.145 338.7775 420.125 338.4375 C419.10107422 336.1628418 419.10107422 336.1628418 418.1796875 333.13671875 C417.82970703 332.02409668 417.47972656 330.91147461 417.11914062 329.76513672 C416.74982422 328.5638916 416.38050781 327.36264648 416 326.125 C412.15086488 314.11778418 407.69061666 302.74365975 402.125 291.4375 C401.78033691 290.72513184 401.43567383 290.01276367 401.08056641 289.27880859 C392.52997076 271.75191198 381.32675441 255.60971896 369.125 240.4375 C368.43664063 239.57125 367.74828125 238.705 367.0390625 237.8125 C364.17326105 234.25656677 361.16770875 230.84269752 358.125 227.4375 C357.70186523 226.96248047 357.27873047 226.48746094 356.84277344 225.99804688 C349.36684558 217.63980103 341.52638618 209.86322489 333.125 202.4375 C332.62452148 201.99229004 332.12404297 201.54708008 331.60839844 201.08837891 C290.10308944 164.38050739 239.21779834 137.59791428 187.125 119.4375 C185.5479126 118.88715088 185.5479126 118.88715088 183.93896484 118.32568359 C163.97586177 111.45079499 143.66633905 106.24377951 123.125 101.4375 C122.14660156 101.20691895 121.16820312 100.97633789 120.16015625 100.73876953 C96.08236433 95.1747712 70.75592886 92.16296303 46.125 90.4375 C44.99723145 90.35282471 43.86946289 90.26814941 42.70751953 90.1809082 C-8.31345749 86.59909486 -59.67855883 89.83964425 -109.875 99.4375 C-110.57306763 99.57091797 -111.27113525 99.70433594 -111.99035645 99.84179688 C-132.32882839 103.76383583 -152.16237 109.05411351 -171.875 115.4375 C-173.08784668 115.82808594 -174.30069336 116.21867187 -175.55029297 116.62109375 C-219.56399244 130.93067759 -262.35863452 151.12853101 -299.875 178.4375 C-301.42767578 179.55125 -301.42767578 179.55125 -303.01171875 180.6875 C-314.5956904 189.1672701 -325.26955255 198.78104863 -335.875 208.4375 C-336.83019531 209.28828125 -337.78539062 210.1390625 -338.76953125 211.015625 C-376.34603167 244.64820078 -405.3886897 291.26173403 -416.875 340.4375 C-417.865 340.1075 -418.855 339.7775 -419.875 339.4375 C-422.32173184 329.84384624 -422.213635 320.21703037 -422.19067383 310.38964844 C-422.18754558 307.60310517 -422.21092088 304.81766023 -422.23632812 302.03125 C-422.29720095 285.05542366 -420.26902304 268.49163645 -416.1875 252 C-415.80513184 250.44297363 -415.80513184 250.44297363 -415.41503906 248.85449219 C-405.73213947 210.82857708 -385.88073427 175.67799009 -359.875 146.4375 C-358.66643568 145.04186666 -357.45807387 143.6460579 -356.25 142.25 C-355.12706564 140.97734106 -354.00195824 139.70659712 -352.875 138.4375 C-351.83085938 137.25414062 -351.83085938 137.25414062 -350.765625 136.046875 C-340.96576723 125.03048316 -330.47932846 115.28354466 -319.03515625 106.01171875 C-316.75273028 104.16175244 -314.49560801 102.28435908 -312.24609375 100.39453125 C-242.73056383 42.36257385 -150.17293935 13.5862074 -51.875 2.4375 C-51.07439148 2.35805145 -50.27378296 2.27860291 -49.44891357 2.19674683 C-32.95619333 0.57434381 -16.56873093 -0.0017741 0 0 Z " fill="#E5B430" transform="translate(1051.875,1083.5625)"/>
<path d="M0 0 C30.73592454 29.23229658 41.35974548 76.87874548 42.43297924 117.63951662 C42.52877821 123.44293385 42.52307297 129.24664292 42.52217102 135.0506897 C42.52547761 136.99872897 42.52920483 138.94676756 42.5333125 140.89480531 C42.54324783 146.21000274 42.54703539 151.52518888 42.54970181 156.84039426 C42.5536295 162.58670602 42.56320502 168.33300905 42.57191467 174.07931519 C42.59159567 187.92562275 42.60172833 201.77193096 42.61064246 215.618249 C42.61503353 222.14266956 42.62039769 228.66708932 42.62563133 235.19150925 C42.64262473 256.87819834 42.65714815 278.56488652 42.66438007 300.25158119 C42.66485482 301.65106874 42.66533071 303.05055628 42.66580774 304.45004382 C42.66604411 305.14401938 42.66628049 305.83799494 42.66652403 306.55300006 C42.66772516 310.06869927 42.66894064 313.58439846 42.67016602 317.10009766 C42.67052624 318.14661612 42.67052624 318.14661612 42.67089374 319.21427637 C42.67880063 341.87495714 42.70227126 364.53558581 42.73472196 387.19624379 C42.76899709 411.17470601 42.78872726 435.15313635 42.79202431 459.13162363 C42.79419203 472.19619728 42.80298052 485.26069408 42.82848549 498.3252449 C42.85013061 509.43768654 42.85827298 520.55003261 42.84851871 531.66249295 C42.84395789 537.33403764 42.84596392 543.00538485 42.86528015 548.67690277 C42.88279512 553.86403149 42.88200977 559.05081692 42.86638286 564.2379487 C42.86398914 566.11846929 42.86842076 567.99901293 42.88021151 569.87949808 C42.89520727 572.42808686 42.88574446 574.97543957 42.86998463 577.52399635 C42.88531794 578.62892572 42.88531794 578.62892572 42.90096101 579.75617689 C42.83538039 584.58743521 41.82444684 587.05996992 38.375 590.4375 C35.75390625 591.765625 35.75390625 591.765625 32.9375 592.6875 C32.01066406 593.00203125 31.08382813 593.3165625 30.12890625 593.640625 C17.29463827 597.35437063 4.45667266 596.09866532 -7.42578125 590 C-35.99820617 572.79865591 -51.16474704 542.35543412 -59.078125 510.82910156 C-60.9918376 502.46002629 -62.47789768 493.94517558 -63.625 485.4375 C-63.7080524 484.8446651 -63.7911048 484.2518302 -63.87667394 483.64103061 C-64.98037166 474.47679931 -64.78866558 465.26073083 -64.80340576 456.04594421 C-64.81012571 454.06097153 -64.81726411 452.07600023 -64.82478356 450.09103042 C-64.84413384 444.65052836 -64.85738729 439.21002612 -64.86958575 433.76950395 C-64.88378692 427.89698954 -64.9035612 422.02449338 -64.92253113 416.1519928 C-64.96495229 402.65373742 -64.99910985 389.15546709 -65.03200389 375.65718563 C-65.04832866 368.98600461 -65.06587267 362.31482686 -65.08355594 355.64364932 C-65.14406871 332.80329564 -65.20246432 309.96293796 -65.25371933 287.12256145 C-65.25693848 285.69039541 -65.26015785 284.25822937 -65.26337744 282.82606332 C-65.26660301 281.39049086 -65.26982849 279.9549184 -65.27305388 278.51934594 C-65.27952518 275.63944351 -65.28600134 272.75954109 -65.29248047 269.87963867 C-65.29488682 268.80857592 -65.29488682 268.80857592 -65.29734178 267.71587554 C-65.34950182 244.53674983 -65.41394734 221.35768088 -65.48570609 198.1786081 C-65.56155168 173.66478012 -65.62650801 149.15094732 -65.67890286 124.6370576 C-65.68469091 121.94799307 -65.69052333 119.25892864 -65.69638824 116.56986427 C-65.69782716 115.90775416 -65.69926608 115.24564405 -65.70074861 114.56346999 C-65.72272676 104.56046359 -65.75303372 94.55750914 -65.78755951 84.55454063 C-65.82674665 73.1858273 -65.85571808 61.81714652 -65.87118712 50.44837513 C-65.8793932 44.64524098 -65.89253598 38.84222595 -65.91869926 33.03914261 C-65.94251189 27.73161335 -65.95255189 22.42424661 -65.95141616 17.1166657 C-65.95346577 15.19224566 -65.96065227 13.26782315 -65.9733735 11.34344407 C-65.98986987 8.73580429 -65.98796614 6.12881222 -65.98131943 3.52114391 C-65.99051897 2.76705164 -65.99971851 2.01295938 -66.00919682 1.23601583 C-65.97362763 -3.21734538 -65.32882627 -6.00116285 -62.625 -9.5625 C-44.7535605 -25.76889855 -15.30723053 -13.12972309 0 0 Z " fill="#E5B430" transform="translate(1068.625,425.5625)"/>
<path d="M0 0 C26.33308568 20.21488053 38.49130803 47.95131367 42.76198459 80.29556668 C43.63083487 87.94478518 43.63402571 95.56548007 43.62872314 103.25509644 C43.63131111 104.76642912 43.63432546 106.27776111 43.63772655 107.78909218 C43.64574789 111.92035415 43.64758337 116.0515987 43.64832401 120.18286753 C43.65018287 124.64634569 43.65773388 129.10981498 43.66445923 133.57328796 C43.67800388 143.3185201 43.68405994 153.06374811 43.68846989 162.80898809 C43.69123633 168.89336197 43.69547417 174.97773428 43.69997406 181.06210709 C43.71215687 197.91040128 43.72246125 214.75869422 43.72584915 231.60699272 C43.7261785 233.2222237 43.7261785 233.2222237 43.7265145 234.8700856 C43.72684192 236.48911537 43.72684192 236.48911537 43.72717595 238.14085281 C43.72761941 240.32795135 43.72806598 242.5150499 43.72851562 244.70214844 C43.72873705 245.78701857 43.72895848 246.87188871 43.72918662 247.98963369 C43.73314108 265.59789954 43.7506192 283.20612417 43.77387515 300.81437407 C43.79756238 318.89491003 43.81004964 336.97542526 43.81121707 355.05597699 C43.8121348 365.20696648 43.81791254 375.35790211 43.83603668 385.5088768 C43.85140152 394.1445232 43.85657924 402.78009905 43.84829858 411.41575651 C43.84438051 415.82335469 43.84537812 420.23081064 43.85935593 424.63839149 C43.87202433 428.6697401 43.87096012 432.70083855 43.85876521 436.73218645 C43.85679601 438.1935934 43.85994259 439.65501765 43.86860958 441.11640023 C43.87961576 443.09692414 43.87046859 445.07752982 43.86021805 447.05805779 C43.86081514 448.15990154 43.86141222 449.2617453 43.86202741 450.39697826 C43.43808611 453.60215256 42.75171495 454.94475024 40.48828125 457.22265625 C37.98767174 458.18146984 35.76110811 458.88009665 33.17578125 459.47265625 C32.1077124 459.72414429 32.1077124 459.72414429 31.01806641 459.98071289 C12.92763839 463.93359802 -3.95358138 459.69540094 -19.51171875 450.22265625 C-23.05728394 447.75932616 -26.32858607 445.13635053 -29.51171875 442.22265625 C-30.0428125 441.73667969 -30.57390625 441.25070312 -31.12109375 440.75 C-33.52135058 438.4415177 -35.68575886 436.00964767 -37.51171875 433.22265625 C-37.51171875 432.56265625 -37.51171875 431.90265625 -37.51171875 431.22265625 C-38.17171875 431.22265625 -38.83171875 431.22265625 -39.51171875 431.22265625 C-56.90165842 407.31546314 -63.84023519 379.80048483 -63.78587341 350.48141479 C-63.79033699 348.94187924 -63.79565467 347.40234597 -63.80174214 345.86281598 C-63.81579538 341.67216736 -63.81758788 337.48159334 -63.81714523 333.29092455 C-63.81880447 328.75661243 -63.8318904 324.22233007 -63.84333801 319.68803406 C-63.86608969 309.79841442 -63.87409605 299.90881636 -63.87916446 290.0191741 C-63.88242902 283.84298097 -63.88895552 277.66679402 -63.89616585 271.4906044 C-63.91570875 254.38136688 -63.93212986 237.27213507 -63.93504238 220.16288567 C-63.93522995 219.07039983 -63.93541752 217.97791399 -63.93561077 216.85232253 C-63.93597701 214.63783685 -63.93634071 212.42335118 -63.93670189 210.20886551 C-63.9368847 209.10965669 -63.93706751 208.01044787 -63.93725586 206.87792969 C-63.93743641 205.77737787 -63.93761696 204.67682605 -63.93780298 203.54292418 C-63.94135241 185.66975026 -63.96843301 167.79669622 -64.00575375 149.92356394 C-64.04378628 131.56265348 -64.06319943 113.20180265 -64.06350189 94.8408519 C-64.06408714 84.53562452 -64.07262414 74.2305407 -64.10149956 63.92535019 C-64.12594429 55.1616712 -64.13334233 46.39818828 -64.11825203 37.63448445 C-64.11105813 33.16195956 -64.11204737 28.68982246 -64.13466263 24.21734047 C-64.15514972 20.12678929 -64.15274986 16.03692661 -64.13178778 11.94638373 C-64.12827336 10.46355944 -64.13328491 8.98068649 -64.14749222 7.4979261 C-64.16551074 5.48862058 -64.14994947 3.47909662 -64.13254452 1.46978569 C-64.13335897 0.35188365 -64.13417343 -0.76601839 -64.13501257 -1.91779625 C-63.51171875 -4.77734375 -63.51171875 -4.77734375 -61.14381558 -7.10235965 C-43.19514303 -18.52433349 -15.84698411 -11.21365128 0 0 Z " fill="#E5B430" transform="translate(1275.51171875,535.77734375)"/>
<path d="M0 0 C23.43288381 19.81722944 34.79506232 46.94983464 38.66137695 76.9675293 C39.041005 82.24677934 39.09217782 87.50695533 39.08029175 92.79705811 C39.08790475 94.30960066 39.09680112 95.82213719 39.10684788 97.33466554 C39.1304189 101.43680846 39.13592122 105.5387954 39.13809395 109.64099789 C39.14369138 114.08532361 39.16641928 118.52956865 39.18684387 122.97384644 C39.22399822 131.65541666 39.24532525 140.33695494 39.26079635 149.01858816 C39.27365235 156.07241288 39.29229562 163.1262006 39.31500626 170.18000031 C39.31824132 171.18648485 39.32147638 172.1929694 39.32480947 173.22995348 C39.3314063 175.27488679 39.33801593 177.31982005 39.34463824 179.36475328 C39.40591096 198.4959969 39.4490985 217.6272484 39.48604251 236.75855234 C39.51817192 253.17462636 39.5660324 269.59059393 39.62524414 286.0065918 C39.69407476 305.09120183 39.75313522 324.17580095 39.79662049 343.26048684 C39.80128136 345.29394042 39.80595523 347.32739396 39.81064224 349.36084747 C39.81409417 350.86147415 39.81409417 350.86147415 39.81761583 352.39241652 C39.83451573 359.44402668 39.85843423 366.49559309 39.88506699 373.54717255 C39.91730042 382.13063028 39.93884952 390.71403465 39.94659047 399.29755077 C39.95081158 403.67698218 39.95989101 408.05626141 39.98199272 412.43564224 C40.00207562 416.4420693 40.00830775 420.44826722 40.00336768 424.45473936 C40.00402276 425.90587027 40.00978756 427.35700948 40.02110802 428.80809638 C40.03571208 430.77702808 40.03002504 432.74607924 40.023283 434.71505356 C40.02583371 435.80968532 40.02838442 436.90431709 40.03101242 438.03211951 C39.60729854 441.39698569 38.68347995 443.26530397 36.66137695 445.9675293 C23.45846199 452.68757584 6.54638924 452.35420426 -7.33862305 447.9675293 C-30.85959036 439.32340596 -47.0674298 419.89578387 -57.48583984 397.73022461 C-66.99521092 376.51934923 -68.4905965 353.76819738 -68.48579407 330.83407593 C-68.48910431 329.37276286 -68.49283225 327.9114507 -68.49693555 326.45013964 C-68.50682881 322.48032752 -68.51065141 318.5105305 -68.51332486 314.54070783 C-68.51726515 310.24226078 -68.52683927 305.94382529 -68.53553772 301.64538574 C-68.55517941 291.29929539 -68.56534437 280.95320424 -68.57426551 270.60709995 C-68.57866137 265.72839829 -68.5840241 260.84969768 -68.58925438 255.97099686 C-68.60624061 239.75043908 -68.62074006 223.52988193 -68.62800312 207.30931664 C-68.62991275 203.11286798 -68.63183315 198.91641933 -68.63378906 194.7199707 C-68.6342728 193.67706838 -68.63475654 192.63416605 -68.63525494 191.55966063 C-68.64357618 174.62165915 -68.66895986 157.68372781 -68.70136974 140.74575703 C-68.73440362 123.33967559 -68.75244782 105.93362992 -68.75564736 88.52751696 C-68.7578139 78.760522 -68.76658572 68.99362988 -68.79210854 59.2266655 C-68.81376379 50.9212666 -68.82189086 42.61599564 -68.81214175 34.31057172 C-68.80758444 30.07289037 -68.80956673 25.83547333 -68.8289032 21.59782791 C-68.84644258 17.72076043 -68.84561312 13.84415192 -68.83000591 9.96708019 C-68.82761596 8.56300189 -68.83202479 7.15889255 -68.84383456 5.75486188 C-68.85887311 3.84935861 -68.84693522 1.94369921 -68.83360767 0.03818321 C-68.83458448 -1.02107955 -68.83556129 -2.0803423 -68.8365677 -3.17170393 C-68.21044173 -6.76889162 -66.86024568 -8.43806855 -64.33862305 -11.0324707 C-61.7878418 -12.1418457 -61.7878418 -12.1418457 -59.02612305 -12.7824707 C-58.05030273 -13.01063477 -57.07448242 -13.23879883 -56.0690918 -13.47387695 C-35.70634889 -17.63964553 -16.21092797 -13.02635051 0 0 Z " fill="#E5B430" transform="translate(859.338623046875,541.032470703125)"/>
<path d="M0 0 C1.13888672 0.11214844 1.13888672 0.11214844 2.30078125 0.2265625 C7.20346848 0.78349427 13.21961026 1.59461026 16.875 5.25 C16.97362514 6.75901921 17.00239259 8.27265389 17.00363445 9.78489208 C17.0068589 10.77101709 17.01008335 11.75714209 17.0134055 12.77314967 C17.0110826 14.41783629 17.0110826 14.41783629 17.00871277 16.0957489 C17.01097833 17.25053783 17.01324388 18.40532675 17.01557809 19.59510928 C17.02083664 22.8152805 17.02155898 26.03541686 17.02038372 29.25559103 C17.02018043 32.72349873 17.02569187 36.19139796 17.03044128 39.65930176 C17.03876725 46.46246215 17.0414971 53.26561389 17.04205366 60.06877895 C17.04252838 65.60305719 17.04458091 71.13733255 17.04775429 76.67160988 C17.05657002 92.3659795 17.06117281 108.06034228 17.06042381 123.75471439 C17.06038386 124.6017646 17.0603439 125.44881481 17.06030273 126.3215332 C17.06026185 127.16962057 17.06022097 128.01770793 17.06017885 128.89149491 C17.05977323 142.60718766 17.06931925 156.32285285 17.0834411 170.03853764 C17.09783025 184.12537345 17.10470973 198.21219585 17.10384732 212.29903919 C17.10351599 220.20587342 17.10623449 228.11267885 17.11702538 236.01950645 C17.12616432 242.75931187 17.1282783 249.49907546 17.12151595 256.23888441 C17.11826637 259.67348196 17.11813674 263.10799941 17.1268692 266.54258919 C17.18537589 294.71263257 14.82152557 319.31572374 -5.56103516 340.69335938 C-20.16690432 355.23082765 -37.92916178 363.42710138 -58.625 363.625 C-77.85042497 363.52457503 -77.85042497 363.52457503 -83.125 358.25 C-83.37799966 356.16693723 -83.37799966 356.16693723 -83.38226891 353.53517723 C-83.39194224 352.03395288 -83.39194224 352.03395288 -83.401811 350.50240076 C-83.3987138 349.3946563 -83.3956166 348.28691184 -83.39242554 347.14559937 C-83.39695665 345.97503294 -83.40148776 344.80446651 -83.40615618 343.59842837 C-83.41666194 340.33873997 -83.41811991 337.07918953 -83.41576743 333.81948948 C-83.41536045 330.30724047 -83.42638779 326.79502476 -83.43588257 323.28279114 C-83.45252564 316.39420217 -83.4579938 309.50564741 -83.45910732 302.61704002 C-83.46005721 297.01224236 -83.46416455 291.40745599 -83.47050858 285.8026619 C-83.48813792 269.90297735 -83.49734599 254.00331985 -83.49584763 238.10362546 C-83.49576772 237.24571812 -83.4956878 236.38781078 -83.49560547 235.50390625 C-83.49552371 234.64494655 -83.49544195 233.78598685 -83.49535771 232.90099807 C-83.4945466 219.01208885 -83.51363546 205.12328856 -83.5418822 191.23441081 C-83.57067378 176.9644659 -83.58441873 162.69457396 -83.58269465 148.42459929 C-83.58203241 140.41707686 -83.58745 132.40966828 -83.60905075 124.40217209 C-83.6273463 117.57603962 -83.63154252 110.75007246 -83.6180319 103.92392598 C-83.61154121 100.44645664 -83.61124119 96.9693036 -83.6287384 93.49186516 C-83.68609462 79.53161824 -83.68335875 66.56663908 -79.125 53.25 C-78.80392462 52.28642767 -78.48284924 51.32285534 -78.1520443 50.33008385 C-71.42616986 31.16228223 -55.74814343 15.71991003 -38.1875 6.375 C-26.16554383 0.64267653 -13.19227161 -1.58397772 0 0 Z " fill="#E5B430" transform="translate(1505.125,858.75)"/>
<path d="M0 0 C18.85429243 14.80273802 30.77628956 34.13500073 34.09375 57.93359375 C34.35431037 61.99007839 34.3645248 66.03001738 34.34771729 70.09387207 C34.35083727 71.26905002 34.35395725 72.44422797 34.35717177 73.65501738 C34.36372476 76.88527503 34.36142629 80.11537991 34.35519934 83.34563351 C34.35064782 86.84110729 34.35767164 90.33656145 34.36315918 93.83203125 C34.37202394 100.66490079 34.37014488 107.49772624 34.3643339 114.33059746 C34.35980885 119.88189591 34.35920813 125.43318204 34.36138153 130.98448181 C34.361688 131.77587857 34.36199446 132.56727533 34.36231022 133.3826538 C34.36294968 134.99048174 34.36359811 136.59830967 34.3642554 138.2061376 C34.36994937 153.25798356 34.36341392 168.30980511 34.35265467 183.36164707 C34.34370612 196.28082377 34.34528372 209.19996456 34.35449219 222.11914062 C34.36518743 237.13119202 34.36941473 252.1432221 34.36326766 267.15527678 C34.36263056 268.75459512 34.36200182 270.35391346 34.36138153 271.95323181 C34.3609187 273.13353461 34.3609187 273.13353461 34.36044653 274.33768192 C34.35871838 279.88732232 34.36163698 285.43694921 34.36634064 290.98658752 C34.37194056 297.74184066 34.37045123 304.49704729 34.35977915 311.25229508 C34.35451256 314.69977286 34.35248261 318.14717301 34.35907745 321.59465027 C34.36450689 325.32624024 34.35773059 329.05760887 34.34771729 332.78918457 C34.35217873 333.88575394 34.35664017 334.98232331 34.36123681 336.11212206 C34.35341357 337.60528295 34.35341357 337.60528295 34.34543228 339.1286087 C34.34510758 339.99030686 34.34478287 340.85200501 34.34444833 341.73981524 C34.09375 343.93359375 34.09375 343.93359375 32.09375 346.93359375 C19.4098671 352.81562342 1.28986063 351.69257148 -11.59375 347.30859375 C-33.28027001 339.32765197 -48.91656964 324.77820237 -58.90625 303.93359375 C-64.12344992 291.67184978 -66.21178846 280.04598002 -66.17367554 266.78004456 C-66.17820665 265.60557217 -66.18273776 264.43109979 -66.18740618 263.22103733 C-66.19780609 259.99271909 -66.19938824 256.76454252 -66.19701743 253.53621304 C-66.19660665 250.04275711 -66.20767241 246.54933351 -66.21713257 243.05589294 C-66.23368119 236.22670716 -66.23923913 229.39755592 -66.24035732 222.56835175 C-66.24130977 217.01944426 -66.24542983 211.47054811 -66.25175858 205.92164421 C-66.26934645 190.18035762 -66.27860013 174.43909821 -66.27709763 158.69780172 C-66.27701772 157.85079131 -66.2769378 157.0037809 -66.27685547 156.13110352 C-66.27677371 155.28305745 -66.27669195 154.43501138 -66.27660771 153.56126695 C-66.27579327 139.79092034 -66.29497683 126.0206827 -66.3231322 112.25036765 C-66.35183176 98.10223704 -66.36567443 83.95415968 -66.36394465 69.80599922 C-66.36328022 61.86606256 -66.36879709 53.92624047 -66.39030075 45.98633003 C-66.40847299 39.23363367 -66.41289186 32.48110397 -66.3992819 25.7283938 C-66.39273493 22.28272668 -66.39269719 18.83737972 -66.4099884 15.39174271 C-66.42532044 11.66029091 -66.41621205 7.92968964 -66.40072632 4.19825745 C-66.41101344 3.10460092 -66.42130057 2.01094439 -66.43189943 0.88414675 C-66.36446045 -6.42926514 -66.36446045 -6.42926514 -63.99822426 -9.71951389 C-45.82454917 -21.42041507 -15.56160045 -11.06463258 0 0 Z " fill="#E5B430" transform="translate(645.90625,872.06640625)"/>
</svg>
