<?xml version="1.0" encoding="UTF-8"?>
<svg version="1.1" xmlns="http://www.w3.org/2000/svg" width="2094" height="2094">
<path d="M0 0 C3 0 3 0 4.51481789 1.43613487 C5.05028782 2.09807616 5.58575775 2.76001744 6.13745403 3.44201756 C10.12244882 8.19225774 14.41216175 12.55145412 18.80073547 16.92771912 C19.66285131 17.79139494 20.52496715 18.65507077 21.41320771 19.5449186 C23.78606455 21.92105478 26.16111817 24.29495417 28.5371691 26.66789377 C31.10673474 29.23518555 33.67340723 31.80536713 36.24046326 34.37516785 C41.2599689 39.39910784 46.28215916 44.42035572 51.30533443 49.44062638 C55.38593645 53.51896669 59.46555733 57.59828605 63.54448509 61.67830086 C64.12578508 62.25975408 64.70708506 62.84120729 65.3060002 63.44028031 C66.48695023 64.62155007 67.66789802 65.80282207 68.8488436 66.9840963 C79.90664797 78.04474823 90.96750865 89.1023397 102.02942582 100.15887816 C111.52599624 109.65097411 121.01993185 119.14569876 130.51196289 128.64233398 C141.53923214 139.67494959 152.56811494 150.70594802 163.59959477 161.7343536 C164.77459652 162.9090368 165.94959619 164.08372209 167.12459373 165.2584095 C167.70271055 165.83637204 168.28082737 166.41433459 168.87646288 167.00981114 C172.9556834 171.08816722 177.03374032 175.1676846 181.11135292 179.24764824 C186.07403928 184.21313315 191.03849111 189.17684468 196.00524578 194.13826036 C198.54041194 196.67079136 201.07475888 199.20412837 203.6069603 201.73962402 C206.34666964 204.48284382 209.0902133 207.22220747 211.83418274 209.96116638 C213.04393067 211.1742604 213.04393067 211.1742604 214.27811795 212.41186136 C215.00929623 213.14043189 215.74047451 213.86900242 216.4938097 214.61965084 C217.12718591 215.25286469 217.76056211 215.88607855 218.41313154 216.5384807 C221.27669207 219.17584421 223.31145261 219.1279888 227.10309792 219.1386652 C228.19041604 219.14413964 229.27773416 219.14961409 230.39800131 219.15525442 C232.20439017 219.15672158 232.20439017 219.15672158 234.04727173 219.15821838 C235.31896536 219.16315636 236.590659 219.16809434 237.9008888 219.17318195 C241.4422563 219.18679904 244.98361417 219.19419171 248.52500105 219.20060861 C252.33960065 219.20859692 256.15418011 219.22230007 259.96876526 219.23532104 C266.58163448 219.25710612 273.19450572 219.27524316 279.80739212 219.29092598 C289.36860079 219.31360614 298.92978718 219.34175152 308.49097697 219.37124526 C324.00211284 219.41894393 339.51325781 219.46220194 355.02441406 219.50268555 C370.09505929 219.54202891 385.16569642 219.58345234 400.23632812 219.62768555 C401.62897339 219.63177196 401.62897339 219.63177196 403.04975291 219.63594092 C407.7072579 219.6496202 412.36476277 219.66334051 417.02226758 219.67708123 C455.6814949 219.79108174 494.34073957 219.89788318 533 220 C532.91933694 220.5774035 532.83867388 221.154807 532.75556648 221.74970758 C526.39506892 267.58090922 522.25949198 313.47880354 520.00618488 359.69339228 C519.87541811 362.36645319 519.74081031 365.03930381 519.60612249 367.71216965 C515.09561459 458.77316794 521.3614835 533.4078892 584.3946811 603.24001402 C602.22121235 622.86851839 621.35699274 641.05643152 641.09648001 658.73877728 C643.06866809 660.50552557 645.03821228 662.27518615 647.0074873 664.04518032 C680.7347534 694.3235212 715.63197811 722.95025565 752 750 C750.623337 753.22460885 749.18892766 754.91396493 746.3833456 756.99403 C745.24968348 757.84604866 745.24968348 757.84604866 744.09311908 758.71527982 C743.25917796 759.33120708 742.42523684 759.94713435 741.56602478 760.58172607 C739.72792553 761.96573162 737.8907774 763.35100097 736.0544281 764.73732758 C735.06683943 765.48021121 734.07925076 766.22309484 733.06173515 766.9884901 C702.19608467 790.30477684 672.68970509 815.19172386 643.88763428 841.0027194 C642.58986431 842.16549486 641.29129783 843.32738196 639.9919281 844.48836946 C573.98696267 903.4699195 524.86514398 959.63171707 519.58837834 1051.09542906 C518.03112388 1079.71881421 518.44221541 1108.20842261 519.86696845 1136.82717156 C520.00040928 1139.50822307 520.13006061 1142.18943949 520.25932837 1144.87069511 C522.50069776 1190.81000861 526.70348774 1236.43998688 533 1282 C532.42221678 1281.91971666 531.84443356 1281.83943332 531.24914175 1281.75671715 C485.39636242 1275.42732119 439.47724397 1271.30856428 393.24482089 1269.06790179 C390.57102046 1268.93791422 387.89742498 1268.8041511 385.22381353 1268.67034006 C294.43075236 1264.20449175 219.71030104 1270.25962976 150.02700338 1333.09150711 C130.49321994 1350.81416983 112.4018954 1369.8473479 94.81349868 1389.48290664 C93.0572404 1391.44337115 91.29798563 1393.40111331 89.53834391 1395.35854101 C41.60361108 1445.34539369 41.60361108 1445.34539369 3 1502 C0 1502 0 1502 -1.58682019 1500.56519979 C-2.1407707 1499.90360107 -2.69472121 1499.24200235 -3.26545811 1498.56035519 C-3.88125268 1497.82516403 -4.49704726 1497.08997288 -5.13150227 1496.3325032 C-8.09629766 1492.63145791 -10.93844506 1488.85060783 -13.75267029 1485.03431702 C-38.31050119 1452.09941413 -64.33297753 1420.5612268 -91.73964399 1389.95900685 C-93.4332024 1388.06730042 -95.12381655 1386.1729912 -96.81437731 1384.27860594 C-154.5150649 1319.73967888 -209.60602758 1273.99643471 -298.75460228 1268.94120827 C-328.28427383 1267.36178331 -357.66466261 1267.88751691 -387.1875 1269.3125 C-388.97999417 1269.39664887 -390.77249293 1269.4807 -392.56499624 1269.56465387 C-438.59458722 1271.74758961 -484.33086099 1275.85854459 -530 1282 C-529.91933694 1281.4225965 -529.83867388 1280.845193 -529.75556648 1280.25029242 C-523.39506892 1234.41909078 -519.25949198 1188.52119646 -517.00618488 1142.30660772 C-516.87541811 1139.63354681 -516.74081031 1136.96069619 -516.60612249 1134.28783035 C-512.09561459 1043.22683206 -518.3614835 968.5921108 -581.3946811 898.75998598 C-599.22121235 879.13148161 -618.35699274 860.94356848 -638.09648001 843.26122272 C-640.06866809 841.49447443 -642.03821228 839.72481385 -644.0074873 837.95481968 C-677.7347534 807.6764788 -712.63197811 779.04974435 -749 752 C-747.623337 748.77539115 -746.18892766 747.08603507 -743.3833456 745.00597 C-742.24968348 744.15395134 -742.24968348 744.15395134 -741.09311908 743.28472018 C-740.25917796 742.66879292 -739.42523684 742.05286565 -738.56602478 741.41827393 C-736.72792553 740.03426838 -734.8907774 738.64899903 -733.0544281 737.26267242 C-732.06683943 736.51978879 -731.07925076 735.77690516 -730.06173515 735.0115099 C-699.19608467 711.69522316 -669.68970509 686.80827614 -640.88763428 660.9972806 C-639.58986431 659.83450514 -638.29129783 658.67261804 -636.9919281 657.51163054 C-570.98696267 598.5300805 -521.86514398 542.36828293 -516.58837834 450.90457094 C-515.03112388 422.28118579 -515.44221541 393.79157739 -516.86696845 365.17282844 C-517.00040928 362.49177693 -517.13006061 359.81056051 -517.25932837 357.12930489 C-519.50069776 311.18999139 -523.70348774 265.56001312 -530 220 C-529.42221678 220.08028334 -528.84443356 220.16056668 -528.24914175 220.24328285 C-482.39636242 226.57267881 -436.47724397 230.69143572 -390.24482089 232.93209821 C-387.57102046 233.06208578 -384.89742498 233.1958489 -382.22381353 233.32965994 C-291.43075236 237.79550825 -216.71030104 231.74037024 -147.02700338 168.90849289 C-127.49321994 151.18583017 -109.4018954 132.1526521 -91.81349868 112.51709336 C-90.0572404 110.55662885 -88.29798563 108.59888669 -86.53834391 106.64145899 C-38.60361108 56.65460631 -38.60361108 56.65460631 0 0 Z M1 212 C-0.56193008 213.96246275 -2.07410328 215.94369932 -3.57325745 217.95359802 C-4.58045542 219.28734579 -5.58876607 220.62025382 -6.59800434 221.95245838 C-7.41610976 223.03263892 -7.41610976 223.03263892 -8.25074255 224.13464129 C-25.70207139 247.07836806 -44.30552839 268.99452755 -63.5625 290.4375 C-64.39838386 291.37098629 -65.23426772 292.30447257 -66.0954814 293.26624632 C-109.20968384 341.26496846 -149.81760993 375.80622595 -216.296875 379.6484375 C-236.83867946 380.73879849 -257.2777336 380.32331226 -277.8125 379.3125 C-279.08404891 379.25186922 -280.35559781 379.19123843 -281.6656785 379.12877035 C-314.61096672 377.52881291 -347.32877081 374.51597982 -380 370 C-379.8552785 371.0045608 -379.710557 372.00912161 -379.56145 373.04412365 C-374.89690733 405.81238037 -371.92694722 438.63673291 -370.1875 471.6875 C-370.11931438 472.94583853 -370.05112877 474.20417706 -369.98087692 475.50064707 C-366.59140832 539.79398316 -370.52716191 593.23903969 -414.95703125 642.765625 C-428.64458595 657.87736425 -443.32547745 671.83660902 -458.5 685.4375 C-459.90681007 686.7024043 -459.90681007 686.7024043 -461.34204054 687.99286222 C-485.65852484 709.81719069 -510.81180515 730.46487857 -537 750 C-535.46474836 754.2186268 -532.36141604 756.30059808 -528.87509155 758.86482239 C-527.55438434 759.86102025 -526.23421918 760.85793702 -524.91450977 761.85545635 C-524.20623873 762.38728979 -523.49796769 762.91912324 -522.7682339 763.46707284 C-500.10492407 780.5550103 -478.51343557 798.88245158 -457.375 817.8125 C-456.45448207 818.63466271 -455.53396415 819.45682542 -454.58555174 820.30390215 C-408.50706259 861.59635387 -373.867322 901.18337275 -369.92061901 965.06460881 C-368.76211454 986.82480931 -369.15226852 1008.43726178 -370.3125 1030.1875 C-370.37817389 1031.45404686 -370.44384779 1032.72059373 -370.5115118 1034.0255208 C-372.24346186 1066.8547879 -375.37944864 1099.45372959 -380 1132 C-378.99028546 1131.86043223 -377.98057093 1131.72086447 -376.94025898 1131.57706738 C-344.00220436 1127.08012022 -311.0163296 1124.27079675 -277.8125 1122.6875 C-276.54821293 1122.62526292 -275.28392586 1122.56302585 -273.98132706 1122.4989028 C-207.3685197 1119.31663687 -154.20156761 1124.5147851 -103.32007432 1170.60304952 C-89.26349891 1183.52567835 -76.23695409 1197.35110738 -63.5 1211.5625 C-62.6571547 1212.49994915 -61.8143094 1213.43739829 -60.94592333 1214.40325499 C-39.1413038 1238.69905543 -18.51318862 1263.8310428 1 1290 C7.81778109 1284.91712834 12.47793045 1278.36761028 17.50171649 1271.61438477 C33.94576065 1249.60476153 51.63950022 1228.67069044 69.9375 1208.1875 C70.73317587 1207.2942217 71.52885175 1206.4009434 72.34863901 1205.48059607 C114.43658443 1158.38850948 153.99032537 1126.41608768 218.875 1122.7734375 C239.42837768 1121.71355759 259.8894418 1122.10212386 280.4375 1123.0625 C281.71184072 1123.12033897 282.98618144 1123.17817794 284.29913855 1123.2377696 C317.3527534 1124.76840454 350.19788629 1127.66932523 383 1132 C382.86135403 1130.98936367 382.72270805 1129.97872734 382.57986069 1128.93746567 C378.11374795 1095.97798058 375.3225298 1062.97148552 373.75 1029.75 C373.65729584 1027.85291794 373.65729584 1027.85291794 373.56271887 1025.91751099 C370.4139922 959.52022954 375.42084633 906.31102631 421.36397028 855.55915356 C434.20001096 841.58954698 447.93779379 828.64986316 462.0625 816 C462.99397543 815.16312841 463.92545086 814.32625683 464.88515282 813.4640255 C489.0210009 791.81882885 513.99150691 771.35108444 540 752 C538.46671866 747.79886152 535.39691244 745.73023464 531.91978455 743.17987061 C530.60903906 742.19363624 529.29883567 741.20668113 527.98908806 740.21912193 C527.28618448 739.69265595 526.5832809 739.16618997 525.85907722 738.62377048 C503.35194782 721.69579713 481.91881297 703.52405733 460.9375 684.75 C460.02336492 683.93422013 459.10922983 683.11844027 458.16739368 682.2779398 C410.59729027 639.68323373 377.29833176 599.61598829 373.55859375 533.9140625 C372.48437977 513.36635863 372.88835266 492.9164156 373.875 472.375 C373.93427595 471.10205519 373.99355189 469.82911037 374.05462408 468.51759148 C375.62060238 435.5182081 378.57673034 402.73679488 383 370 C381.99028546 370.13956777 380.98057093 370.27913553 379.94025898 370.42293262 C347.00220734 374.91987924 314.01633039 377.72925435 280.8125 379.3125 C279.54814668 379.37473708 278.28379336 379.43697415 276.98112631 379.5010972 C210.3769259 382.68274762 157.21818387 377.49826194 106.35718322 331.39695048 C92.30920477 318.47392557 79.28911241 304.65014209 66.5625 290.4375 C65.72061898 289.50005085 64.87873796 288.56260171 64.01134539 287.59674501 C45.01495138 266.40310221 26.78326618 244.64291495 9.59800434 221.95245838 C8.82620858 220.9336803 8.82620858 220.9336803 8.03882098 219.89432085 C7.08691748 218.6337949 6.13845354 217.37066144 5.19404817 216.10450804 C4.15213924 214.71891703 3.07959157 213.35643603 2 212 C1.67 212 1.34 212 1 212 Z " fill="#E5B430" transform="translate(1047,296)"/>
<path d="M0 0 C1.04462402 -0.00350464 2.08924805 -0.00700928 3.16552734 -0.01062012 C6.61041963 -0.01940553 10.05510571 -0.01359943 13.5 -0.00683594 C15.8984379 -0.0081835 18.29687553 -0.0101248 20.6953125 -0.01263428 C25.71877649 -0.01558122 30.74216929 -0.01130163 35.765625 -0.00195312 C42.2017178 0.00944107 48.63764379 0.00287932 55.07373047 -0.00909805 C60.02540339 -0.01632819 64.97703682 -0.0140234 69.92871094 -0.00884247 C72.30175801 -0.00750917 74.67480869 -0.00914249 77.04785156 -0.01380157 C80.36533087 -0.01888565 83.68254074 -0.01112984 87 0 C87.97888184 -0.00404846 88.95776367 -0.00809692 89.96630859 -0.01226807 C94.91518709 0.0184594 98.83664894 0.41465589 103.5 2.25878906 C105.61942743 2.47073181 107.7466358 2.61287336 109.875 2.69628906 C115.74393629 3.04621518 121.34505571 3.8739802 127.10595703 5.03198242 C132.63123398 6.13162217 138.17301134 6.96706842 143.75 7.75878906 C150.14529794 8.68107796 156.34616063 9.81785587 162.58984375 11.51269531 C165.99653764 12.38608932 169.41993689 13.04071299 172.875 13.69628906 C178.907283 14.87585403 184.73371469 16.40239913 190.62109375 18.15722656 C194.41838353 19.26573341 198.25326018 20.1912179 202.09814453 21.11865234 C208.94154095 22.77059355 215.56716005 24.40098652 222.03515625 27.23144531 C225.21810805 28.55809559 228.474709 29.62559235 231.75 30.69628906 C241.84952214 34.02157043 251.86119508 37.36556273 261.49609375 41.89550781 C264.39056051 43.20912147 267.30848144 44.41129021 270.25732422 45.59521484 C281.23621614 50.00752949 291.86839044 55.07338015 302.5 60.25878906 C303.18255859 60.58911133 303.86511719 60.91943359 304.56835938 61.25976562 C312.29838454 65.00462237 319.78991183 69.05431581 327.2109375 73.36816406 C330.05048549 75.0003983 332.91404879 76.54763193 335.8125 78.07128906 C342.9439026 81.93063635 349.65197941 86.45970424 356.42480469 90.90673828 C358.29639163 92.12613222 360.17833924 93.3252711 362.0703125 94.51269531 C375.053233 102.69103154 387.49505569 111.70468114 399.5 121.25878906 C400.58526622 122.10860537 401.67127014 122.95748 402.7578125 123.80566406 C405.78819084 126.1723045 408.80905345 128.55066551 411.82470703 130.93603516 C413.29466998 132.09666752 414.76995818 133.25054873 416.24609375 134.40332031 C423.70377709 140.33995408 430.55275701 146.87104665 437.45703125 153.43457031 C440.67653788 156.49239049 443.9371617 159.48998941 447.25 162.44628906 C453.87043947 168.36627248 453.87043947 168.36627248 456.5 171.25878906 C456.5 171.91878906 456.5 172.57878906 456.5 173.25878906 C457.428125 173.63003906 457.428125 173.63003906 458.375 174.00878906 C460.85068687 175.46507546 461.45125002 176.63691412 462.5 179.25878906 C463.16 179.25878906 463.82 179.25878906 464.5 179.25878906 C465.68688006 180.63813616 466.8710978 182.02162909 467.98828125 183.45800781 C470.01583865 185.87326352 472.26553656 188.03425657 474.5 190.25878906 C476.13652635 192.01897576 477.7613597 193.79009826 479.375 195.57128906 C480.17679688 196.45429687 480.97859375 197.33730469 481.8046875 198.24707031 C482.7043965 199.2498372 483.6027232 200.25384526 484.5 201.25878906 C485.04132568 201.86360107 485.58265137 202.46841309 486.14038086 203.09155273 C490.39834571 207.89709719 494.39773842 212.85875781 498.3125 217.94628906 C498.92287109 218.73592041 499.53324219 219.52555176 500.16210938 220.33911133 C501.38471426 221.9215233 502.60626005 223.50475421 503.82666016 225.08886719 C505.25879064 226.94599816 506.69593818 228.79899427 508.13671875 230.64941406 C513.16410331 237.13100077 518.09889148 243.68134671 523 250.25878906 C523.61230469 251.07275146 524.22460938 251.88671387 524.85546875 252.7253418 C525.42910156 253.49950439 526.00273438 254.27366699 526.59375 255.07128906 C527.10615234 255.75835938 527.61855469 256.44542969 528.14648438 257.15332031 C529.61500026 259.43767836 530.56927902 261.71318943 531.5 264.25878906 C532.16 264.25878906 532.82 264.25878906 533.5 264.25878906 C533.6546875 265.21785156 533.6546875 265.21785156 533.8125 266.19628906 C534.039375 266.87691406 534.26625 267.55753906 534.5 268.25878906 C535.49 268.58878906 536.48 268.91878906 537.5 269.25878906 C537.8125 272.44628906 537.8125 272.44628906 537.5 276.25878906 C535.5 278.50878906 535.5 278.50878906 534.11328125 279.70410156 C530.33355044 283.34655401 527.52982821 287.99333258 524.5 292.25878906 C519.9555615 298.58625676 515.33431906 304.84121261 510.56079102 310.99829102 C508.13469147 314.12775364 505.73305053 317.27290438 503.359375 320.44238281 C497.66455764 328.0218832 491.89608912 335.31383168 485.328125 342.15722656 C482.97453887 344.65184672 480.88784668 347.30470574 478.76953125 350.00097656 C472.48796068 357.7326419 465.37217271 364.64891399 458.30688477 371.65771484 C455.93379624 374.0124642 453.56889069 376.37520047 451.20507812 378.73925781 C449.67755511 380.26186667 448.14957588 381.78401802 446.62109375 383.30566406 C445.92503525 384.00060974 445.22897675 384.69555542 444.51182556 385.41156006 C440.53527443 389.35030634 436.46051168 393.12081744 432.21740723 396.77139282 C429.93841939 398.74515763 427.75708393 400.81700952 425.5625 402.88378906 C420.23927664 407.74862374 414.60115448 412.0964358 408.84130859 416.42993164 C404.5094882 419.69543553 400.31204084 423.04756716 396.1875 426.57128906 C391.57547799 430.46366042 386.81384603 433.8607012 381.75 437.13769531 C378.71779076 439.11664918 375.74237178 441.15741397 372.77172852 443.2265625 C364.78234302 448.78758388 356.63624836 454.03358419 348.34033203 459.12402344 C346.65593196 460.16263998 344.98170668 461.21771116 343.30859375 462.27441406 C327.52700898 472.19081215 310.98850764 480.66582716 294.1875 488.69628906 C292.7344043 489.39334961 292.7344043 489.39334961 291.25195312 490.10449219 C282.30579912 494.38360655 273.34951712 498.61044072 264.125 502.25878906 C263.49779053 502.50733643 262.87058105 502.75588379 262.22436523 503.01196289 C255.99993119 505.47180155 249.753532 507.87404023 243.5 510.25878906 C242.79746094 510.53464844 242.09492187 510.81050781 241.37109375 511.09472656 C237.2796346 512.68347688 233.14050514 513.99167147 228.9375 515.25878906 C225.52672481 516.2890461 222.33097226 517.33254662 219.0625 518.75878906 C210.41392522 522.40029423 201.14532699 524.3893732 192.0078125 526.41503906 C188.75002294 527.19864991 185.55891312 528.10108921 182.34619141 529.04663086 C171.71811781 532.15514964 161.01312591 534.04640324 150.09326172 535.82226562 C146.69111903 536.3949479 143.31923836 537.07583213 139.9375 537.75878906 C130.6240594 539.55285183 121.20384197 540.66333955 111.79272461 541.81347656 C110.5372583 541.97203125 109.28179199 542.13058594 107.98828125 542.29394531 C106.85946533 542.43195557 105.73064941 542.56996582 104.56762695 542.7121582 C101.58926266 543.09509095 101.58926266 543.09509095 99.44694519 544.27677917 C95.07374456 545.73405984 90.86142557 545.53678642 86.28125 545.51757812 C84.74138428 545.52283508 84.74138428 545.52283508 83.17041016 545.52819824 C79.78020446 545.53699395 76.39020779 545.53117392 73 545.52441406 C70.64257772 545.52576133 68.28515571 545.52770238 65.92773438 545.5302124 C60.98825433 545.53316074 56.04884664 545.52887527 51.109375 545.51953125 C44.77740723 545.50813696 38.44560901 545.51469797 32.11364746 545.52667618 C27.24608075 545.53390255 22.37855425 545.53160325 17.51098633 545.52642059 C15.17618795 545.52508625 12.84138592 545.52672427 10.5065918 545.5313797 C7.24387946 545.5364576 3.98144187 545.52871665 0.71875 545.51757812 C-0.24659668 545.52162659 -1.21194336 545.52567505 -2.20654297 545.52984619 C-6.78942415 545.50085634 -10.3160363 545.33337258 -14.5 543.25878906 C-16.65263352 542.87520399 -18.81789966 542.55929851 -20.98828125 542.29394531 C-22.87148071 542.05611328 -22.87148071 542.05611328 -24.79272461 541.81347656 C-25.44933075 541.73323242 -26.10593689 541.65298828 -26.78244019 541.5703125 C-36.75867396 540.34654756 -46.67869552 539.02278215 -56.53515625 537.03222656 C-59.65777629 536.4036207 -62.78965431 535.87164032 -65.93359375 535.36035156 C-76.51048608 533.63180826 -86.76292439 531.57109805 -97.04296875 528.54003906 C-101.82351484 527.13493533 -106.65605057 525.98437638 -111.5 524.82128906 C-120.31387272 522.67513158 -128.86462141 519.96933467 -137.42382812 516.97607422 C-139.61282909 516.21980836 -141.81111456 515.49616321 -144.01171875 514.77441406 C-148.27140565 513.35863142 -152.45042082 511.78170031 -156.625 510.13378906 C-158.19005808 509.51908838 -159.75516479 508.90451149 -161.3203125 508.29003906 C-162.14950195 507.96390625 -162.97869141 507.63777344 -163.83300781 507.30175781 C-166.69443882 506.18275074 -169.56152787 505.07917943 -172.4296875 503.97753906 C-174.4531313 503.19630537 -176.47656887 502.41505557 -178.5 501.63378906 C-179.44246582 501.27397949 -180.38493164 500.91416992 -181.35595703 500.54345703 C-186.69185275 498.47439784 -191.81773887 496.18898643 -196.91064453 493.57958984 C-201.70859915 491.13220775 -206.57905497 488.83307417 -211.4375 486.50878906 C-212.46423828 486.01507812 -213.49097656 485.52136719 -214.54882812 485.01269531 C-215.53173828 484.5421875 -216.51464844 484.07167969 -217.52734375 483.58691406 C-218.85366821 482.95124512 -218.85366821 482.95124512 -220.20678711 482.30273438 C-222.58128902 481.17321995 -222.58128902 481.17321995 -225.5 480.25878906 C-225.5 479.59878906 -225.5 478.93878906 -225.5 478.25878906 C-226.01046875 478.16726563 -226.5209375 478.07574219 -227.046875 477.98144531 C-230.48513843 476.96858108 -233.57334465 475.32658475 -236.75 473.69628906 C-237.72453125 473.20225586 -237.72453125 473.20225586 -238.71875 472.69824219 C-240.31434294 471.88871341 -241.90742483 471.07423865 -243.5 470.25878906 C-243.5 469.59878906 -243.5 468.93878906 -243.5 468.25878906 C-244.04011719 468.15824219 -244.58023438 468.05769531 -245.13671875 467.95410156 C-264.07213922 462.38301918 -282.71447667 445.8252351 -298.5 434.25878906 C-299.45777344 433.57558594 -300.41554688 432.89238281 -301.40234375 432.18847656 C-306.96749524 428.20779317 -312.30495491 424.03057477 -317.56640625 419.65722656 C-319.61783509 417.98002642 -321.67366269 416.34336237 -323.77734375 414.73535156 C-331.12877288 409.10520213 -338.00893109 403.1702971 -344.70214844 396.76586914 C-345.3005957 396.19376709 -345.89904297 395.62166504 -346.515625 395.03222656 C-347.04446289 394.52095215 -347.57330078 394.00967773 -348.11816406 393.48291016 C-349.50376678 392.14926404 -349.50376678 392.14926404 -351.5 391.25878906 C-351.5 390.59878906 -351.5 389.93878906 -351.5 389.25878906 C-352.09383484 388.9896167 -352.68766968 388.72044434 -353.29949951 388.44311523 C-355.50202434 387.25769955 -356.94449593 386.06772774 -358.70800781 384.30957031 C-359.30832825 383.7155542 -359.90864868 383.12153809 -360.52716064 382.50952148 C-361.16272888 381.86990479 -361.79829712 381.23028809 -362.453125 380.57128906 C-363.11334656 379.91298096 -363.77356812 379.25467285 -364.45379639 378.57641602 C-365.84470501 377.18686615 -367.23310008 375.79479632 -368.61914062 374.40039062 C-370.74909741 372.2596962 -372.88954496 370.12990996 -375.03125 368.00097656 C-376.38085039 366.65005519 -377.72983059 365.29851388 -379.078125 363.94628906 C-379.72179016 363.30667236 -380.36545532 362.66705566 -381.02862549 362.00805664 C-385.5 357.48871817 -385.5 357.48871817 -385.5 355.25878906 C-386.16 355.25878906 -386.82 355.25878906 -387.5 355.25878906 C-388.89325954 353.70638566 -390.21380128 352.08848921 -391.5 350.44628906 C-394.69063858 346.44905705 -397.94720752 342.62772049 -401.4375 338.88378906 C-406.40320121 333.48061495 -410.83803274 327.78423337 -415.24121094 321.92480469 C-416.92691999 319.69375764 -418.64054867 317.48491065 -420.35400391 315.27514648 C-423.99232541 310.57663795 -427.5884011 305.84694286 -431.125 301.07128906 C-432.10339844 299.75064453 -432.10339844 299.75064453 -433.1015625 298.40332031 C-434.5 296.25878906 -434.5 296.25878906 -434.5 294.25878906 C-435.16 294.25878906 -435.82 294.25878906 -436.5 294.25878906 C-437.69542478 292.57753894 -438.80712843 290.83630823 -439.875 289.07128906 C-441.70620914 286.05826433 -443.50008018 283.25869045 -445.7265625 280.52050781 C-447.5 278.25878906 -447.5 278.25878906 -447.5 276.25878906 C-448.49 275.92878906 -449.48 275.59878906 -450.5 275.25878906 C-450.8125 272.57128906 -450.8125 272.57128906 -450.5 269.25878906 C-448.86097211 267.56493454 -447.18905078 265.90276686 -445.5 264.25878906 C-443.84391207 262.07048365 -442.24842599 259.88648907 -440.6875 257.63378906 C-439.80633051 256.38224688 -438.92481628 255.13094734 -438.04296875 253.87988281 C-437.39593994 252.95731689 -437.39593994 252.95731689 -436.73583984 252.01611328 C-430.98485868 243.83840439 -424.96916732 235.86793011 -418.83398438 227.9765625 C-417.46344762 226.21172052 -416.09899826 224.4422684 -414.734375 222.67285156 C-409.91636781 216.45362481 -404.98983557 210.44888757 -399.65234375 204.66113281 C-397.47034586 202.22569053 -395.45793947 199.70421583 -393.4375 197.13378906 C-388.65282392 191.18919151 -383.27215811 185.89552082 -377.82006836 180.56494141 C-377.1472583 179.90574707 -376.47444824 179.24655273 -375.78125 178.56738281 C-375.17345703 177.97755615 -374.56566406 177.38772949 -373.93945312 176.7800293 C-372.39995599 175.30029308 -372.39995599 175.30029308 -371.5 173.25878906 C-370.84 173.25878906 -370.18 173.25878906 -369.5 173.25878906 C-369.5 172.59878906 -369.5 171.93878906 -369.5 171.25878906 C-368.84 171.25878906 -368.18 171.25878906 -367.5 171.25878906 C-367.5 170.59878906 -367.5 169.93878906 -367.5 169.25878906 C-366.84 169.25878906 -366.18 169.25878906 -365.5 169.25878906 C-365.23445312 168.66348389 -364.96890625 168.06817871 -364.6953125 167.45483398 C-363.46503842 165.19455716 -362.26218112 163.85262637 -360.375 162.12207031 C-359.4463916 161.26295044 -359.4463916 161.26295044 -358.49902344 160.38647461 C-357.8393457 159.78746338 -357.17966797 159.18845215 -356.5 158.57128906 C-355.82227539 157.94843018 -355.14455078 157.32557129 -354.44628906 156.68383789 C-352.46918858 154.86993038 -350.48502284 153.06401664 -348.5 151.25878906 C-347.56671875 150.40027344 -346.6334375 149.54175781 -345.671875 148.65722656 C-340.77539257 144.18721196 -335.742278 139.92184145 -330.5859375 135.75488281 C-328.35060183 133.94680751 -326.12811795 132.12766143 -323.9140625 130.29394531 C-313.72609547 121.88606084 -303.22563618 113.96723176 -292.5 106.25878906 C-291.89027344 105.82050781 -291.28054688 105.38222656 -290.65234375 104.93066406 C-283.12342045 99.5503662 -275.35853141 94.60094616 -267.48828125 89.74316406 C-264.89966877 88.14149534 -262.3359736 86.51003306 -259.79296875 84.83691406 C-253.52591865 80.7136521 -247.24657787 76.98383164 -240.46484375 73.74316406 C-236.16598944 71.59090499 -232.09194702 69.0920952 -227.99609375 66.57910156 C-225.5 65.25878906 -225.5 65.25878906 -222.5 65.25878906 C-222.5 64.59878906 -222.5 63.93878906 -222.5 63.25878906 C-221.48421875 62.82308594 -220.4684375 62.38738281 -219.421875 61.93847656 C-213.09901775 59.20904679 -206.80972987 56.48255427 -200.6875 53.32128906 C-189.3387987 47.53870829 -177.38183045 42.89386868 -165.47265625 38.40722656 C-162.44871649 37.23897651 -159.47766426 35.97742232 -156.5 34.69628906 C-151.38990886 32.53899465 -146.23082247 30.86717289 -140.8984375 29.34863281 C-138.13009685 28.4608546 -135.55859009 27.45693879 -132.88671875 26.32910156 C-127.04562434 23.95567679 -121.07781264 22.57109654 -114.9375 21.19628906 C-106.37093993 19.2940318 -106.37093993 19.2940318 -97.98828125 16.73144531 C-92.52986022 14.83004489 -86.91919754 13.83046049 -81.25 12.75878906 C-71.61729405 10.90715433 -71.61729405 10.90715433 -62.0625 8.69628906 C-55.60151847 7.15796013 -49.05799795 6.15854821 -42.5 5.13378906 C-41.41920166 4.96290771 -40.33840332 4.79202637 -39.22485352 4.6159668 C-32.64144225 3.61567106 -26.12391744 2.95063815 -19.47265625 2.60693359 C-16.51294166 2.39029204 -16.51294166 2.39029204 -13.97045898 1.25320435 C-9.26631194 -0.09470835 -4.86947821 -0.0201392 0 0 Z M-143.75 146.88378906 C-148.12785023 149.1168562 -152.51800598 151.13972572 -157.0625 153.00878906 C-178.59073776 162.11688965 -198.87327446 174.64196372 -218.5 187.25878906 C-219.14984863 187.67515625 -219.79969727 188.09152344 -220.46923828 188.52050781 C-227.91383665 193.31277217 -234.99631322 198.27559019 -241.7734375 203.99316406 C-244.6991165 206.42424404 -247.71405212 208.71913836 -250.75 211.00878906 C-258.29844156 216.74460771 -265.41342928 222.96692475 -272.5 229.25878906 C-273.23790771 229.9069458 -273.97581543 230.55510254 -274.73608398 231.22290039 C-281.23668287 236.98748375 -287.42188637 243.02639472 -293.55102539 249.17944336 C-295.19239796 250.8262031 -296.83908819 252.46751002 -298.48632812 254.10839844 C-304.03116626 259.65010796 -309.46539115 265.24165375 -314.5 271.25878906 C-312.90072931 274.61457816 -311.09124536 277.01512321 -308.5625 279.75878906 C-307.76585937 280.62761719 -306.96921875 281.49644531 -306.1484375 282.39160156 C-305.27445313 283.33777344 -304.40046875 284.28394531 -303.5 285.25878906 C-302.53308314 286.31798156 -301.56695547 287.37789495 -300.6015625 288.43847656 C-299.63039083 289.50374713 -298.65903973 290.56885415 -297.6875 291.63378906 C-297.23189697 292.13330078 -296.77629395 292.6328125 -296.30688477 293.14746094 C-292.52025089 297.31919357 -292.52025089 297.31919357 -288.5 301.25878906 C-287.84 301.25878906 -287.18 301.25878906 -286.5 301.25878906 C-286.29246094 301.80148437 -286.08492187 302.34417969 -285.87109375 302.90332031 C-283.97509693 306.16054562 -281.33699008 308.45283569 -278.5625 310.94628906 C-277.68851563 311.74184204 -277.68851563 311.74184204 -276.796875 312.5534668 C-272.41484049 316.51126022 -267.9079887 320.29158466 -263.30078125 323.98535156 C-261.3102319 325.60111129 -259.35567432 327.23081856 -257.41796875 328.90722656 C-250.26801343 335.0897645 -242.89839994 340.73983444 -235.12939453 346.12304688 C-233.56445758 347.21385998 -232.0142793 348.32575451 -230.46484375 349.43847656 C-229.56894531 350.08042969 -228.67304687 350.72238281 -227.75 351.38378906 C-226.58210938 352.22296875 -226.58210938 352.22296875 -225.390625 353.07910156 C-223.5886161 354.43524524 -223.5886161 354.43524524 -221.5 354.25878906 C-221.5 354.91878906 -221.5 355.57878906 -221.5 356.25878906 C-219.99976684 357.40646904 -219.99976684 357.40646904 -218.02734375 358.46582031 C-217.29193359 358.88798828 -216.55652344 359.31015625 -215.79882812 359.74511719 C-215.01958984 360.18275391 -214.24035156 360.62039063 -213.4375 361.07128906 C-208.45549126 363.89314663 -203.66484464 366.7728369 -199.04418945 370.15795898 C-196.99084424 371.62175876 -194.85084958 372.82653453 -192.625 374.00878906 C-191.21927734 374.75902344 -191.21927734 374.75902344 -189.78515625 375.52441406 C-188.70105469 376.09675781 -187.61695313 376.66910156 -186.5 377.25878906 C-185.144285 377.98228616 -183.7888321 378.70627452 -182.43359375 379.43066406 C-167.30880824 387.76018986 -167.30880824 387.76018986 -151.45703125 394.49316406 C-149.22618643 395.36590974 -147.17805213 396.44773533 -145.0625 397.57128906 C-139.95935314 400.18129547 -134.71200366 402.03697254 -129.30078125 403.88476562 C-124.74694991 405.44568255 -120.26584504 407.12218826 -115.80053711 408.92041016 C-107.5490996 412.24186804 -99.28957259 414.87753636 -90.68359375 417.11816406 C-87.78771728 417.87756037 -84.97267882 418.76185506 -82.14453125 419.74316406 C-77.091886 421.46020384 -71.95914032 422.62174553 -66.75 423.75878906 C-64.78246529 424.19459532 -62.81501668 424.6307905 -60.84765625 425.06738281 C-59.91453613 425.27347168 -58.98141602 425.47956055 -58.02001953 425.69189453 C-55.06425668 426.35681231 -52.12728947 427.08934148 -49.1875 427.82128906 C-30.12572564 432.1613567 -10.9386682 434.01489741 8.5534668 435.02514648 C11.5 435.25878906 11.5 435.25878906 14.14599609 435.77514648 C19.1645196 436.49881041 24.15105861 436.40105309 29.21484375 436.39160156 C30.34394669 436.39255829 31.47304962 436.39351501 32.6363678 436.39450073 C35.01921647 436.39517986 37.40206701 436.39334426 39.78491211 436.38916016 C43.42110375 436.38381317 47.05717159 436.3891117 50.69335938 436.39550781 C53.0130211 436.39484689 55.33268276 436.39356542 57.65234375 436.39160156 C59.27607155 436.39463791 59.27607155 436.39463791 60.93260193 436.3977356 C66.23348528 436.38137299 71.25626371 436.1178394 76.5 435.25878906 C78.8054713 435.06859263 81.11304417 434.90256946 83.421875 434.75878906 C84.69417969 434.67628906 85.96648437 434.59378906 87.27734375 434.50878906 C89.27420968 434.38312592 91.27107756 434.25748351 93.26806641 434.13378906 C95.21538342 434.01217082 97.16238607 433.88555131 99.109375 433.75878906 C100.26405273 433.68660156 101.41873047 433.61441406 102.60839844 433.54003906 C105.56521089 433.36088695 105.56521089 433.36088695 108.5 432.25878906 C110.15872542 432.09108834 111.82098746 431.95713399 113.484375 431.84472656 C119.37807359 431.34680397 124.9944654 430.21259284 130.75 428.88378906 C132.76797316 428.4295253 134.78620315 427.97640097 136.8046875 427.52441406 C138.26213379 427.19666992 138.26213379 427.19666992 139.74902344 426.86230469 C143.44625274 426.05119794 147.15632171 425.33996231 150.875 424.63378906 C155.37396508 423.74680799 159.60319069 422.68193805 163.91015625 421.12597656 C167.48081828 419.93037027 171.11539044 418.98687336 174.75 418.00878906 C193.47646084 412.90228694 212.29004832 406.72057544 229.87890625 398.46191406 C232.61878091 397.20426668 235.39115436 396.07233429 238.1875 394.94628906 C256.82272448 387.24598257 276.6343957 377.61181315 292.76171875 365.44628906 C294.91810126 363.97316483 297.17866607 362.83014271 299.5 361.63378906 C306.3248443 357.98394054 312.36000671 353.4092498 318.51757812 348.75292969 C320.48715668 347.268469 322.46812912 345.80067706 324.453125 344.33691406 C337.76860958 334.4909111 350.63335117 324.23642217 362.6953125 312.87988281 C364.88136086 310.83693233 367.08928543 308.87394105 369.375 306.94628906 C378.1621599 299.33949393 386.50856553 290.85513742 394.00390625 281.97753906 C396.67190034 278.91248058 399.58849062 276.09065229 402.5 273.25878906 C398.7961572 268.92258286 395.07360817 264.60501412 391.3046875 260.32519531 C390.0473595 258.88552754 388.80352243 257.43401299 387.5703125 255.97363281 C386.63832031 254.87728516 386.63832031 254.87728516 385.6875 253.75878906 C385.12417969 253.08847656 384.56085937 252.41816406 383.98046875 251.72753906 C382.61093455 250.02402522 382.61093455 250.02402522 380.5 250.25878906 C380.5 249.59878906 380.5 248.93878906 380.5 248.25878906 C379.11707981 246.86055935 379.11707981 246.86055935 377.25 245.38378906 C373.52843323 242.23325634 370.09277673 238.86800331 366.6875 235.38378906 C362.11478176 230.74200522 357.36441824 226.51319844 352.2578125 222.45410156 C349.41570124 220.19168439 346.6463094 217.85722836 343.875 215.50878906 C331.4899964 205.18328719 318.57053508 195.80390507 305.1875 186.82128906 C304.55023987 186.39068176 303.91297974 185.96007446 303.25640869 185.51641846 C296.06274519 180.66654697 288.93276746 176.31786197 281.08447266 172.57324219 C278.20934605 171.11096355 275.77082965 169.37774215 273.20849609 167.43798828 C269.82599565 165.10339595 266.04338787 163.51707894 262.3125 161.82128906 C260.6154154 161.03454172 258.91879939 160.24678279 257.22265625 159.45800781 C256.40812988 159.0807959 255.59360352 158.70358398 254.75439453 158.31494141 C251.89217164 156.97402997 249.06847554 155.56411747 246.25 154.13378906 C241.65546243 151.81699675 237.02896589 149.5781174 232.375 147.38378906 C231.72241211 147.07296387 231.06982422 146.76213867 230.39746094 146.44189453 C227.091208 144.7990738 227.091208 144.7990738 223.5 144.25878906 C224.25763144 147.79156488 225.57033788 150.98249255 226.9375 154.32128906 C228.94544076 159.4590859 230.20745438 164.27898608 231.0390625 169.71582031 C231.48475628 172.17469021 232.1494023 174.35082907 233 176.69628906 C240.64367303 198.23754941 239.06513842 223.98046087 236.5 246.25878906 C236.4170166 246.99919434 236.3340332 247.73959961 236.24853516 248.50244141 C235.54767011 254.4874404 234.42994351 260.03023633 232.34765625 265.68066406 C231.19874999 269.17503332 230.40382522 272.7438208 229.5625 276.32128906 C228.36344498 281.3236504 227.0330809 285.86620037 224.48828125 290.35644531 C223.28457926 292.67345269 222.51298669 295.03232899 221.6875 297.50878906 C219.80821583 302.84448216 217.21505514 307.46666451 214.28125 312.29003906 C212.61484727 315.06737694 211.11251801 317.88292091 209.625 320.75878906 C205.78172037 327.89630838 200.76617865 334.15623795 195.73046875 340.48144531 C194.31026334 342.17256759 194.31026334 342.17256759 194.5 344.25878906 C193.84 344.25878906 193.18 344.25878906 192.5 344.25878906 C190.82717819 345.87386269 190.82717819 345.87386269 189.125 347.94628906 C188.49722656 348.68105469 187.86945313 349.41582031 187.22265625 350.17285156 C185.96684529 351.6934934 184.75192566 353.2481777 183.5625 354.82128906 C181.1593768 357.66134375 178.51233231 359.97546853 175.68359375 362.38378906 C174.25761125 363.60824631 172.85253487 364.85760074 171.47265625 366.13378906 C160.20733536 376.53900166 145.21388287 388.35416144 130.5 393.25878906 C130.5 393.91878906 130.5 394.57878906 130.5 395.25878906 C129.46746094 395.41927734 129.46746094 395.41927734 128.4140625 395.58300781 C125.0071103 396.3730919 122.06914045 397.64726482 118.875 399.07128906 C107.11813654 404.1856239 95.86892277 407.4363817 83.29663086 409.84155273 C81.41193586 410.20561692 81.41193586 410.20561692 79.5 411.25878906 C35.5244099 421.43758749 -16.76883541 410.89424622 -54.9921875 387.58691406 C-59.23183185 384.91251622 -63.3782989 382.11072897 -67.5 379.25878906 C-68.16499512 378.80262207 -68.82999023 378.34645508 -69.51513672 377.87646484 C-71.43392586 376.55549416 -73.34428987 375.22354719 -75.25 373.88378906 C-75.81050049 373.4913501 -76.37100098 373.09891113 -76.94848633 372.69458008 C-80.48506448 370.15734049 -83.47954005 367.38403118 -86.5 364.25878906 C-87.70940325 363.07879171 -88.92190869 361.90196935 -90.13671875 360.72753906 C-98.37860318 352.68232444 -105.74823499 344.59134456 -112.5 335.25878906 C-113.4993995 334.0083089 -114.49932593 332.75824951 -115.5 331.50878906 C-124.7426273 319.13262145 -131.94707296 304.81899923 -137.3125 290.39941406 C-138.3229517 287.72703524 -139.42260135 285.12699378 -140.5625 282.50878906 C-143.01540616 276.48620645 -144.27079776 270.1520628 -145.66796875 263.82128906 C-146.31208004 260.44123532 -146.31208004 260.44123532 -147.5 258.25878906 C-150.3073644 242.02612521 -151.03381662 225.69033185 -150.5 209.25878906 C-150.4690625 208.01484375 -150.438125 206.77089844 -150.40625 205.48925781 C-149.5911245 188.310488 -145.53433939 171.50068287 -139.5234375 155.46582031 C-138.29732149 152.18474048 -138.29732149 152.18474048 -138.5 148.25878906 C-137.84 148.25878906 -137.18 148.25878906 -136.5 148.25878906 C-136.5 146.93878906 -136.5 145.61878906 -136.5 144.25878906 C-139.38398568 144.25878906 -141.19640087 145.55236706 -143.75 146.88378906 Z " fill="#E5B430" transform="translate(1007.5,770.7412109375)"/>
<path d="" fill="#E5B430" transform="translate(0,0)"/>
<path d="" fill="#E5B430" transform="translate(0,0)"/>
</svg>
